<svg width="25" height="24" viewBox="0 0 25 24" fill="none" xmlns="http://www.w3.org/2000/svg">
<path d="M22.0227 18.33C22.0227 18.69 21.9427 19.06 21.7727 19.42C21.6027 19.78 21.3827 20.12 21.0927 20.44C20.6027 20.98 20.0627 21.37 19.4527 21.62C18.8527 21.87 18.2027 22 17.5027 22C16.4827 22 15.3927 21.76 14.2427 21.27C13.0927 20.78 11.9427 20.12 10.8027 19.29C9.65273 18.45 8.56273 17.52 7.52273 16.49C6.49273 15.45 5.56273 14.36 4.73273 13.22C3.91273 12.08 3.25273 10.94 2.77273 9.81C2.29273 8.67 2.05273 7.58 2.05273 6.54C2.05273 5.86 2.17273 5.21 2.41273 4.61C2.65273 4 3.03273 3.44 3.56273 2.94C4.20273 2.31 4.90273 2 5.64273 2C5.92273 2 6.20273 2.06 6.45273 2.18C6.71273 2.3 6.94273 2.48 7.12273 2.74L9.44273 6.01C9.62273 6.26 9.75273 6.49 9.84273 6.71C9.93273 6.92 9.98273 7.13 9.98273 7.32C9.98273 7.56 9.91273 7.8 9.77273 8.03C9.64273 8.26 9.45273 8.5 9.21273 8.74L8.45273 9.53C8.34273 9.64 8.29273 9.77 8.29273 9.93C8.29273 10.01 8.30273 10.08 8.32273 10.16C8.35273 10.24 8.38273 10.3 8.40273 10.36C8.58273 10.69 8.89273 11.12 9.33273 11.64C9.78273 12.16 10.2627 12.69 10.7827 13.22C11.3227 13.75 11.8427 14.24 12.3727 14.69C12.8927 15.13 13.3227 15.43 13.6627 15.61C13.7127 15.63 13.7727 15.66 13.8427 15.69C13.9227 15.72 14.0027 15.73 14.0927 15.73C14.2627 15.73 14.3927 15.67 14.5027 15.56L15.2627 14.81C15.5127 14.56 15.7527 14.37 15.9827 14.25C16.2127 14.11 16.4427 14.04 16.6927 14.04C16.8827 14.04 17.0827 14.08 17.3027 14.17C17.5227 14.26 17.7527 14.39 18.0027 14.56L21.3127 16.91C21.5727 17.09 21.7527 17.3 21.8627 17.55C21.9627 17.8 22.0227 18.05 22.0227 18.33Z" stroke="#0A0C0E" stroke-width="1.5" stroke-miterlimit="10"/>
</svg>
