<svg width="21" height="20" viewBox="0 0 21 20" fill="none" xmlns="http://www.w3.org/2000/svg">
<g id="call">
<path id="Vector 3" d="M2.5118 4.4685C2.97658 3.97102 3.70578 3.23926 4.35687 2.59492C5.13716 1.82272 6.39397 1.83776 7.16453 2.61968L8.38873 3.86192C8.96914 4.45089 8.93785 5.37915 8.43059 6.03218C7.27136 7.52453 7.58478 8.52997 9.67239 10.6176C11.7625 12.7077 12.7402 12.9917 14.231 11.8231C14.8796 11.3146 15.805 11.2868 16.392 11.8653L17.6621 13.1171C18.4445 13.8882 18.4589 15.146 17.6859 15.9265C17.0432 16.5755 16.3135 17.3028 15.8145 17.7712C12.4281 20.9503 -0.659464 7.86288 2.5118 4.4685Z" stroke="black"/>
</g>
</svg>
