<svg width="111" height="111" viewBox="0 0 111 111" fill="none" xmlns="http://www.w3.org/2000/svg">
<rect x="0.0527344" y="0.5" width="110" height="110" rx="55" fill="#008253"/>
<path d="M104.759 60.6227C104.674 61.3539 104.463 61.9697 104.125 62.4701C103.793 62.9776 103.358 63.3431 102.818 63.5664C102.278 63.7962 101.665 63.8713 100.978 63.7916C100.292 63.7118 99.7121 63.4982 99.2389 63.1507C98.7713 62.8104 98.4342 62.3551 98.2273 61.785C98.0262 61.2221 97.9681 60.575 98.053 59.8437L98.2955 57.7558L105.002 58.5348L104.759 60.6227ZM98.7746 59.9276C98.674 60.7935 98.825 61.4807 99.2275 61.989C99.6365 62.498 100.255 62.8006 101.082 62.8967C101.916 62.9936 102.594 62.8383 103.116 62.4308C103.637 62.0298 103.947 61.3995 104.047 60.54L104.188 59.3276L98.9154 58.7152L98.7746 59.9276Z" fill="white"/>
<path d="M98.5746 70.7669C98.4134 70.72 98.2457 70.661 98.0713 70.59L99.2584 66.5168C98.7472 66.4014 98.3038 66.4572 97.9283 66.6841C97.5571 66.9189 97.3065 67.2596 97.1764 67.7059C97.0698 68.0717 97.065 68.3999 97.1619 68.6905C97.2632 68.989 97.442 69.2295 97.6983 69.4118L97.4327 70.3231C96.9827 70.044 96.6623 69.6547 96.4716 69.1552C96.287 68.6575 96.2833 68.1048 96.4604 67.4973C96.6013 67.0137 96.8363 66.6113 97.1653 66.2902C97.4925 65.9752 97.8861 65.7671 98.3461 65.6657C98.8123 65.5662 99.3089 65.5932 99.8359 65.7468C100.363 65.9004 100.794 66.1404 101.129 66.4668C101.465 66.7932 101.683 67.1763 101.783 67.6159C101.888 68.0635 101.868 68.5353 101.724 69.0312C101.583 69.5148 101.353 69.9119 101.034 70.2224C100.714 70.533 100.34 70.7332 99.9102 70.8232C99.4848 70.9212 99.0396 70.9024 98.5746 70.7669ZM99.0061 69.9443C99.3285 70.0382 99.6251 70.0473 99.8961 69.9716C100.173 69.8977 100.407 69.7539 100.597 69.5402C100.791 69.3346 100.932 69.0829 101.019 68.7854C101.143 68.3576 101.114 67.9521 100.929 67.5688C100.743 67.1917 100.415 66.911 99.9438 66.7267L99.0061 69.9443Z" fill="white"/>
<path d="M94.2468 73.396C94.4164 73.0263 94.6301 72.7229 94.888 72.4859C95.1517 72.2516 95.4341 72.1005 95.7352 72.0326C96.0422 71.9673 96.3465 71.9932 96.6481 72.1102L96.2685 72.9378C96.0171 72.851 95.7693 72.8723 95.5252 73.0019C95.2783 73.1373 95.0796 73.3694 94.9288 73.6981C94.7888 74.0034 94.746 74.275 94.8002 74.513C94.8545 74.751 94.9843 74.9171 95.1898 75.0113C95.4011 75.1082 95.5997 75.0856 95.7856 74.9436C95.9774 74.8042 96.2134 74.5607 96.4935 74.2132C96.7516 73.8982 96.9802 73.6478 97.1791 73.462C97.3811 73.2847 97.6138 73.1569 97.877 73.0787C98.1434 73.009 98.4321 73.0455 98.7432 73.1882C98.9897 73.3013 99.1821 73.4783 99.3202 73.7192C99.4584 73.9602 99.5242 74.2426 99.5178 74.5664C99.5172 74.893 99.4375 75.2294 99.2787 75.5757C99.0338 76.1099 98.7009 76.4794 98.2802 76.6843C97.8594 76.8892 97.4089 76.8957 96.9285 76.7038L97.296 75.9026C97.5564 76.0007 97.806 75.9909 98.0448 75.873C98.2809 75.761 98.4702 75.5495 98.6129 75.2384C98.7448 74.9508 98.7881 74.6936 98.7429 74.4668C98.6977 74.2401 98.5753 74.081 98.3758 73.9894C98.2173 73.9168 98.0623 73.9061 97.9109 73.9574C97.7627 74.0173 97.6213 74.1088 97.4867 74.2318C97.3553 74.3633 97.1882 74.5496 96.9854 74.7905C96.7327 75.0937 96.5096 75.3324 96.316 75.5065C96.1284 75.6833 95.9086 75.8063 95.6567 75.8755C95.402 75.9505 95.1266 75.9237 94.8304 75.7949C94.5663 75.6738 94.3622 75.4914 94.2182 75.2478C94.0742 75.0041 94.0024 74.719 94.003 74.3925C94.0067 74.0745 94.088 73.7424 94.2468 73.396Z" fill="white"/>
<path d="M97.6924 80.2912C97.7773 80.1464 97.8992 80.0532 98.0583 80.0116C98.2173 79.9701 98.3693 79.9917 98.5142 80.0766C98.659 80.1615 98.7522 80.2834 98.7938 80.4425C98.8353 80.6015 98.8137 80.7535 98.7288 80.8983C98.6472 81.0376 98.5285 81.1253 98.3727 81.1612C98.2137 81.2028 98.0617 81.1811 97.9169 81.0963C97.772 81.0114 97.6788 80.8894 97.6372 80.7304C97.5924 80.5769 97.6108 80.4305 97.6924 80.2912ZM96.7331 80.2232L92.153 77.5403L92.5985 76.7797L97.1787 79.4627L96.7331 80.2232Z" fill="white"/>
<path d="M94.2617 84.0945C93.988 84.4623 93.6686 84.7237 93.3037 84.8787C92.9349 85.039 92.5786 85.0958 92.2349 85.0493L93.0119 85.6276L92.4799 86.3425L88.1285 83.1037C87.74 82.8146 87.4572 82.4753 87.2801 82.0859C87.0979 81.6926 87.037 81.277 87.0973 80.8389C87.1539 80.4061 87.3344 79.985 87.639 79.5758C88.0554 79.0163 88.5346 78.6484 89.0763 78.4721C89.6181 78.2958 90.142 78.3436 90.648 78.6155L90.1275 79.3148C89.8107 79.1998 89.4839 79.2061 89.1473 79.3339C88.8055 79.4579 88.5074 79.6908 88.2529 80.0327C87.9637 80.4212 87.8503 80.8278 87.9125 81.2525C87.9709 81.6823 88.2203 82.0611 88.6606 82.3889L89.5542 83.054C89.4096 82.729 89.3566 82.3676 89.3952 81.9697C89.4338 81.5717 89.59 81.1889 89.8637 80.8211C90.1452 80.4429 90.4948 80.1678 90.9127 79.9958C91.3266 79.829 91.7675 79.7828 92.2353 79.8573C92.7031 79.9318 93.152 80.1291 93.582 80.4491C94.0171 80.773 94.3323 81.1444 94.5275 81.5634C94.728 81.9863 94.8051 82.4181 94.7589 82.8587C94.7089 83.3044 94.5432 83.7164 94.2617 84.0945ZM90.8907 84.0487C91.2118 84.2878 91.5398 84.4312 91.8744 84.4791C92.2091 84.5269 92.5215 84.4858 92.8116 84.3555C93.1031 84.2344 93.3471 84.0417 93.5438 83.7775C93.7404 83.5133 93.8575 83.2261 93.8951 82.916C93.9327 82.6059 93.8806 82.2975 93.7387 81.9906C93.5968 81.6837 93.3653 81.4108 93.0441 81.1717C92.7177 80.9288 92.3846 80.7815 92.0448 80.7298C91.7101 80.6819 91.397 80.7186 91.1056 80.8398C90.8193 80.9648 90.5779 81.1594 90.3812 81.4236C90.1846 81.6878 90.0675 81.975 90.0299 82.2851C89.9936 82.6042 90.0464 82.9172 90.1883 83.2241C90.3354 83.5348 90.5695 83.8097 90.8907 84.0487Z" fill="white"/>
<path d="M88.9066 90.237C88.445 90.6886 87.9334 90.9136 87.3718 90.9121C86.8146 90.9152 86.2786 90.6536 85.7638 90.1274L83.5757 87.8911L84.1988 87.2814L86.2988 89.4277C86.6692 89.8062 87.046 90.0021 87.4295 90.0154C87.8174 90.0333 88.1753 89.882 88.503 89.5613C88.8353 89.2362 88.9991 88.8726 88.9944 88.4707C88.985 88.0734 88.7861 87.6762 88.3977 87.2792L86.3451 85.1814L86.9752 84.5649L90.6874 88.359L90.0574 88.9755L89.529 88.4355C89.5941 88.7513 89.5724 89.0661 89.4639 89.38C89.3509 89.6984 89.1651 89.9841 88.9066 90.237Z" fill="white"/>
<path d="M81.3486 97.8155C80.7189 98.1969 80.103 98.4077 79.5007 98.4478C78.8962 98.4969 78.3403 98.3768 77.8329 98.0877C77.3201 97.8019 76.8847 97.3635 76.5267 96.7725C76.1687 96.1815 75.9818 95.5926 75.9661 95.0057C75.9482 94.4277 76.1009 93.8822 76.4243 93.3691C76.7456 92.865 77.2211 92.4222 77.8507 92.0408L79.6486 90.9518L83.1464 96.7264L81.3486 97.8155ZM78.2271 92.6622C77.4815 93.1139 77.0313 93.6545 76.8767 94.2842C76.7254 94.9195 76.8656 95.5933 77.2972 96.3058C77.7321 97.0238 78.2705 97.464 78.9125 97.6263C79.5488 97.792 80.2371 97.6507 80.9772 97.2024L82.0211 96.57L79.271 92.0299L78.2271 92.6622Z" fill="white"/>
<path d="M69.5395 99.1238C69.4782 98.9675 69.4223 98.7987 69.372 98.6173L73.3214 97.0674C73.1002 96.5923 72.7851 96.2755 72.3761 96.1169C71.9633 95.9667 71.5406 95.9765 71.1077 96.1464C70.7531 96.2855 70.4904 96.4823 70.3196 96.7366C70.1452 96.9993 70.0642 97.2877 70.0765 97.602L69.1929 97.9488C69.1388 97.422 69.2511 96.9305 69.5299 96.4742C69.8111 96.024 70.2462 95.6832 70.8353 95.4521C71.3042 95.2681 71.7662 95.2081 72.2215 95.2723C72.6707 95.3388 73.0761 95.5231 73.4374 95.8252C73.8012 96.1334 74.0833 96.543 74.2838 97.0539C74.4843 97.5649 74.5579 98.0528 74.5045 98.5178C74.4511 98.9827 74.2811 99.3893 73.9946 99.7376C73.7045 100.094 73.319 100.367 72.8381 100.556C72.3692 100.74 71.9143 100.8 71.4734 100.737C71.0326 100.675 70.6452 100.501 70.3113 100.215C69.9737 99.9385 69.7165 99.5747 69.5395 99.1238ZM70.4544 98.9625C70.577 99.2751 70.7511 99.5155 70.9767 99.6836C71.2046 99.8578 71.4612 99.9548 71.7464 99.9747C72.0281 100.003 72.3131 99.9604 72.6017 99.8472C73.0165 99.6844 73.3192 99.413 73.51 99.0329C73.6947 98.6552 73.7161 98.2236 73.5742 97.7382L70.4544 98.9625Z" fill="white"/>
<path d="M64.8517 97.2993C65.2478 97.2064 65.6185 97.1891 65.9638 97.2473C66.3106 97.3119 66.6031 97.4422 66.8415 97.6384C67.0814 97.8408 67.2476 98.097 67.3402 98.4069L66.4537 98.6148C66.3681 98.363 66.1993 98.1804 65.9472 98.0671C65.6888 97.9552 65.3835 97.9406 65.0315 98.0232C64.7046 98.0999 64.4638 98.2327 64.3091 98.4215C64.1544 98.6104 64.1028 98.8148 64.1545 99.0349C64.2076 99.2612 64.3473 99.4042 64.5735 99.4639C64.8012 99.5298 65.1382 99.5668 65.5845 99.5749C65.9916 99.5855 66.3296 99.6124 66.5984 99.6554C66.8623 99.7063 67.106 99.8116 67.3292 99.9715C67.5476 100.139 67.6959 100.39 67.7741 100.723C67.836 100.987 67.8142 101.247 67.7087 101.504C67.6031 101.761 67.4205 101.986 67.1608 102.18C66.9026 102.38 66.588 102.523 66.2171 102.61C65.645 102.745 65.1489 102.708 64.729 102.502C64.3091 102.295 64.0276 101.943 63.8844 101.446L64.7426 101.245C64.8249 101.511 64.9858 101.702 65.2253 101.818C65.4586 101.936 65.7418 101.956 66.075 101.878C66.3831 101.805 66.6128 101.682 66.7641 101.507C66.9155 101.332 66.966 101.138 66.9159 100.924C66.8761 100.754 66.7895 100.625 66.656 100.537C66.5178 100.457 66.3588 100.401 66.1791 100.371C65.9947 100.348 65.7451 100.33 65.4304 100.317C65.0359 100.304 64.7105 100.274 64.4543 100.228C64.1996 100.188 63.9676 100.09 63.7584 99.9337C63.543 99.7786 63.3952 99.5446 63.3152 99.2318C63.2488 98.9488 63.2677 98.6758 63.3717 98.4126C63.4758 98.1494 63.657 97.9179 63.9152 97.718C64.1686 97.5259 64.4808 97.3863 64.8517 97.2993Z" fill="white"/>
<path d="M61.5183 104.244C61.6848 104.222 61.8332 104.261 61.9637 104.361C62.0941 104.461 62.1703 104.594 62.1922 104.761C62.2141 104.927 62.1751 105.076 62.075 105.206C61.975 105.336 61.8417 105.413 61.6752 105.435C61.5152 105.456 61.3731 105.416 61.2491 105.315C61.1187 105.215 61.0425 105.082 61.0206 104.915C60.9987 104.749 61.0377 104.6 61.1378 104.47C61.2314 104.34 61.3583 104.265 61.5183 104.244ZM60.9832 103.445L60.2898 98.1821L61.1637 98.067L61.8571 103.33L60.9832 103.445Z" fill="white"/>
<path d="M56.388 103.86C55.9296 103.869 55.5273 103.776 55.1813 103.583C54.8288 103.389 54.5657 103.143 54.3919 102.842L54.4106 103.811L53.5196 103.828L53.415 98.4046C53.4056 97.9204 53.5006 97.489 53.7 97.1106C53.8993 96.7257 54.1905 96.4229 54.5738 96.2024C54.9506 95.982 55.394 95.8669 55.9041 95.857C56.6014 95.8436 57.1856 95.997 57.6569 96.3173C58.1281 96.6376 58.4111 97.081 58.506 97.6475L57.6344 97.6644C57.5313 97.3434 57.3262 97.089 57.019 96.9012C56.7117 96.7069 56.345 96.6139 55.9189 96.6221C55.4346 96.6314 55.0437 96.7908 54.7461 97.1001C54.4421 97.4095 54.2954 97.8386 54.306 98.3874L54.3274 99.5011C54.4958 99.1879 54.7491 98.9246 55.0873 98.7114C55.4255 98.4982 55.8238 98.3872 56.2822 98.3783C56.7535 98.3692 57.1851 98.4772 57.5769 98.7021C57.9624 98.9272 58.2689 99.2474 58.4965 99.6629C58.7241 100.078 58.8431 100.554 58.8534 101.09C58.8639 101.632 58.7633 102.109 58.5516 102.52C58.3401 102.937 58.046 103.263 57.6695 103.496C57.2865 103.729 56.8593 103.851 56.388 103.86ZM54.3596 101.167C54.3673 101.567 54.4548 101.914 54.6219 102.208C54.789 102.502 55.0129 102.724 55.2935 102.873C55.5678 103.03 55.8696 103.104 56.1989 103.098C56.5282 103.092 56.8269 103.008 57.0951 102.848C57.3632 102.688 57.5752 102.458 57.7308 102.158C57.8865 101.858 57.9605 101.508 57.9528 101.107C57.9449 100.7 57.8574 100.347 57.6901 100.047C57.5229 99.7527 57.3022 99.5277 57.0279 99.3715C56.7538 99.2218 56.4521 99.1501 56.1228 99.1565C55.7935 99.1628 55.4948 99.2461 55.2266 99.4063C54.9521 99.573 54.737 99.8065 54.5813 100.107C54.4258 100.413 54.3519 100.767 54.3596 101.167Z" fill="white"/>
<path d="M48.1109 103.374C47.4713 103.284 46.9805 103.017 46.6384 102.572C46.2955 102.132 46.1749 101.548 46.2766 100.819L46.7091 97.7206L47.5725 97.8411L47.1574 100.815C47.0843 101.34 47.1596 101.758 47.3834 102.069C47.6063 102.387 47.9449 102.578 48.3989 102.641C48.8594 102.705 49.2473 102.613 49.5624 102.363C49.8712 102.113 50.064 101.713 50.1408 101.163L50.5465 98.2562L51.4195 98.378L50.6857 103.635L49.8127 103.513L49.9172 102.765C49.707 103.01 49.4445 103.185 49.1298 103.291C48.8087 103.396 48.4691 103.424 48.1109 103.374Z" fill="white"/>
<path d="M37.4611 101.993C36.7758 101.724 36.2344 101.362 35.8369 100.908C35.431 100.457 35.189 99.9427 35.1109 99.364C35.0268 98.783 35.1109 98.1709 35.3633 97.5277C35.6157 96.8845 35.9704 96.3785 36.4272 96.0098C36.8757 95.6447 37.402 95.435 38.006 95.3807C38.6017 95.33 39.2421 95.4391 39.9274 95.708L41.8841 96.4759L39.4178 102.761L37.4611 101.993ZM39.662 96.3843C38.8505 96.0658 38.1476 96.0363 37.5533 96.2956C36.9567 96.5609 36.5062 97.0813 36.2019 97.8567C35.8952 98.6382 35.8722 99.3333 36.1328 99.942C36.3874 100.548 36.9174 101.009 37.7229 101.326L38.8591 101.771L40.7982 96.8302L39.662 96.3843Z" fill="white"/>
<path d="M29.2744 93.4404C29.3608 93.2965 29.4606 93.1492 29.5736 92.9987L33.2105 95.1834C33.4522 94.7184 33.5111 94.2754 33.3873 93.8545C33.2546 93.4358 32.989 93.1068 32.5904 92.8674C32.2638 92.6712 31.9477 92.583 31.642 92.6027C31.3275 92.6247 31.0495 92.7364 30.8079 92.9379L29.9942 92.4491C30.3787 92.0849 30.8367 91.8742 31.3683 91.8169C31.8966 91.7651 32.432 91.9021 32.9745 92.228C33.4063 92.4874 33.7356 92.817 33.9624 93.2169C34.1837 93.6135 34.2848 94.0472 34.2657 94.5178C34.2433 94.994 34.0908 95.4674 33.8081 95.9379C33.5255 96.4084 33.1837 96.7643 32.7826 97.0055C32.3816 97.2467 31.9557 97.36 31.505 97.3454C31.0454 97.333 30.5942 97.1938 30.1513 96.9277C29.7195 96.6684 29.3941 96.3448 29.175 95.9571C28.956 95.5693 28.8576 95.1562 28.88 94.7177C28.8935 94.2813 29.025 93.8556 29.2744 93.4404ZM29.9601 94.067C29.7872 94.3549 29.7029 94.6395 29.7072 94.9208C29.7081 95.2076 29.7877 95.4701 29.946 95.7083C30.0954 95.9487 30.3029 96.1487 30.5686 96.3083C30.9506 96.5378 31.3503 96.6122 31.7679 96.5315C32.1799 96.4476 32.535 96.2014 32.8331 95.7929L29.9601 94.067Z" fill="white"/>
<path d="M27.8741 88.6208C28.1895 88.8778 28.4296 89.1608 28.5943 89.4699C28.7549 89.7839 28.8303 90.0952 28.8205 90.4038C28.8066 90.7173 28.7052 91.0053 28.5163 91.2679L27.8104 90.6928C27.9576 90.4713 27.9991 90.226 27.9349 89.9572C27.8657 89.6843 27.6909 89.4336 27.4106 89.2052C27.1502 88.9931 26.898 88.8835 26.654 88.8763C26.41 88.8691 26.2167 88.9531 26.0739 89.1283C25.9271 89.3086 25.8991 89.5065 25.99 89.7221C26.0768 89.9428 26.2532 90.2323 26.5194 90.5907C26.7595 90.9195 26.9446 91.2036 27.0746 91.4427C27.1955 91.6828 27.2608 91.9401 27.2705 92.2145C27.2711 92.4898 27.1633 92.7602 26.9471 93.0255C26.7758 93.2358 26.5562 93.3776 26.2883 93.4509C26.0204 93.5241 25.7305 93.517 25.4186 93.4295C25.1027 93.3471 24.797 93.1855 24.5016 92.9449C24.046 92.5738 23.7718 92.1588 23.6791 91.7001C23.5863 91.2414 23.693 90.8037 23.9993 90.3868L24.6827 90.9435C24.5223 91.171 24.4693 91.4151 24.5234 91.6758C24.5726 91.9324 24.7298 92.1688 24.9952 92.385C25.2405 92.5848 25.4786 92.6913 25.7094 92.7045C25.9403 92.7176 26.125 92.639 26.2637 92.4688C26.3738 92.3336 26.423 92.1863 26.4113 92.0269C26.3906 91.8683 26.3375 91.7085 26.2522 91.5474C26.1578 91.3872 26.0195 91.1787 25.8372 90.922C25.607 90.6012 25.432 90.3254 25.312 90.0943C25.1879 89.8683 25.124 89.6247 25.1203 89.3635C25.1115 89.0981 25.2066 88.8383 25.4055 88.5839C25.5891 88.3586 25.8168 88.2068 26.0888 88.1285C26.3608 88.0502 26.6548 88.0523 26.9707 88.1348C27.2776 88.2182 27.5787 88.3802 27.8741 88.6208Z" fill="white"/>
<path d="M20.3146 90.1986C20.4333 90.3173 20.4927 90.4589 20.4927 90.6233C20.4927 90.7877 20.4333 90.9292 20.3146 91.0479C20.1959 91.1666 20.0543 91.226 19.89 91.226C19.7256 91.226 19.584 91.1666 19.4653 91.0479C19.3512 90.9338 19.2964 90.7968 19.3009 90.637C19.3009 90.4726 19.3603 90.331 19.479 90.2123C19.5977 90.0936 19.7393 90.0342 19.9037 90.0342C20.0635 90.0297 20.2005 90.0845 20.3146 90.1986ZM20.6228 89.2877L24.3763 85.5342L24.9995 86.1575L21.2461 89.9109L20.6228 89.2877Z" fill="white"/>
<path d="M17.5102 85.9336C17.2232 85.576 17.0507 85.2011 16.9926 84.8089C16.9305 84.4117 16.9652 84.0526 17.0968 83.7317L16.3414 84.338L15.7836 83.643L20.014 80.2477C20.3917 79.9446 20.7913 79.7564 21.2127 79.6831C21.6392 79.6058 22.0568 79.6515 22.4655 79.8203C22.8702 79.9841 23.2322 80.2649 23.5515 80.6628C23.988 81.2067 24.2234 81.763 24.2575 82.3317C24.2917 82.9005 24.1135 83.3954 23.7228 83.8166L23.1772 83.1367C23.3684 82.8591 23.4445 82.5413 23.4056 82.1833C23.3718 81.8213 23.2215 81.4741 22.9547 81.1417C22.6516 80.764 22.2867 80.5518 21.86 80.5051C21.4293 80.4533 20.9999 80.5992 20.5718 80.9427L19.7031 81.64C20.0539 81.5819 20.417 81.6217 20.7924 81.7593C21.1678 81.8969 21.499 82.1444 21.786 82.502C22.081 82.8696 22.2592 83.2773 22.3204 83.725C22.3775 84.1676 22.3112 84.6059 22.1212 85.0399C21.9313 85.4738 21.6273 85.8586 21.2093 86.194C20.7863 86.5336 20.3474 86.745 19.8927 86.8284C19.433 86.9159 18.9957 86.8818 18.581 86.7261C18.1622 86.5654 17.8053 86.3012 17.5102 85.9336ZM18.4037 82.6828C18.0915 82.9334 17.87 83.2146 17.7394 83.5264C17.6088 83.8383 17.57 84.151 17.6229 84.4645C17.6667 84.7771 17.7917 85.0618 17.9979 85.3186C18.204 85.5755 18.4524 85.7612 18.743 85.8757C19.0337 85.9902 19.3453 86.0175 19.678 85.9574C20.0108 85.8974 20.3332 85.7421 20.6455 85.4915C20.9628 85.2369 21.1892 84.9516 21.3249 84.6357C21.4555 84.3239 21.4989 84.0117 21.455 83.6991C21.4061 83.3906 21.2786 83.1079 21.0725 82.8511C20.8663 82.5942 20.618 82.4085 20.3273 82.294C20.0276 82.1785 19.7114 82.1508 19.3787 82.2108C19.041 82.2749 18.716 82.4322 18.4037 82.6828Z" fill="white"/>
<path d="M12.9582 79.2861C12.636 78.7265 12.5456 78.175 12.6871 77.6314C12.8231 77.0911 13.21 76.6373 13.8479 76.2699L16.5591 74.7084L16.9942 75.4638L14.3921 76.9625C13.9333 77.2267 13.6496 77.5429 13.5411 77.9109C13.427 78.2821 13.4844 78.6664 13.7132 79.0637C13.9453 79.4666 14.2565 79.7158 14.6469 79.8114C15.034 79.9014 15.4683 79.8079 15.9495 79.5307L18.4928 78.0659L18.9327 78.8297L14.3329 81.4789L13.893 80.7151L14.5477 80.338C14.2257 80.3223 13.9262 80.2228 13.6492 80.0395C13.3691 79.8506 13.1387 79.5995 12.9582 79.2861Z" fill="white"/>
<path d="M7.51002 70.0452C7.30137 69.3393 7.25424 68.6899 7.36861 68.0972C7.47497 67.5002 7.73249 66.9931 8.14119 66.576C8.54806 66.1528 9.0828 65.8432 9.74543 65.6474C10.4081 65.4515 11.0252 65.4206 11.5968 65.5547C12.1603 65.6844 12.649 65.971 13.0629 66.4143C13.4687 66.8533 13.7759 67.4257 13.9846 68.1317L14.5803 70.1474L8.10578 72.061L7.51002 70.0452ZM13.2879 68.3376C13.0408 67.5016 12.6324 66.9287 12.0628 66.619C11.487 66.3111 10.7996 66.2752 10.0008 66.5113C9.19569 66.7492 8.63302 67.1579 8.31272 67.7374C7.9906 68.3107 7.95217 69.0123 8.19742 69.8421L8.54335 71.0125L13.6338 69.508L13.2879 68.3376Z" fill="white"/>
<path d="M9.2338 58.3277C9.4005 58.3077 9.57797 58.2962 9.76622 58.2931L10.2719 62.5055C10.7874 62.4111 11.1734 62.1859 11.4298 61.8299C11.6791 61.4683 11.776 61.0566 11.7206 60.595C11.6752 60.2167 11.5509 59.913 11.3478 59.6837C11.1375 59.4488 10.8787 59.2977 10.5714 59.2305L10.4583 58.2881C10.9817 58.3683 11.4291 58.6008 11.8005 58.9854C12.1655 59.3709 12.3857 59.8778 12.4611 60.5061C12.5211 61.0062 12.4628 61.4685 12.2861 61.8929C12.1087 62.311 11.8283 62.6568 11.4449 62.9305C11.055 63.2049 10.5876 63.3749 10.0427 63.4403C9.49768 63.5057 9.00693 63.4541 8.57043 63.2853C8.13392 63.1166 7.78319 62.8498 7.51825 62.4848C7.24612 62.1142 7.07927 61.6725 7.0177 61.1596C6.95766 60.6595 7.01355 60.204 7.18537 59.7931C7.35718 59.3823 7.62312 59.0512 7.98318 58.7998C8.33606 58.5428 8.75294 58.3855 9.2338 58.3277ZM9.1596 59.2537C8.8262 59.2937 8.54973 59.4017 8.33021 59.5776C8.10427 59.7544 7.94579 59.9783 7.85476 60.2493C7.75654 60.5148 7.72591 60.8014 7.76285 61.1091C7.81596 61.5515 8.00243 61.9129 8.32225 62.1932C8.6413 62.4671 9.05357 62.5964 9.55906 62.5813L9.1596 59.2537Z" fill="white"/>
<path d="M12.1756 54.0983C12.1646 54.505 12.0869 54.8679 11.9427 55.187C11.7919 55.5059 11.5914 55.7556 11.341 55.9362C11.0842 56.1166 10.7941 56.2121 10.4709 56.2228L10.4955 55.3126C10.7608 55.2939 10.9804 55.1771 11.1542 54.9622C11.3281 54.7408 11.42 54.4493 11.4297 54.0878C11.4388 53.7522 11.3717 53.4855 11.2285 53.2878C11.0852 53.0902 10.9007 52.9883 10.6747 52.9822C10.4423 52.9759 10.2685 53.0746 10.1532 53.2782C10.0314 53.4816 9.90978 53.7981 9.78835 54.2276C9.67442 54.6186 9.56242 54.9385 9.45233 55.1875C9.33596 55.4298 9.17205 55.6386 8.9606 55.8138C8.74287 55.9823 8.46294 56.0619 8.12081 56.0527C7.84969 56.0454 7.60335 55.9579 7.38177 55.7905C7.1602 55.623 6.98888 55.389 6.8678 55.0886C6.74026 54.788 6.68164 54.4473 6.69193 54.0664C6.70781 53.479 6.8691 53.0085 7.17581 52.6551C7.48252 52.3016 7.89443 52.1189 8.41155 52.1071L8.38774 52.9882C8.10964 53.0001 7.88388 53.107 7.71046 53.309C7.53722 53.5046 7.44597 53.7735 7.43673 54.1156C7.42818 54.4319 7.48915 54.6855 7.61966 54.8764C7.75016 55.0672 7.92515 55.1656 8.14462 55.1715C8.31891 55.1763 8.46564 55.1253 8.5848 55.0187C8.69768 54.9055 8.79189 54.7659 8.86743 54.6C8.9367 54.4275 9.01739 54.1906 9.1095 53.8895C9.22308 53.5114 9.33474 53.2044 9.44447 52.9683C9.54776 52.7321 9.70172 52.5328 9.90637 52.3703C10.1112 52.2014 10.3751 52.1181 10.698 52.1204C10.9885 52.1282 11.2477 52.216 11.4758 52.3837C11.7038 52.5513 11.8816 52.7855 12.0091 53.0861C12.1304 53.38 12.1859 53.7175 12.1756 54.0983Z" fill="white"/>
<path d="M6.30051 49.0707C6.27922 49.2373 6.20355 49.3708 6.07351 49.4714C5.94348 49.5719 5.79518 49.6116 5.62864 49.5903C5.4621 49.569 5.32855 49.4933 5.22799 49.3633C5.12744 49.2332 5.0878 49.085 5.1091 48.9184C5.12957 48.7583 5.20442 48.6311 5.33364 48.537C5.46367 48.4364 5.61196 48.3968 5.77851 48.4181C5.94505 48.4394 6.0786 48.515 6.17915 48.6451C6.28053 48.7687 6.32098 48.9106 6.30051 49.0707ZM7.20969 48.7573L12.475 49.4305L12.3632 50.3048L7.0979 49.6316L7.20969 48.7573Z" fill="white"/>
<path d="M7.95545 44.253C8.06357 43.8075 8.25524 43.442 8.53049 43.1566C8.80726 42.8649 9.11291 42.6733 9.44745 42.5817L8.50613 42.3533L8.71626 41.4873L13.9877 42.7664C14.4583 42.8806 14.8513 43.0822 15.1665 43.3714C15.4881 43.662 15.7067 44.0208 15.8224 44.4475C15.9397 44.868 15.9381 45.3262 15.8178 45.8219C15.6534 46.4997 15.3563 47.0257 14.9266 47.3998C14.4969 47.774 13.9961 47.9349 13.424 47.8825L13.6296 47.0353C13.9662 47.0173 14.2645 46.8836 14.5243 46.6344C14.7904 46.3866 14.9737 46.0557 15.0742 45.6415C15.1884 45.1708 15.1338 44.7522 14.9104 44.3857C14.6886 44.0129 14.3109 43.7618 13.7775 43.6324L12.695 43.3697C12.9551 43.6122 13.1452 43.9242 13.2653 44.3055C13.3855 44.6868 13.3915 45.1003 13.2833 45.5458C13.1722 46.0039 12.958 46.3939 12.6407 46.7156C12.3249 47.031 11.9372 47.2459 11.4775 47.3603C11.0178 47.4747 10.5276 47.4687 10.0067 47.3423C9.47956 47.2144 9.0442 46.9958 8.70062 46.6865C8.35076 46.3757 8.11093 46.0085 7.98113 45.5849C7.85285 45.1551 7.84429 44.7112 7.95545 44.253ZM11.0759 42.9769C10.6869 42.8825 10.3289 42.8787 10.0022 42.9655C9.67547 43.0523 9.40405 43.2124 9.18796 43.4457C8.96712 43.6712 8.81787 43.944 8.74021 44.264C8.66255 44.5841 8.66705 44.8942 8.75371 45.1943C8.84036 45.4944 9.00899 45.7579 9.2596 45.9849C9.5102 46.2118 9.83004 46.3725 10.2191 46.4669C10.6145 46.5628 10.9787 46.5681 11.3117 46.4828C11.6384 46.396 11.9122 46.2398 12.1331 46.0143C12.3476 45.7873 12.4937 45.5137 12.5714 45.1937C12.6491 44.8736 12.6446 44.5635 12.5579 44.2634C12.4665 43.9555 12.2955 43.6881 12.0449 43.4612C11.788 43.2327 11.465 43.0713 11.0759 42.9769Z" fill="white"/>
<path d="M10.495 36.4515C10.7443 35.8558 11.128 35.4494 11.6459 35.2322C12.1579 35.0124 12.7535 35.0447 13.4325 35.3289L16.3186 36.5369L15.982 37.3411L13.2121 36.1817C12.7236 35.9773 12.3002 35.9435 11.9418 36.0806C11.5775 36.2151 11.3068 36.4938 11.1298 36.9167C10.9503 37.3456 10.941 37.7443 11.1018 38.1126C11.2651 38.475 11.603 38.7634 12.1152 38.9778L14.8226 40.111L14.4823 40.9241L9.58577 38.8746L9.92611 38.0615L10.6231 38.3532C10.4402 38.0877 10.3376 37.7892 10.3153 37.4579C10.2955 37.1205 10.3554 36.7851 10.495 36.4515Z" fill="white"/>
<path d="M14.4652 26.5793C14.8982 25.984 15.3846 25.5513 15.9245 25.2812C16.4629 25.0021 17.022 24.8977 17.6016 24.968C18.1851 25.0331 18.7563 25.2689 19.315 25.6753C19.8738 26.0818 20.274 26.5526 20.5156 27.0876C20.7558 27.6137 20.826 28.1758 20.7262 28.774C20.625 29.3632 20.3579 29.9555 19.9249 30.5508L18.6884 32.2506L13.2287 28.2791L14.4652 26.5793ZM19.3374 30.1235C19.8502 29.4185 20.0561 28.7457 19.955 28.1053C19.8487 27.461 19.4588 26.8938 18.7851 26.4038C18.1062 25.91 17.4394 25.7124 16.7847 25.8111C16.1338 25.9046 15.5538 26.3012 15.0448 27.0009L14.3269 27.9879L18.6194 31.1104L19.3374 30.1235Z" fill="white"/>
<path d="M24.8745 20.7176C24.992 20.8376 25.1092 20.9713 25.2264 21.1187L22.1938 24.0859C22.5827 24.4371 22.9964 24.606 23.435 24.5926C23.8736 24.5699 24.2591 24.3961 24.5914 24.0709C24.8637 23.8044 25.0289 23.5208 25.087 23.2201C25.1452 22.9102 25.1073 22.613 24.9734 22.3284L25.6519 21.6645C25.9072 22.1285 25.9954 22.6249 25.9165 23.1538C25.8332 23.678 25.5654 24.1614 25.113 24.604C24.753 24.9563 24.3509 25.1916 23.9066 25.3101C23.467 25.424 23.0219 25.4123 22.5713 25.275C22.1162 25.133 21.6967 24.8659 21.3129 24.4735C20.929 24.0812 20.671 23.6606 20.5389 23.2116C20.4068 22.7626 20.4047 22.322 20.5328 21.8895C20.6609 21.448 20.9095 21.0466 21.2788 20.6853C21.6388 20.333 22.0341 20.0999 22.4646 19.9858C22.8951 19.8718 23.3197 19.881 23.7383 20.0134C24.1571 20.1367 24.5358 20.3714 24.8745 20.7176ZM24.095 21.2228C23.8602 20.9828 23.6061 20.8294 23.3329 20.7625C23.0551 20.6909 22.781 20.7016 22.5106 20.7946C22.2402 20.8784 21.9943 21.0287 21.7727 21.2455C21.4542 21.5571 21.2813 21.9251 21.2538 22.3495C21.231 22.7693 21.3795 23.1751 21.6995 23.5667L24.095 21.2228Z" fill="white"/>
<path d="M29.7892 20.6428C29.4611 20.8833 29.1268 21.0443 28.7862 21.1258C28.4418 21.2021 28.1215 21.1967 27.8254 21.1095C27.5255 21.0171 27.2723 20.8464 27.0658 20.5975L27.8001 20.0592C27.9775 20.2574 28.2043 20.3594 28.4807 20.365C28.7622 20.3668 29.0488 20.2608 29.3405 20.047C29.6113 19.8485 29.7809 19.632 29.8494 19.3977C29.9178 19.1634 29.8852 18.9551 29.7516 18.7728C29.6142 18.5853 29.4297 18.5084 29.1981 18.542C28.9627 18.5704 28.6381 18.6682 28.2242 18.8355C27.8455 18.985 27.524 19.0926 27.2598 19.1582C26.9969 19.2147 26.7315 19.2131 26.4635 19.1533C26.1969 19.0845 25.9625 18.9121 25.7601 18.6361C25.5998 18.4173 25.5179 18.1691 25.5145 17.8914C25.5111 17.6136 25.591 17.3349 25.7542 17.0551C25.9136 16.7701 26.147 16.515 26.4542 16.2897C26.9282 15.9423 27.3988 15.7815 27.8661 15.8073C28.3333 15.8331 28.7301 16.0467 29.0564 16.4481L28.3454 16.9692C28.1657 16.7567 27.9428 16.6438 27.6769 16.6306C27.4162 16.6135 27.1478 16.7061 26.8717 16.9085C26.6165 17.0955 26.4535 17.2991 26.3826 17.5192C26.3118 17.7393 26.3412 17.9379 26.4711 18.115C26.5741 18.2556 26.7043 18.3403 26.8616 18.3692C27.0202 18.389 27.1882 18.3779 27.3656 18.3359C27.5444 18.2849 27.781 18.2036 28.0755 18.0918C28.4438 17.9499 28.7549 17.85 29.0087 17.7921C29.2587 17.729 29.5105 17.7285 29.7643 17.7907C30.0233 17.8491 30.2508 18.0065 30.4469 18.2631C30.6187 18.4975 30.7082 18.7562 30.7154 19.0391C30.7227 19.322 30.6466 19.606 30.4872 19.891C30.3292 20.1669 30.0965 20.4175 29.7892 20.6428Z" fill="white"/>
<path d="M30.0581 12.9734C29.9135 13.0588 29.7617 13.081 29.6025 13.0401C29.4433 12.9991 29.321 12.9064 29.2356 12.7618C29.1502 12.6173 29.128 12.4654 29.1689 12.3062C29.2099 12.147 29.3026 12.0247 29.4472 11.9393C29.5862 11.8572 29.7325 11.8382 29.8861 11.8825C30.0453 11.9234 30.1676 12.0162 30.253 12.1608C30.3384 12.3053 30.3607 12.4572 30.3197 12.6164C30.2843 12.7723 30.1971 12.8913 30.0581 12.9734ZM30.8635 13.4989L33.5634 18.0691L32.8044 18.5175L30.1046 13.9472L30.8635 13.4989Z" fill="white"/>
<path d="M34.8774 11.3122C35.2955 11.1242 35.7017 11.0513 36.096 11.0936C36.4961 11.1331 36.835 11.2569 37.1126 11.4649L36.7154 10.5814L37.5281 10.216L39.7525 15.1633C39.9511 15.6051 40.0329 16.0391 39.998 16.4654C39.9658 16.8977 39.8167 17.2904 39.5507 17.6436C39.2906 17.9942 38.9279 18.2741 38.4626 18.4833C37.8265 18.7693 37.2289 18.8574 36.6698 18.7477C36.1107 18.638 35.6764 18.3412 35.3668 17.8573L36.1619 17.4999C36.3826 17.7546 36.6711 17.9081 37.0274 17.9604C37.3863 18.0185 37.7601 17.9602 38.1488 17.7854C38.5905 17.5868 38.8876 17.2869 39.0399 16.8856C39.1982 16.4817 39.1648 16.0294 38.9397 15.5288L38.4829 14.5128C38.451 14.867 38.3213 15.2085 38.0939 15.5373C37.8665 15.8661 37.5437 16.1245 37.1255 16.3126C36.6956 16.5059 36.2563 16.5759 35.8075 16.5228C35.3647 16.467 34.9571 16.2927 34.5848 15.9999C34.2124 15.7071 33.9163 15.3163 33.6965 14.8274C33.4741 14.3327 33.3796 13.8548 33.413 13.3937C33.4438 12.9267 33.5866 12.5121 33.8414 12.1497C34.1021 11.7847 34.4474 11.5055 34.8774 11.3122ZM37.7997 12.9933C37.6355 12.6281 37.4189 12.3432 37.1499 12.1384C36.8808 11.9337 36.5879 11.8176 36.2711 11.7901C35.9575 11.7541 35.6506 11.8036 35.3502 11.9386C35.0498 12.0737 34.8077 12.2675 34.6239 12.5201C34.4401 12.7726 34.3355 13.0675 34.31 13.4046C34.2846 13.7417 34.354 14.0929 34.5181 14.458C34.685 14.8291 34.9042 15.1199 35.1759 15.3305C35.445 15.5353 35.7363 15.6556 36.0499 15.6917C36.3608 15.7218 36.6664 15.6693 36.9668 15.5343C37.2672 15.3992 37.5093 15.2054 37.6931 14.9529C37.8801 14.6918 37.9864 14.3926 38.0118 14.0555C38.0346 13.7125 37.9639 13.3584 37.7997 12.9933Z" fill="white"/>
<path d="M42.5989 8.51194C43.2221 8.34304 43.7785 8.39632 44.268 8.6718C44.7558 8.94105 45.0959 9.43094 45.2885 10.1415L46.1068 13.1613L45.2654 13.3893L44.48 10.491C44.3415 9.97995 44.1081 9.62503 43.78 9.42627C43.4501 9.22128 43.0639 9.17874 42.6214 9.29866C42.1726 9.42027 41.8522 9.65763 41.6602 10.0107C41.4745 10.3622 41.4542 10.8059 41.5995 11.3419L42.3671 14.1747L41.5164 14.4052L40.128 9.2819L40.9787 9.05134L41.1764 9.78058C41.2737 9.47319 41.4463 9.20898 41.6942 8.98793C41.9483 8.76519 42.2498 8.60653 42.5989 8.51194Z" fill="white"/>
<path d="M52.963 5.56279C53.6988 5.54006 54.3388 5.6592 54.8831 5.92019C55.4337 6.17454 55.8588 6.55228 56.1586 7.05341C56.4648 7.55435 56.6285 8.15013 56.6499 8.84076C56.6712 9.53139 56.5445 10.1361 56.2698 10.655C56.0014 11.1672 55.6002 11.5673 55.0664 11.8551C54.5389 12.1363 53.9072 12.2882 53.1714 12.311L51.0704 12.3759L50.862 5.62768L52.963 5.56279ZM53.149 11.5848C54.0203 11.5579 54.6781 11.3083 55.1222 10.8358C55.5661 10.357 55.7752 9.7012 55.7495 8.86857C55.7235 8.02949 55.471 7.38153 54.9917 6.92471C54.5188 6.46768 53.85 6.25253 52.9851 6.27924L51.7652 6.31692L51.9291 11.6225L53.149 11.5848Z" fill="white"/>
<path d="M64.1071 10.2081C64.0839 10.3744 64.0497 10.5489 64.0046 10.7317L59.8027 10.1453C59.7624 10.6678 59.8816 11.0984 60.1603 11.4373C60.4463 11.7706 60.8196 11.9694 61.2801 12.0337C61.6574 12.0863 61.9828 12.0437 62.2564 11.9059C62.5372 11.7625 62.7493 11.5508 62.8927 11.2709L63.8328 11.4022C63.6216 11.8878 63.2826 12.261 62.8159 12.5219C62.35 12.7763 61.8037 12.8598 61.177 12.7724C60.6781 12.7027 60.246 12.5283 59.8807 12.2491C59.5219 11.9708 59.2591 11.6114 59.0923 11.1708C58.9265 10.7239 58.8815 10.2286 58.9574 9.68497C59.0333 9.14134 59.2085 8.68005 59.4831 8.30108C59.7577 7.92211 60.1052 7.65113 60.5257 7.48813C60.9535 7.31963 61.4232 7.27109 61.9348 7.3425C62.4337 7.41212 62.8598 7.58244 63.2132 7.85345C63.5666 8.12446 63.8188 8.46612 63.9699 8.87842C64.1283 9.28521 64.174 9.72845 64.1071 10.2081ZM63.2307 9.89998C63.2771 9.56741 63.2433 9.27254 63.1292 9.01537C63.0161 8.75181 62.84 8.54141 62.6012 8.38419C62.3696 8.22147 62.1003 8.11868 61.7933 8.07583C61.352 8.01424 60.9551 8.10228 60.6024 8.33994C60.2561 8.5785 60.0258 8.94408 59.9114 9.43669L63.2307 9.89998Z" fill="white"/>
<path d="M67.2765 14.0829C66.8859 13.9691 66.5546 13.8019 66.2825 13.5814C66.0123 13.3546 65.8216 13.0973 65.7105 12.8093C65.6012 12.5151 65.5824 12.2103 65.6541 11.8949L66.5283 12.1497C66.479 12.4111 66.5363 12.6531 66.7001 12.8757C66.8701 13.1002 67.1287 13.263 67.4759 13.3641C67.7982 13.4581 68.0732 13.4609 68.3008 13.3725C68.5283 13.2841 68.6737 13.1314 68.7369 12.9144C68.802 12.6912 68.7507 12.498 68.583 12.3348C68.4171 12.1654 68.1419 11.9675 67.7572 11.741C67.4079 11.5316 67.1269 11.3421 66.914 11.1724C66.7091 10.9984 66.5488 10.7869 66.433 10.5379C66.3252 10.2845 66.3192 9.99353 66.415 9.66495C66.4909 9.40456 66.638 9.18846 66.8562 9.01664C67.0744 8.84482 67.3442 8.73848 67.6655 8.6976C67.9886 8.65052 68.3331 8.68028 68.6989 8.78688C69.263 8.9513 69.6772 9.2267 69.9412 9.61306C70.2053 9.99943 70.2775 10.4442 70.1577 10.9474L69.3115 10.7008C69.3705 10.4288 69.3244 10.1833 69.173 9.96426C69.0278 9.74706 68.7909 9.59057 68.4623 9.49481C68.1585 9.40628 67.8977 9.40091 67.68 9.4787C67.4623 9.5565 67.3227 9.70079 67.2613 9.91158C67.2125 10.079 67.2245 10.2338 67.2974 10.3761C67.3783 10.514 67.4894 10.6406 67.6307 10.7558C67.78 10.8665 67.9886 11.0047 68.2565 11.1702C68.5934 11.376 68.8621 11.5619 69.0625 11.728C69.2648 11.8878 69.4185 12.0873 69.5237 12.3265C69.6351 12.5675 69.6487 12.8439 69.5646 13.1556C69.4833 13.4346 69.3326 13.6631 69.1126 13.8411C68.8925 14.0192 68.621 14.1317 68.2978 14.1788C67.9827 14.2215 67.6423 14.1895 67.2765 14.0829Z" fill="white"/>
<path d="M73.6759 9.69274C73.5203 9.62966 73.4105 9.52242 73.3464 9.37102C73.2824 9.21963 73.2819 9.06614 73.345 8.91054C73.4081 8.75495 73.5153 8.64513 73.6667 8.58108C73.8181 8.51704 73.9716 8.51656 74.1272 8.57964C74.2768 8.6403 74.3806 8.74512 74.4387 8.89408C74.5027 9.04548 74.5032 9.19897 74.4401 9.35457C74.377 9.51016 74.2698 9.61998 74.1184 9.68402C73.973 9.7505 73.8255 9.7534 73.6759 9.69274ZM73.7469 10.6518L71.7525 15.571L70.9356 15.2398L72.9301 10.3206L73.7469 10.6518Z" fill="white"/>
<path d="M77.944 12.541C78.3471 12.7594 78.6513 13.0382 78.8568 13.3773C79.068 13.7195 79.1751 14.064 79.1781 14.4108L79.6397 13.5593L80.4231 13.9839L77.8382 18.7528C77.6074 19.1786 77.3119 19.5069 76.9518 19.7377C76.5886 19.9742 76.1859 20.0938 75.7437 20.0965C75.3072 20.1023 74.8647 19.9836 74.4162 19.7405C73.803 19.4082 73.3705 18.9864 73.1187 18.4753C72.8669 17.9642 72.8395 17.4389 73.0365 16.8993L73.8029 17.3147C73.7342 17.6447 73.7871 17.9672 73.9616 18.2822C74.1331 18.6028 74.4061 18.8646 74.7808 19.0677C75.2066 19.2985 75.6252 19.3528 76.0367 19.2306C76.4538 19.1115 76.7932 18.8107 77.0548 18.3281L77.5856 17.3488C77.2846 17.5382 76.9344 17.6422 76.535 17.6608C76.1357 17.6794 75.7345 17.5794 75.3314 17.3609C74.9169 17.1363 74.5948 16.8295 74.3649 16.4404C74.1408 16.0545 74.0322 15.6247 74.0392 15.1511C74.0462 14.6774 74.1774 14.205 74.4328 13.7338C74.6913 13.2569 75.014 12.8919 75.4009 12.6389C75.7908 12.3802 76.2072 12.2422 76.6498 12.2251C77.0981 12.211 77.5295 12.3163 77.944 12.541ZM78.3795 15.8841C78.5703 15.5321 78.6655 15.187 78.6651 14.849C78.6648 14.5109 78.5794 14.2076 78.4092 13.939C78.2477 13.6678 78.0221 13.4537 77.7326 13.2968C77.4431 13.1399 77.1421 13.0649 76.8298 13.0719C76.5176 13.0789 76.2197 13.1745 75.9362 13.3587C75.6527 13.543 75.4156 13.8111 75.2248 14.1631C75.0309 14.5207 74.9326 14.8714 74.9299 15.2152C74.9303 15.5533 75.0112 15.8579 75.1727 16.1291C75.3373 16.3946 75.5644 16.6058 75.8539 16.7627C76.1435 16.9197 76.4444 16.9947 76.7567 16.9876C77.0777 16.978 77.38 16.8811 77.6635 16.6969C77.9501 16.507 78.1887 16.2361 78.3795 15.8841Z" fill="white"/>
<path d="M84.6762 16.8638C85.1899 17.255 85.4868 17.7285 85.5667 18.2845C85.6505 18.8353 85.4694 19.4036 85.0234 19.9893L83.128 22.4785L82.4344 21.9503L84.2535 19.5613C84.5743 19.14 84.7135 18.7387 84.6711 18.3574C84.6326 17.9709 84.4309 17.6388 84.0662 17.3611C83.6962 17.0794 83.3128 16.9701 82.9158 17.033C82.524 17.0999 82.1599 17.3543 81.8234 17.7961L80.0454 20.1312L79.3441 19.5972L82.5598 15.374L83.2611 15.908L82.8034 16.5091C83.1064 16.399 83.4211 16.3748 83.7474 16.4366C84.0789 16.5023 84.3885 16.6447 84.6762 16.8638Z" fill="white"/>
<path d="M93.3464 23.2978C93.8135 23.8668 94.1097 24.4466 94.2351 25.037C94.3695 25.6284 94.3297 26.1957 94.1156 26.739C93.9056 27.2873 93.5336 27.7806 92.9994 28.2189C92.4653 28.6573 91.9089 28.926 91.3302 29.025C90.7606 29.1249 90.1989 29.0512 89.6451 28.804C89.1004 28.5576 88.5946 28.1499 88.1276 27.5808L86.7941 25.956L92.013 21.6729L93.3464 23.2978ZM88.6891 27.12C89.2422 27.7939 89.8414 28.1626 90.4866 28.2261C91.1369 28.2856 91.784 28.0511 92.428 27.5226C93.0769 26.99 93.4361 26.3945 93.5055 25.736C93.579 25.0826 93.3413 24.4214 92.7924 23.7525L92.0181 22.809L87.9149 26.1765L88.6891 27.12Z" fill="white"/>
<path d="M96.2919 34.6592C96.1464 34.743 95.9877 34.8233 95.8158 34.8999L93.6983 31.2235C93.2612 31.5125 92.9945 31.871 92.8982 32.2991C92.8108 32.7295 92.8831 33.1461 93.1151 33.549C93.3053 33.8792 93.5387 34.1099 93.8155 34.2411C94.1011 34.3747 94.3984 34.4121 94.7074 34.3534L95.1811 35.176C94.6682 35.3075 94.1654 35.2692 93.6729 35.061C93.186 34.8496 92.7846 34.4697 92.4688 33.9213C92.2174 33.4848 92.0897 33.0367 92.0858 32.577C92.085 32.1228 92.2073 31.6947 92.4527 31.2926C92.7036 30.8872 93.0669 30.5476 93.5425 30.2736C94.0182 29.9997 94.4899 29.8547 94.9576 29.8387C95.4253 29.8227 95.8526 29.9306 96.2394 30.1624C96.6351 30.3965 96.9619 30.7374 97.2197 31.1851C97.4711 31.6216 97.5983 32.0625 97.6014 32.5078C97.6045 32.9531 97.4898 33.362 97.2572 33.7344C97.0334 34.1093 96.7116 34.4175 96.2919 34.6592ZM95.997 33.7784C96.288 33.6108 96.4999 33.403 96.6328 33.1551C96.7714 32.9039 96.8293 32.6358 96.8067 32.3507C96.793 32.068 96.7087 31.7923 96.554 31.5237C96.3316 31.1376 96.0184 30.8784 95.6143 30.746C95.2133 30.6192 94.7834 30.6619 94.3243 30.8741L95.997 33.7784Z" fill="white"/>
<path d="M95.1931 39.5635C95.0431 39.1853 94.9716 38.8212 94.9785 38.471C94.9915 38.1185 95.0775 37.81 95.2365 37.5454C95.4016 37.2785 95.6306 37.0765 95.9236 36.9394L96.2594 37.7857C96.0228 37.9074 95.8669 38.1012 95.7919 38.3672C95.7191 38.6392 95.7495 38.9433 95.8828 39.2794C96.0067 39.5915 96.1733 39.8102 96.3828 39.9355C96.5923 40.0608 96.8021 40.0818 97.0122 39.9985C97.2283 39.9127 97.3493 39.7536 97.3751 39.521C97.4069 39.2861 97.3941 38.9473 97.3366 38.5046C97.2873 38.1004 97.2643 37.7621 97.2675 37.49C97.279 37.2214 97.3475 36.9649 97.4729 36.7207C97.6066 36.48 97.8326 36.2966 98.1507 36.1704C98.4028 36.0703 98.6637 36.0537 98.9333 36.1204C99.2029 36.1871 99.4525 36.3347 99.6821 36.5632C99.9177 36.7893 100.106 37.0794 100.246 37.4335C100.463 37.9797 100.5 38.4757 100.357 38.9214C100.215 39.3671 99.9078 39.6972 99.4371 39.9117L99.1121 39.0924C99.363 38.972 99.5284 38.7848 99.6083 38.5308C99.6905 38.2828 99.6685 37.9997 99.5423 37.6816C99.4256 37.3875 99.2697 37.1784 99.0746 37.0543C98.8795 36.9303 98.6799 36.9087 98.4758 36.9897C98.3137 37.054 98.1989 37.1586 98.1314 37.3035C98.0722 37.452 98.0406 37.6174 98.0364 37.7997C98.0407 37.9856 98.0598 38.235 98.0937 38.5481C98.1382 38.9404 98.1565 39.2666 98.1485 39.5268C98.1466 39.7846 98.0836 40.0284 97.9594 40.2583C97.8376 40.4942 97.6279 40.6747 97.3302 40.7998C97.06 40.9069 96.7872 40.9284 96.5116 40.864C96.2359 40.7997 95.9803 40.6545 95.7447 40.4284C95.5175 40.2059 95.3336 39.9176 95.1931 39.5635Z" fill="white"/>
<path d="M102.584 41.9087C102.538 41.7472 102.556 41.5947 102.636 41.4511C102.716 41.3076 102.837 41.213 102.998 41.1672C103.16 41.1215 103.312 41.1387 103.456 41.2188C103.599 41.299 103.694 41.4199 103.74 41.5814C103.784 41.7367 103.765 41.883 103.683 42.0203C103.603 42.1639 103.482 42.2585 103.32 42.3042C103.159 42.35 103.006 42.3328 102.863 42.2526C102.721 42.1787 102.628 42.0641 102.584 41.9087ZM101.871 42.5537L96.7636 44.0003L96.5234 43.1522L101.631 41.7056L101.871 42.5537Z" fill="white"/>
<path d="M102.949 46.9746C103.025 47.4268 102.992 47.8382 102.851 48.2088C102.711 48.5857 102.505 48.882 102.233 49.0976L103.189 48.938L103.335 49.817L97.9852 50.7107C97.5075 50.7905 97.0669 50.7593 96.6634 50.6172C96.2536 50.4762 95.9117 50.2321 95.6376 49.8851C95.3647 49.5444 95.1862 49.1225 95.1021 48.6193C94.9872 47.9314 95.0539 47.331 95.3021 46.8182C95.5503 46.3053 95.9478 45.9607 96.4945 45.7843L96.6381 46.6441C96.3356 46.7929 96.1138 47.0329 95.9727 47.3641C95.8253 47.6965 95.7867 48.0728 95.8569 48.4932C95.9367 48.9709 96.1513 49.3344 96.5006 49.5838C96.8511 49.8395 97.297 49.9222 97.8384 49.8317L98.9371 49.6482C98.6026 49.5273 98.3053 49.3151 98.0451 49.0116C97.7849 48.708 97.617 48.3301 97.5415 47.8779C97.4638 47.413 97.5077 46.9703 97.6731 46.5498C97.8397 46.1357 98.1118 45.7858 98.4897 45.5001C98.8675 45.2144 99.3207 45.0273 99.8494 44.939C100.384 44.8497 100.871 44.8797 101.308 45.0293C101.752 45.1777 102.117 45.4212 102.402 45.7598C102.689 46.1047 102.871 46.5097 102.949 46.9746ZM100.58 49.3737C100.975 49.3077 101.306 49.1707 101.572 48.9625C101.839 48.7543 102.025 48.5005 102.133 48.2011C102.247 47.907 102.277 47.5975 102.223 47.2727C102.169 46.9478 102.043 46.6644 101.845 46.4225C101.648 46.1805 101.389 46.0043 101.07 45.8941C100.75 45.7838 100.393 45.7616 99.9978 45.8276C99.5966 45.8946 99.2595 46.0327 98.9868 46.242C98.7204 46.4501 98.5299 46.7013 98.4154 46.9954C98.3072 47.2884 98.2802 47.5974 98.3345 47.9222C98.3888 48.2471 98.5147 48.5305 98.7122 48.7724C98.9172 49.0197 99.1795 49.1985 99.4991 49.3088C99.825 49.418 100.185 49.4397 100.58 49.3737Z" fill="white"/>
<path d="M103.682 55.0343C103.69 55.68 103.499 56.2053 103.11 56.6102C102.727 57.0151 102.168 57.2217 101.431 57.2303L98.3029 57.2665L98.2928 56.3948L101.295 56.36C101.825 56.3539 102.227 56.2168 102.502 55.9489C102.783 55.6808 102.92 55.3176 102.915 54.8591C102.91 54.3942 102.76 54.0246 102.466 53.7503C102.173 53.4825 101.748 53.3518 101.193 53.3582L98.2581 53.3922L98.2479 52.5108L103.556 52.4493L103.566 53.3307L102.81 53.3395C103.084 53.5107 103.296 53.7439 103.448 54.0393C103.6 54.341 103.678 54.6727 103.682 55.0343Z" fill="white"/>
</svg>
