<svg width="56" height="71" viewBox="0 0 56 71" fill="none" xmlns="http://www.w3.org/2000/svg">
<g id="Frame 1410087843">
<rect x="0.552734" y="-39.0703" width="110" height="110" rx="55" fill="#008253"/>
<g id="Vector">
<path d="M105.259 21.0524C105.174 21.7836 104.963 22.3994 104.625 22.8998C104.293 23.4073 103.858 23.7728 103.318 23.9961C102.778 24.2259 102.165 24.301 101.478 24.2213C100.792 24.1415 100.212 23.9279 99.7389 23.5804C99.2713 23.2401 98.9342 22.7848 98.7273 22.2147C98.5262 21.6518 98.4681 21.0047 98.553 20.2734L98.7955 18.1855L105.502 18.9645L105.259 21.0524ZM99.2746 20.3573C99.174 21.2232 99.325 21.9103 99.7275 22.4187C100.136 22.9277 100.755 23.2303 101.582 23.3264C102.416 23.4233 103.094 23.268 103.616 22.8605C104.137 22.4595 104.447 21.8292 104.547 20.9697L104.688 19.7573L99.4154 19.1449L99.2746 20.3573Z" fill="white"/>
<path d="M99.0746 31.1966C98.9134 31.1496 98.7457 31.0907 98.5713 31.0197L99.7584 26.9465C99.2472 26.8311 98.8038 26.8869 98.4283 27.1138C98.0571 27.3486 97.8065 27.6893 97.6764 28.1356C97.5698 28.5014 97.565 28.8296 97.6619 29.1202C97.7632 29.4187 97.942 29.6592 98.1983 29.8415L97.9327 30.7528C97.4827 30.4737 97.1623 30.0844 96.9716 29.5849C96.787 29.0872 96.7833 28.5345 96.9604 27.9269C97.1013 27.4434 97.3363 27.041 97.6653 26.7199C97.9925 26.4049 98.3861 26.1968 98.8461 26.0954C99.3123 25.9959 99.8089 26.0229 100.336 26.1765C100.863 26.3301 101.294 26.5701 101.629 26.8965C101.965 27.2229 102.183 27.6059 102.283 28.0456C102.388 28.4932 102.368 28.965 102.224 29.4609C102.083 29.9445 101.853 30.3416 101.534 30.6521C101.214 30.9627 100.84 31.1629 100.41 31.2529C99.9848 31.3509 99.5396 31.3321 99.0746 31.1966ZM99.5061 30.374C99.8285 30.4679 100.125 30.477 100.396 30.4013C100.673 30.3274 100.907 30.1836 101.097 29.9699C101.291 29.7643 101.432 29.5126 101.519 29.2151C101.643 28.7873 101.614 28.3817 101.429 27.9985C101.243 27.6214 100.915 27.3407 100.444 27.1563L99.5061 30.374Z" fill="white"/>
<path d="M94.7468 33.8257C94.9164 33.4559 95.1301 33.1525 95.388 32.9156C95.6517 32.6813 95.9341 32.5302 96.2352 32.4623C96.5422 32.397 96.8465 32.4229 97.1481 32.5399L96.7685 33.3675C96.5171 33.2806 96.2693 33.302 96.0252 33.4316C95.7783 33.567 95.5796 33.7991 95.4288 34.1278C95.2888 34.4331 95.246 34.7047 95.3002 34.9427C95.3545 35.1807 95.4843 35.3468 95.6898 35.441C95.9011 35.5379 96.0997 35.5153 96.2856 35.3733C96.4774 35.2339 96.7134 34.9904 96.9935 34.6429C97.2516 34.3279 97.4802 34.0775 97.6791 33.8916C97.8811 33.7144 98.1138 33.5866 98.377 33.5084C98.6433 33.4387 98.9321 33.4752 99.2432 33.6179C99.4897 33.7309 99.6821 33.908 99.8202 34.1489C99.9584 34.3899 100.024 34.6723 100.018 34.9961C100.017 35.3227 99.9375 35.6591 99.7787 36.0054C99.5338 36.5396 99.2009 36.9091 98.7802 37.114C98.3594 37.3189 97.9089 37.3254 97.4285 37.1335L97.796 36.3323C98.0564 36.4304 98.306 36.4206 98.5448 36.3027C98.7809 36.1907 98.9702 35.9792 99.1129 35.6681C99.2448 35.3805 99.2881 35.1233 99.2429 34.8965C99.1977 34.6698 99.0753 34.5106 98.8758 34.4191C98.7173 34.3464 98.5623 34.3358 98.4109 34.3871C98.2627 34.447 98.1213 34.5385 97.9867 34.6615C97.8553 34.793 97.6882 34.9792 97.4854 35.2201C97.2327 35.5234 97.0096 35.7621 96.816 35.9362C96.6284 36.113 96.4086 36.236 96.1567 36.3051C95.902 36.3802 95.6266 36.3533 95.3304 36.2246C95.0663 36.1035 94.8622 35.9211 94.7182 35.6775C94.5742 35.4338 94.5024 35.1487 94.503 34.8222C94.5067 34.5042 94.588 34.1721 94.7468 33.8257Z" fill="white"/>
<path d="M98.1924 40.7209C98.2773 40.5761 98.3992 40.4828 98.5583 40.4413C98.7173 40.3998 98.8693 40.4214 99.0142 40.5063C99.159 40.5911 99.2523 40.7131 99.2938 40.8722C99.3353 41.0312 99.3137 41.1832 99.2288 41.328C99.1472 41.4673 99.0285 41.555 98.8727 41.5909C98.7137 41.6325 98.5617 41.6108 98.4169 41.526C98.272 41.4411 98.1788 41.3191 98.1372 41.1601C98.0924 41.0066 98.1108 40.8602 98.1924 40.7209ZM97.2331 40.6529L92.653 37.9699L93.0985 37.2094L97.6787 39.8924L97.2331 40.6529Z" fill="white"/>
<path d="M94.7617 44.5242C94.488 44.892 94.1686 45.1534 93.8037 45.3084C93.4349 45.4686 93.0786 45.5255 92.7349 45.4789L93.5119 46.0573L92.9799 46.7722L88.6285 43.5334C88.24 43.2442 87.9572 42.905 87.7801 42.5156C87.5979 42.1223 87.5369 41.7067 87.5973 41.2686C87.6539 40.8358 87.8344 40.4147 88.139 40.0055C88.5554 39.446 89.0346 39.0781 89.5763 38.9018C90.1181 38.7254 90.642 38.7732 91.148 39.0452L90.6275 39.7445C90.3107 39.6294 89.9839 39.6358 89.6473 39.7636C89.3055 39.8876 89.0074 40.1205 88.7529 40.4624C88.4637 40.8509 88.3503 41.2575 88.4125 41.6822C88.4709 42.112 88.7203 42.4908 89.1606 42.8186L90.0542 43.4837C89.9096 43.1587 89.8566 42.7973 89.8952 42.3994C89.9338 42.0014 90.09 41.6186 90.3637 41.2508C90.6452 40.8726 90.9948 40.5975 91.4127 40.4255C91.8266 40.2587 92.2675 40.2125 92.7353 40.287C93.2031 40.3615 93.652 40.5588 94.082 40.8788C94.5171 41.2026 94.8323 41.5741 95.0275 41.9931C95.228 42.416 95.3051 42.8478 95.2589 43.2883C95.2089 43.7341 95.0432 44.146 94.7617 44.5242ZM91.3907 44.4784C91.7118 44.7175 92.0398 44.8609 92.3744 44.9088C92.7091 44.9566 93.0215 44.9154 93.3116 44.7852C93.6031 44.664 93.8471 44.4714 94.0438 44.2072C94.2404 43.943 94.3575 43.6558 94.3951 43.3457C94.4327 43.0356 94.3806 42.7271 94.2387 42.4203C94.0968 42.1134 93.8653 41.8405 93.5441 41.6014C93.2177 41.3585 92.8846 41.2112 92.5448 41.1595C92.2101 41.1116 91.897 41.1483 91.6056 41.2695C91.3193 41.3945 91.0779 41.5891 90.8812 41.8533C90.6846 42.1175 90.5675 42.4046 90.5299 42.7147C90.4936 43.0339 90.5464 43.3469 90.6883 43.6538C90.8354 43.9645 91.0695 44.2394 91.3907 44.4784Z" fill="white"/>
<path d="M89.4066 50.6667C88.945 51.1183 88.4334 51.3433 87.8718 51.3418C87.3146 51.3448 86.7786 51.0833 86.2638 50.5571L84.0757 48.3208L84.6988 47.7111L86.7988 49.8574C87.1692 50.2359 87.546 50.4318 87.9295 50.4451C88.3174 50.463 88.6753 50.3117 89.003 49.991C89.3353 49.6659 89.4991 49.3023 89.4944 48.9004C89.485 48.503 89.2861 48.1059 88.8977 47.7089L86.8451 45.6111L87.4752 44.9946L91.1874 48.7887L90.5574 49.4052L90.029 48.8652C90.0941 49.181 90.0724 49.4958 89.9639 49.8097C89.8509 50.1281 89.6651 50.4138 89.4066 50.6667Z" fill="white"/>
<path d="M81.8486 58.2451C81.2189 58.6265 80.603 58.8373 80.0007 58.8775C79.3962 58.9266 78.8403 58.8065 78.3329 58.5174C77.8201 58.2316 77.3847 57.7932 77.0267 57.2022C76.6687 56.6112 76.4818 56.0223 76.4661 55.4354C76.4482 54.8574 76.6009 54.3118 76.9243 53.7988C77.2456 53.2947 77.7211 52.8519 78.3507 52.4705L80.1486 51.3815L83.6464 57.1561L81.8486 58.2451ZM78.7271 53.0919C77.9815 53.5435 77.5313 54.0842 77.3767 54.7139C77.2254 55.3491 77.3656 56.023 77.7972 56.7355C78.2321 57.4535 78.7705 57.8937 79.4125 58.056C80.0488 58.2217 80.7371 58.0804 81.4772 57.6321L82.5211 56.9997L79.771 52.4596L78.7271 53.0919Z" fill="white"/>
<path d="M70.0395 59.5535C69.9782 59.3972 69.9223 59.2284 69.872 59.047L73.8214 57.4971C73.6003 57.022 73.2851 56.7051 72.8761 56.5466C72.4633 56.3964 72.0406 56.4062 71.6077 56.576C71.2531 56.7152 70.9904 56.912 70.8196 57.1663C70.6452 57.429 70.5642 57.7174 70.5765 58.0317L69.6929 58.3785C69.6388 57.8517 69.7511 57.3601 70.0299 56.9039C70.3111 56.4536 70.7462 56.1129 71.3353 55.8818C71.8042 55.6977 72.2662 55.6378 72.7215 55.702C73.1708 55.7684 73.5761 55.9528 73.9374 56.2549C74.3012 56.5631 74.5833 56.9727 74.7838 57.4836C74.9843 57.9946 75.0579 58.4825 75.0045 58.9474C74.9511 59.4124 74.7811 59.819 74.4946 60.1673C74.2045 60.5239 73.819 60.7966 73.3381 60.9853C72.8692 61.1693 72.4143 61.2299 71.9734 61.1671C71.5326 61.1042 71.1452 60.9302 70.8113 60.645C70.4737 60.3682 70.2165 60.0044 70.0395 59.5535ZM70.9544 59.3922C71.077 59.7048 71.2511 59.9452 71.4767 60.1133C71.7046 60.2875 71.9612 60.3845 72.2464 60.4044C72.5281 60.4326 72.8131 60.3901 73.1017 60.2769C73.5165 60.1141 73.8192 59.8427 74.01 59.4626C74.1947 59.0848 74.2161 58.6533 74.0742 58.1679L70.9544 59.3922Z" fill="white"/>
<path d="M65.3517 57.729C65.7478 57.6361 66.1185 57.6187 66.4638 57.677C66.8106 57.7416 67.1031 57.8719 67.3415 58.0681C67.5814 58.2705 67.7476 58.5266 67.8402 58.8366L66.9537 59.0445C66.8681 58.7927 66.6993 58.6101 66.4472 58.4968C66.1888 58.3849 65.8835 58.3703 65.5315 58.4529C65.2046 58.5296 64.9638 58.6624 64.8091 58.8512C64.6544 59.0401 64.6029 59.2445 64.6545 59.4645C64.7076 59.6909 64.8473 59.8339 65.0735 59.8936C65.3012 59.9595 65.6382 59.9965 66.0845 60.0046C66.4916 60.0152 66.8296 60.0421 67.0984 60.0851C67.3623 60.1359 67.6059 60.2413 67.8292 60.4012C68.0476 60.5688 68.1959 60.8193 68.2741 61.1525C68.336 61.4165 68.3142 61.677 68.2087 61.9339C68.1031 62.1908 67.9205 62.4161 67.6608 62.6097C67.4026 62.8095 67.088 62.953 66.7171 63.04C66.145 63.1742 65.6489 63.138 65.229 62.9314C64.8091 62.7248 64.5276 62.373 64.3844 61.8759L65.2426 61.6746C65.3249 61.9405 65.4858 62.1316 65.7253 62.2479C65.9586 62.3656 66.2418 62.3854 66.575 62.3072C66.8831 62.235 67.1128 62.1114 67.2641 61.9366C67.4155 61.7618 67.466 61.5676 67.4159 61.3538C67.3761 61.1841 67.2895 61.0551 67.156 60.967C67.0178 60.8867 66.8588 60.8311 66.6791 60.8003C66.4947 60.7773 66.2451 60.7596 65.9304 60.7472C65.5359 60.7336 65.2105 60.7038 64.9543 60.6578C64.6996 60.618 64.4676 60.5199 64.2584 60.3634C64.043 60.2083 63.8952 59.9743 63.8152 59.6614C63.7488 59.3785 63.7677 59.1055 63.8717 58.8423C63.9758 58.5791 64.157 58.3475 64.4152 58.1477C64.6686 57.9556 64.9808 57.816 65.3517 57.729Z" fill="white"/>
<path d="M62.0183 64.6735C62.1848 64.6515 62.3332 64.6906 62.4637 64.7907C62.5941 64.8907 62.6703 65.024 62.6922 65.1904C62.7141 65.3569 62.6751 65.5053 62.575 65.6357C62.475 65.7662 62.3417 65.8424 62.1752 65.8643C62.0152 65.8854 61.8731 65.8455 61.7491 65.7446C61.6187 65.6445 61.5425 65.5113 61.5206 65.3448C61.4987 65.1783 61.5377 65.0299 61.6378 64.8995C61.7314 64.7699 61.8583 64.6945 62.0183 64.6735ZM61.4832 63.8744L60.7898 58.6118L61.6637 58.4966L62.3571 63.7593L61.4832 63.8744Z" fill="white"/>
<path d="M56.888 64.2895C56.4296 64.2983 56.0273 64.206 55.6813 64.0124C55.3288 63.819 55.0657 63.5722 54.8919 63.272L54.9106 64.2405L54.0196 64.2577L53.915 58.8343C53.9056 58.3501 54.0006 57.9187 54.2 57.5403C54.3993 57.1553 54.6905 56.8526 55.0738 56.6321C55.4506 56.4117 55.894 56.2965 56.4041 56.2867C57.1014 56.2732 57.6856 56.4267 58.1569 56.747C58.6281 57.0673 58.9111 57.5107 59.006 58.0772L58.1344 58.0941C58.0313 57.7731 57.8262 57.5187 57.519 57.3309C57.2117 57.1366 56.845 57.0435 56.4189 57.0518C55.9346 57.0611 55.5437 57.2205 55.2461 57.5298C54.9421 57.8392 54.7954 58.2683 54.806 58.8171L54.8274 59.9308C54.9958 59.6175 55.2491 59.3543 55.5873 59.1411C55.9255 58.9279 56.3238 58.8169 56.7822 58.808C57.2535 58.7989 57.6851 58.9068 58.0769 59.1318C58.4624 59.3569 58.7689 59.6771 58.9965 60.0926C59.2241 60.508 59.3431 60.9836 59.3534 61.5195C59.3639 62.0619 59.2633 62.5385 59.0516 62.9495C58.8401 63.367 58.546 63.6923 58.1695 63.9257C57.7864 64.1591 57.3593 64.2804 56.888 64.2895ZM54.8596 61.5966C54.8673 61.9969 54.9548 62.3439 55.1219 62.6378C55.289 62.9317 55.5129 63.1534 55.7935 63.303C56.0678 63.4592 56.3696 63.5341 56.6989 63.5278C57.0282 63.5214 57.3269 63.4381 57.5951 63.2779C57.8632 63.1178 58.0752 62.8876 58.2308 62.5875C58.3865 62.2874 58.4605 61.9372 58.4528 61.5369C58.4449 61.1301 58.3574 60.7766 58.1901 60.4763C58.0229 60.1824 57.8022 59.9574 57.5279 59.8012C57.2538 59.6515 56.9521 59.5798 56.6228 59.5861C56.2935 59.5925 55.9948 59.6758 55.7266 59.836C55.4521 60.0027 55.237 60.2362 55.0813 60.5363C54.9258 60.8428 54.8519 61.1963 54.8596 61.5966Z" fill="white"/>
<path d="M48.6109 63.8033C47.9713 63.7141 47.4805 63.4467 47.1384 63.0012C46.7955 62.5621 46.6749 61.9781 46.7766 61.249L47.2091 58.1503L48.0725 58.2708L47.6574 61.2448C47.5843 61.7692 47.6596 62.1872 47.8834 62.4988C48.1063 62.8168 48.4449 63.0075 48.8989 63.0709C49.3594 63.1352 49.7473 63.0426 50.0624 62.7932C50.3712 62.5429 50.564 62.1427 50.6408 61.5927L51.0465 58.6859L51.9195 58.8077L51.1857 64.0649L50.3127 63.9431L50.4172 63.1948C50.207 63.4393 49.9445 63.6146 49.6298 63.7206C49.3087 63.8257 48.969 63.8533 48.6109 63.8033Z" fill="white"/>
<path d="M37.9611 62.4225C37.2758 62.1536 36.7344 61.792 36.3369 61.3377C35.931 60.8871 35.689 60.3724 35.6109 59.7937C35.5268 59.2127 35.6109 58.6006 35.8633 57.9574C36.1157 57.3141 36.4704 56.8082 36.9272 56.4394C37.3757 56.0744 37.902 55.8647 38.506 55.8103C39.1017 55.7597 39.7421 55.8688 40.4274 56.1377L42.3841 56.9056L39.9178 63.1904L37.9611 62.4225ZM40.162 56.814C39.3505 56.4955 38.6476 56.466 38.0533 56.7253C37.4567 56.9906 37.0062 57.511 36.7019 58.2864C36.3952 59.0679 36.3722 59.763 36.6328 60.3716C36.8874 60.978 37.4174 61.4392 38.2229 61.7553L39.3591 62.2011L41.2982 57.2598L40.162 56.814Z" fill="white"/>
<path d="M29.7744 53.8701C29.8608 53.7262 29.9606 53.5789 30.0736 53.4284L33.7105 55.6131C33.9522 55.1481 34.0111 54.7051 33.8873 54.2842C33.7546 53.8655 33.489 53.5365 33.0904 53.2971C32.7638 53.1009 32.4477 53.0127 32.142 53.0324C31.8275 53.0544 31.5495 53.1661 31.3079 53.3676L30.4942 52.8787C30.8787 52.5146 31.3367 52.3038 31.8683 52.2465C32.3966 52.1948 32.932 52.3318 33.4745 52.6577C33.9063 52.9171 34.2356 53.2467 34.4624 53.6466C34.6837 54.0432 34.7848 54.4768 34.7657 54.9475C34.7433 55.4237 34.5908 55.8971 34.3081 56.3676C34.0255 56.8381 33.6837 57.194 33.2826 57.4352C32.8816 57.6764 32.4557 57.7897 32.005 57.7751C31.5454 57.7627 31.0942 57.6234 30.6513 57.3574C30.2195 57.098 29.8941 56.7745 29.675 56.3868C29.456 55.999 29.3576 55.5859 29.38 55.1474C29.3935 54.711 29.525 54.2853 29.7744 53.8701ZM30.4601 54.4967C30.2872 54.7846 30.2029 55.0692 30.2072 55.3504C30.2081 55.6373 30.2877 55.8998 30.446 56.138C30.5954 56.3784 30.8029 56.5784 31.0686 56.738C31.4506 56.9675 31.8503 57.0419 32.2679 56.9612C32.6799 56.8773 33.035 56.6311 33.3331 56.2226L30.4601 54.4967Z" fill="white"/>
<path d="M28.3741 49.0505C28.6895 49.3075 28.9296 49.5905 29.0943 49.8995C29.2549 50.2136 29.3303 50.5249 29.3205 50.8334C29.3066 51.147 29.2052 51.435 29.0163 51.6976L28.3104 51.1225C28.4576 50.9009 28.4991 50.6557 28.4349 50.3869C28.3657 50.114 28.1909 49.8633 27.9106 49.6349C27.6502 49.4228 27.398 49.3132 27.154 49.306C26.91 49.2988 26.7167 49.3828 26.5739 49.558C26.4271 49.7383 26.3991 49.9362 26.49 50.1518C26.5768 50.3725 26.7533 50.662 27.0194 51.0203C27.2595 51.3492 27.4446 51.6333 27.5746 51.8724C27.6955 52.1125 27.7608 52.3698 27.7705 52.6442C27.7711 52.9195 27.6633 53.1899 27.4471 53.4552C27.2758 53.6655 27.0562 53.8073 26.7883 53.8805C26.5204 53.9538 26.2305 53.9467 25.9186 53.8592C25.6027 53.7768 25.297 53.6152 25.0016 53.3746C24.546 53.0034 24.2718 52.5885 24.1791 52.1298C24.0863 51.6711 24.193 51.2333 24.4993 50.8165L25.1827 51.3732C25.0223 51.6007 24.9693 51.8448 25.0234 52.1055C25.0726 52.3621 25.2298 52.5985 25.4952 52.8147C25.7405 53.0145 25.9786 53.121 26.2094 53.1341C26.4403 53.1473 26.625 53.0687 26.7637 52.8985C26.8738 52.7633 26.923 52.616 26.9113 52.4566C26.8906 52.298 26.8375 52.1382 26.7522 51.9771C26.6578 51.8169 26.5195 51.6084 26.3372 51.3517C26.107 51.0309 25.932 50.755 25.812 50.524C25.6879 50.298 25.624 50.0544 25.6203 49.7932C25.6115 49.5278 25.7066 49.268 25.9055 49.0136C26.0891 48.7883 26.3168 48.6365 26.5888 48.5582C26.8608 48.4799 27.1548 48.482 27.4707 48.5645C27.7776 48.6479 28.0787 48.8099 28.3741 49.0505Z" fill="white"/>
<path d="M20.8146 50.6283C20.9333 50.747 20.9927 50.8886 20.9927 51.053C20.9927 51.2173 20.9333 51.3589 20.8146 51.4776C20.6959 51.5963 20.5543 51.6557 20.39 51.6557C20.2256 51.6557 20.084 51.5963 19.9653 51.4776C19.8512 51.3635 19.7964 51.2265 19.8009 51.0667C19.8009 50.9023 19.8603 50.7607 19.979 50.642C20.0977 50.5233 20.2393 50.4639 20.4037 50.4639C20.5635 50.4594 20.7005 50.5142 20.8146 50.6283ZM21.1228 49.7173L24.8763 45.9639L25.4995 46.5872L21.7461 50.3406L21.1228 49.7173Z" fill="white"/>
<path d="M18.0102 46.3633C17.7232 46.0057 17.5507 45.6308 17.4926 45.2386C17.4305 44.8413 17.4652 44.4823 17.5968 44.1614L16.8414 44.7676L16.2836 44.0726L20.514 40.6774C20.8917 40.3743 21.2913 40.1861 21.7127 40.1128C22.1392 40.0355 22.5568 40.0812 22.9655 40.25C23.3702 40.4138 23.7322 40.6946 24.0515 41.0924C24.488 41.6364 24.7234 42.1927 24.7575 42.7614C24.7917 43.3302 24.6135 43.8251 24.2228 44.2463L23.6772 43.5664C23.8684 43.2887 23.9445 42.971 23.9056 42.613C23.8718 42.251 23.7215 41.9038 23.4547 41.5714C23.1516 41.1937 22.7867 40.9815 22.36 40.9347C21.9293 40.883 21.4999 41.0289 21.0718 41.3724L20.2031 42.0697C20.5539 42.0116 20.917 42.0514 21.2924 42.189C21.6678 42.3266 21.999 42.5741 22.286 42.9317C22.581 43.2993 22.7592 43.707 22.8204 44.1547C22.8775 44.5973 22.8112 45.0356 22.6212 45.4696C22.4313 45.9035 22.1273 46.2883 21.7093 46.6237C21.2863 46.9633 20.8474 47.1747 20.3927 47.2581C19.933 47.3456 19.4957 47.3115 19.081 47.1558C18.6622 46.9951 18.3053 46.7309 18.0102 46.3633ZM18.9037 43.1125C18.5915 43.3631 18.37 43.6443 18.2394 43.9561C18.1088 44.268 18.07 44.5807 18.1229 44.8942C18.1667 45.2068 18.2917 45.4915 18.4979 45.7483C18.704 46.0052 18.9524 46.1909 19.243 46.3054C19.5337 46.4199 19.8453 46.4471 20.178 46.3871C20.5108 46.3271 20.8332 46.1718 21.1455 45.9212C21.4628 45.6665 21.6892 45.3813 21.8249 45.0654C21.9555 44.7536 21.9989 44.4414 21.955 44.1288C21.9061 43.8203 21.7786 43.5376 21.5725 43.2807C21.3663 43.0239 21.118 42.8382 20.8273 42.7237C20.5276 42.6082 20.2114 42.5805 19.8787 42.6405C19.541 42.7045 19.216 42.8619 18.9037 43.1125Z" fill="white"/>
<path d="M13.4582 39.7158C13.136 39.1562 13.0456 38.6047 13.1871 38.0611C13.3231 37.5208 13.71 37.0669 14.3479 36.6995L17.0591 35.1381L17.4942 35.8935L14.8921 37.3921C14.4333 37.6564 14.1496 37.9726 14.0411 38.3406C13.927 38.7118 13.9844 39.0961 14.2132 39.4934C14.4453 39.8963 14.7565 40.1455 15.1469 40.2411C15.534 40.3311 15.9683 40.2375 16.4495 39.9604L18.9928 38.4956L19.4327 39.2594L14.8329 41.9086L14.393 41.1448L15.0477 40.7677C14.7257 40.752 14.4262 40.6525 14.1492 40.4692C13.8691 40.2803 13.6387 40.0292 13.4582 39.7158Z" fill="white"/>
<path d="M8.01002 30.4749C7.80137 29.769 7.75424 29.1196 7.86861 28.5269C7.97497 27.9299 8.23249 27.4228 8.64119 27.0057C9.04806 26.5824 9.5828 26.2729 10.2454 26.0771C10.9081 25.8812 11.5252 25.8503 12.0968 25.9844C12.6603 26.1141 13.149 26.4007 13.5629 26.844C13.9687 27.2829 14.2759 27.8554 14.4846 28.5614L15.0803 30.5771L8.60578 32.4907L8.01002 30.4749ZM13.7879 28.7673C13.5408 27.9313 13.1324 27.3584 12.5628 27.0486C11.987 26.7407 11.2996 26.7048 10.5008 26.9409C9.69569 27.1789 9.13302 27.5876 8.81272 28.1671C8.4906 28.7404 8.45217 29.4419 8.69742 30.2718L9.04335 31.4422L14.1338 29.9377L13.7879 28.7673Z" fill="white"/>
<path d="M9.7338 18.7574C9.9005 18.7374 10.078 18.7259 10.2662 18.7228L10.7719 22.9352C11.2874 22.8408 11.6734 22.6156 11.9298 22.2596C12.1791 21.898 12.276 21.4863 12.2206 21.0247C12.1752 20.6464 12.0509 20.3426 11.8478 20.1134C11.6375 19.8785 11.3787 19.7274 11.0714 19.6602L10.9583 18.7177C11.4817 18.798 11.9291 19.0305 12.3005 19.4151C12.6655 19.8006 12.8857 20.3075 12.9611 20.9358C13.0211 21.4359 12.9628 21.8982 12.7861 22.3226C12.6087 22.7407 12.3283 23.0865 11.9449 23.3602C11.555 23.6346 11.0876 23.8046 10.5427 23.87C9.99768 23.9354 9.50693 23.8837 9.07043 23.715C8.63392 23.5463 8.28319 23.2794 8.01825 22.9145C7.74612 22.5439 7.57927 22.1022 7.5177 21.5893C7.45766 21.0892 7.51355 20.6337 7.68537 20.2228C7.85718 19.812 8.12312 19.4808 8.48318 19.2295C8.83606 18.9725 9.25293 18.8151 9.7338 18.7574ZM9.6596 19.6834C9.3262 19.7234 9.04973 19.8314 8.83021 20.0073C8.60427 20.184 8.44579 20.4079 8.35476 20.679C8.25654 20.9445 8.22591 21.2311 8.26285 21.5388C8.31596 21.9812 8.50243 22.3426 8.82225 22.6229C9.1413 22.8968 9.55357 23.0261 10.0591 23.011L9.6596 19.6834Z" fill="white"/>
<path d="M12.6756 14.528C12.6646 14.9347 12.5869 15.2976 12.4427 15.6167C12.2919 15.9356 12.0914 16.1853 11.841 16.3659C11.5842 16.5463 11.2941 16.6418 10.9709 16.6525L10.9955 15.7423C11.2608 15.7236 11.4804 15.6068 11.6542 15.3919C11.8281 15.1705 11.92 14.879 11.9297 14.5175C11.9388 14.1819 11.8717 13.9152 11.7285 13.7175C11.5852 13.5199 11.4007 13.418 11.1747 13.4119C10.9423 13.4056 10.7685 13.5042 10.6532 13.7078C10.5314 13.9113 10.4098 14.2277 10.2883 14.6573C10.1744 15.0483 10.0624 15.3682 9.95233 15.6172C9.83596 15.8595 9.67205 16.0683 9.4606 16.2434C9.24287 16.412 8.96294 16.4916 8.62081 16.4824C8.34969 16.475 8.10335 16.3876 7.88177 16.2201C7.6602 16.0527 7.48888 15.8187 7.3678 15.5183C7.24026 15.2177 7.18164 14.8769 7.19193 14.4961C7.20781 13.9087 7.3691 13.4382 7.67581 13.0847C7.98252 12.7313 8.39443 12.5486 8.91155 12.5367L8.88774 13.4179C8.60964 13.4297 8.38388 13.5367 8.21046 13.7387C8.03722 13.9343 7.94597 14.2032 7.93673 14.5453C7.92818 14.8616 7.98916 15.1152 8.11966 15.306C8.25016 15.4969 8.42515 15.5953 8.64462 15.6012C8.81891 15.6059 8.96564 15.555 9.0848 15.4484C9.19768 15.3352 9.29189 15.1956 9.36743 15.0297C9.4367 14.8571 9.51739 14.6203 9.6095 14.3192C9.72308 13.9411 9.83474 13.634 9.94447 13.398C10.0478 13.1618 10.2017 12.9624 10.4064 12.8C10.6112 12.6311 10.8751 12.5478 11.198 12.5501C11.4885 12.5579 11.7477 12.6457 11.9758 12.8134C12.2038 12.981 12.3816 13.2151 12.5091 13.5157C12.6304 13.8097 12.6859 14.1471 12.6756 14.528Z" fill="white"/>
<path d="M6.80051 9.50042C6.77922 9.66696 6.70355 9.80051 6.57351 9.90107C6.44348 10.0016 6.29518 10.0413 6.12864 10.02C5.9621 9.99867 5.82855 9.92301 5.72799 9.79297C5.62744 9.66293 5.5878 9.51464 5.6091 9.3481C5.62957 9.18796 5.70442 9.06082 5.83364 8.96666C5.96367 8.86611 6.11196 8.82648 6.27851 8.84777C6.44505 8.86906 6.5786 8.94473 6.67915 9.07476C6.78053 9.1984 6.82098 9.34028 6.80051 9.50042ZM7.70969 9.18698L12.975 9.86014L12.8632 10.7345L7.5979 10.0613L7.70969 9.18698Z" fill="white"/>
<path d="M8.45545 4.68273C8.56357 4.23717 8.75524 3.87169 9.03049 3.5863C9.30726 3.29462 9.61291 3.10299 9.94745 3.0114L9.00613 2.78299L9.21626 1.91697L14.4877 3.19606C14.9583 3.31027 15.3513 3.51194 15.6665 3.80107C15.9881 4.09173 16.2067 4.45045 16.3224 4.87723C16.4397 5.29773 16.4381 5.75586 16.3178 6.25163C16.1534 6.92938 15.8563 7.45534 15.4266 7.82952C14.9969 8.20369 14.4961 8.36457 13.924 8.31215L14.1296 7.46496C14.4662 7.44697 14.7645 7.31334 15.0243 7.06407C15.2904 6.81633 15.4737 6.48537 15.5742 6.07118C15.6884 5.60052 15.6338 5.18193 15.4104 4.81542C15.1886 4.44263 14.8109 4.19151 14.2775 4.06208L13.195 3.79941C13.4551 4.04194 13.6452 4.35387 13.7653 4.7352C13.8855 5.11653 13.8915 5.52997 13.7833 5.97552C13.6722 6.43364 13.458 6.82355 13.1407 7.14526C12.8249 7.46069 12.4372 7.67561 11.9775 7.79C11.5178 7.90438 11.0276 7.89838 10.5067 7.772C9.97956 7.64409 9.5442 7.42548 9.20062 7.11619C8.85076 6.80537 8.61093 6.43818 8.48113 6.01463C8.35285 5.5848 8.34429 5.14084 8.45545 4.68273ZM11.5759 3.40655C11.1869 3.31214 10.8289 3.30835 10.5022 3.39519C10.1755 3.48203 9.90405 3.64211 9.68796 3.8754C9.46712 4.10091 9.31787 4.37368 9.24021 4.69373C9.16255 5.01378 9.16705 5.32386 9.25371 5.62398C9.34036 5.9241 9.50899 6.18762 9.7596 6.41455C10.0102 6.64149 10.33 6.80216 10.7191 6.89657C11.1145 6.9925 11.4787 6.99781 11.8117 6.91249C12.1384 6.82565 12.4122 6.66948 12.6331 6.44397C12.8476 6.21695 12.9937 5.94341 13.0714 5.62336C13.1491 5.30331 13.1446 4.99323 13.0579 4.69311C12.9665 4.3852 12.7955 4.11777 12.5449 3.89084C12.288 3.66239 11.965 3.50096 11.5759 3.40655Z" fill="white"/>
<path d="M10.995 -3.1188C11.2443 -3.71448 11.628 -4.12093 12.1459 -4.33816C12.6579 -4.55788 13.2535 -4.52563 13.9325 -4.24139L16.8186 -3.03337L16.482 -2.2292L13.7121 -3.3886C13.2236 -3.59305 12.8002 -3.62677 12.4418 -3.48975C12.0775 -3.35523 11.8068 -3.0765 11.6298 -2.65357C11.4503 -2.22468 11.441 -1.82606 11.6018 -1.45771C11.7651 -1.09533 12.103 -0.806923 12.6152 -0.592499L15.3226 0.540722L14.9823 1.35383L10.0858 -0.69569L10.4261 -1.50879L11.1231 -1.21708C10.9402 -1.48263 10.8376 -1.78109 10.8153 -2.11245C10.7955 -2.44977 10.8554 -2.78522 10.995 -3.1188Z" fill="white"/>
<path d="M14.9652 -12.991C15.3982 -13.5863 15.8846 -14.019 16.4245 -14.2891C16.9629 -14.5683 17.522 -14.6726 18.1016 -14.6023C18.6851 -14.5372 19.2563 -14.3014 19.815 -13.895C20.3738 -13.4885 20.774 -13.0178 21.0156 -12.4827C21.2558 -11.9566 21.326 -11.3945 21.2262 -10.7963C21.125 -10.2071 20.8579 -9.61483 20.4249 -9.01951L19.1884 -7.31971L13.7287 -11.2912L14.9652 -12.991ZM19.8374 -9.44686C20.3502 -10.1518 20.5561 -10.8246 20.455 -11.4651C20.3487 -12.1093 19.9588 -12.6765 19.2851 -13.1665C18.6062 -13.6603 17.9394 -13.8579 17.2847 -13.7592C16.6338 -13.6657 16.0538 -13.2691 15.5448 -12.5694L14.8269 -11.5824L19.1194 -8.45988L19.8374 -9.44686Z" fill="white"/>
<path d="M25.3745 -18.8527C25.492 -18.7327 25.6092 -18.599 25.7264 -18.4516L22.6938 -15.4845C23.0827 -15.1332 23.4964 -14.9643 23.935 -14.9778C24.3736 -15.0004 24.7591 -15.1743 25.0914 -15.4994C25.3637 -15.7659 25.5289 -16.0495 25.587 -16.3502C25.6452 -16.6601 25.6073 -16.9574 25.4734 -17.2419L26.1519 -17.9058C26.4072 -17.4418 26.4954 -16.9454 26.4165 -16.4165C26.3332 -15.8923 26.0654 -15.4089 25.613 -14.9663C25.253 -14.614 24.8509 -14.3787 24.4066 -14.2602C23.967 -14.1463 23.5219 -14.158 23.0713 -14.2953C22.6162 -14.4373 22.1967 -14.7044 21.8129 -15.0968C21.429 -15.4891 21.171 -15.9098 21.0389 -16.3587C20.9068 -16.8077 20.9047 -17.2484 21.0328 -17.6808C21.1609 -18.1223 21.4095 -18.5237 21.7788 -18.885C22.1388 -19.2373 22.5341 -19.4704 22.9646 -19.5845C23.3951 -19.6985 23.8197 -19.6893 24.2383 -19.5569C24.6571 -19.4336 25.0358 -19.1989 25.3745 -18.8527ZM24.595 -18.3475C24.3602 -18.5875 24.1061 -18.7409 23.8329 -18.8079C23.5551 -18.8794 23.281 -18.8687 23.0106 -18.7757C22.7402 -18.6919 22.4943 -18.5416 22.2727 -18.3248C21.9542 -18.0132 21.7813 -17.6452 21.7538 -17.2208C21.731 -16.801 21.8795 -16.3952 22.1995 -16.0036L24.595 -18.3475Z" fill="white"/>
<path d="M30.2892 -18.9275C29.9611 -18.687 29.6268 -18.526 29.2862 -18.4445C28.9418 -18.3682 28.6215 -18.3736 28.3254 -18.4608C28.0255 -18.5532 27.7723 -18.7239 27.5658 -18.9729L28.3001 -19.5112C28.4775 -19.3129 28.7043 -19.211 28.9807 -19.2053C29.2622 -19.2035 29.5488 -19.3095 29.8405 -19.5233C30.1113 -19.7219 30.2809 -19.9383 30.3494 -20.1726C30.4178 -20.4069 30.3852 -20.6152 30.2516 -20.7975C30.1142 -20.985 29.9297 -21.0619 29.6981 -21.0283C29.4627 -20.9999 29.1381 -20.9021 28.7242 -20.7348C28.3455 -20.5853 28.024 -20.4777 27.7598 -20.4122C27.497 -20.3556 27.2315 -20.3572 26.9635 -20.417C26.6969 -20.4858 26.4625 -20.6582 26.2601 -20.9342C26.0998 -21.153 26.0179 -21.4012 26.0145 -21.679C26.0111 -21.9567 26.091 -22.2354 26.2542 -22.5152C26.4136 -22.8002 26.647 -23.0553 26.9542 -23.2806C27.4282 -23.628 27.8988 -23.7888 28.3661 -23.763C28.8333 -23.7372 29.2301 -23.5236 29.5564 -23.1223L28.8454 -22.6011C28.6657 -22.8136 28.4428 -22.9265 28.1769 -22.9398C27.9162 -22.9568 27.6478 -22.8642 27.3717 -22.6618C27.1165 -22.4748 26.9535 -22.2712 26.8826 -22.0511C26.8118 -21.831 26.8412 -21.6324 26.9711 -21.4554C27.0741 -21.3147 27.2043 -21.23 27.3616 -21.2012C27.5202 -21.1813 27.6882 -21.1924 27.8656 -21.2344C28.0444 -21.2854 28.281 -21.3667 28.5755 -21.4785C28.9438 -21.6204 29.2549 -21.7203 29.5087 -21.7782C29.7587 -21.8414 30.0105 -21.8418 30.2643 -21.7796C30.5233 -21.7213 30.7508 -21.5638 30.9469 -21.3072C31.1187 -21.0728 31.2082 -20.8142 31.2154 -20.5312C31.2227 -20.2483 31.1466 -19.9643 30.9872 -19.6793C30.8292 -19.4034 30.5965 -19.1528 30.2892 -18.9275Z" fill="white"/>
<path d="M30.5581 -26.5969C30.4135 -26.5115 30.2617 -26.4893 30.1025 -26.5302C29.9433 -26.5712 29.821 -26.6639 29.7356 -26.8085C29.6502 -26.9531 29.628 -27.1049 29.6689 -27.2641C29.7099 -27.4233 29.8026 -27.5456 29.9472 -27.631C30.0862 -27.7131 30.2325 -27.7321 30.3861 -27.6878C30.5453 -27.6469 30.6676 -27.5541 30.753 -27.4096C30.8384 -27.265 30.8607 -27.1131 30.8197 -26.9539C30.7843 -26.798 30.6971 -26.679 30.5581 -26.5969ZM31.3635 -26.0714L34.0634 -21.5012L33.3044 -21.0528L30.6046 -25.6231L31.3635 -26.0714Z" fill="white"/>
<path d="M35.3774 -28.2581C35.7955 -28.4461 36.2017 -28.519 36.596 -28.4768C36.9961 -28.4372 37.335 -28.3134 37.6126 -28.1054L37.2154 -28.9889L38.0281 -29.3543L40.2525 -24.407C40.4511 -23.9652 40.5329 -23.5312 40.498 -23.1049C40.4658 -22.6726 40.3167 -22.2799 40.0507 -21.9267C39.7906 -21.5761 39.4279 -21.2962 38.9626 -21.087C38.3265 -20.801 37.7289 -20.7129 37.1698 -20.8226C36.6107 -20.9323 36.1764 -21.2291 35.8668 -21.713L36.6619 -22.0705C36.8826 -21.8157 37.1711 -21.6622 37.5274 -21.61C37.8863 -21.5518 38.2601 -21.6102 38.6488 -21.7849C39.0905 -21.9835 39.3876 -22.2835 39.5399 -22.6847C39.6982 -23.0887 39.6648 -23.5409 39.4397 -24.0415L38.9829 -25.0575C38.951 -24.7033 38.8213 -24.3618 38.5939 -24.033C38.3665 -23.7042 38.0437 -23.4458 37.6255 -23.2578C37.1956 -23.0645 36.7563 -22.9944 36.3075 -23.0475C35.8647 -23.1033 35.4571 -23.2776 35.0848 -23.5704C34.7124 -23.8632 34.4163 -24.254 34.1965 -24.7429C33.9741 -25.2376 33.8796 -25.7155 33.913 -26.1766C33.9438 -26.6436 34.0866 -27.0582 34.3414 -27.4206C34.6021 -27.7856 34.9474 -28.0648 35.3774 -28.2581ZM38.2997 -26.5771C38.1355 -26.9422 37.9189 -27.2272 37.6499 -27.4319C37.3808 -27.6366 37.0879 -27.7527 36.7711 -27.7802C36.4575 -27.8162 36.1506 -27.7667 35.8502 -27.6317C35.5498 -27.4966 35.3077 -27.3028 35.1239 -27.0502C34.9401 -26.7977 34.8355 -26.5028 34.81 -26.1657C34.7846 -25.8286 34.854 -25.4774 35.0181 -25.1123C35.185 -24.7412 35.4042 -24.4504 35.6759 -24.2398C35.945 -24.035 36.2363 -23.9147 36.5499 -23.8786C36.8608 -23.8485 37.1664 -23.901 37.4668 -24.036C37.7672 -24.1711 38.0093 -24.3649 38.1931 -24.6174C38.3801 -24.8786 38.4864 -25.1777 38.5118 -25.5148C38.5346 -25.8578 38.4639 -26.2119 38.2997 -26.5771Z" fill="white"/>
<path d="M43.0989 -31.0584C43.7221 -31.2273 44.2785 -31.174 44.768 -30.8985C45.2558 -30.6293 45.5959 -30.1394 45.7885 -29.4288L46.6068 -26.4091L45.7654 -26.181L44.98 -29.0793C44.8415 -29.5904 44.6081 -29.9453 44.28 -30.144C43.9501 -30.349 43.5639 -30.3916 43.1214 -30.2716C42.6726 -30.15 42.3522 -29.9127 42.1602 -29.5596C41.9745 -29.2082 41.9542 -28.7644 42.0995 -28.2284L42.8671 -25.3956L42.0164 -25.1651L40.628 -30.2884L41.4787 -30.519L41.6764 -29.7897C41.7737 -30.0971 41.9463 -30.3613 42.1942 -30.5824C42.4483 -30.8051 42.7498 -30.9638 43.0989 -31.0584Z" fill="white"/>
<path d="M53.463 -34.0075C54.1988 -34.0303 54.8388 -33.9111 55.3831 -33.6501C55.9337 -33.3958 56.3588 -33.018 56.6586 -32.5169C56.9648 -32.016 57.1285 -31.4202 57.1499 -30.7296C57.1712 -30.0389 57.0445 -29.4342 56.7698 -28.9153C56.5014 -28.4031 56.1002 -28.003 55.5664 -27.7152C55.0389 -27.434 54.4072 -27.2821 53.6714 -27.2593L51.5704 -27.1944L51.362 -33.9426L53.463 -34.0075ZM53.649 -27.9855C54.5203 -28.0124 55.1781 -28.2621 55.6222 -28.7345C56.0661 -29.2134 56.2752 -29.8691 56.2495 -30.7017C56.2235 -31.5408 55.971 -32.1888 55.4917 -32.6456C55.0188 -33.1026 54.35 -33.3178 53.4851 -33.2911L52.2652 -33.2534L52.4291 -27.9478L53.649 -27.9855Z" fill="white"/>
<path d="M64.6071 -29.3622C64.5839 -29.1959 64.5497 -29.0214 64.5046 -28.8386L60.3027 -29.425C60.2624 -28.9025 60.3816 -28.4719 60.6603 -28.133C60.9463 -27.7997 61.3196 -27.6009 61.7801 -27.5366C62.1574 -27.484 62.4828 -27.5266 62.7564 -27.6645C63.0372 -27.8078 63.2493 -28.0195 63.3927 -28.2994L64.3328 -28.1682C64.1216 -27.6825 63.7826 -27.3093 63.3159 -27.0484C62.85 -26.794 62.3037 -26.7105 61.677 -26.798C61.1781 -26.8676 60.746 -27.042 60.3807 -27.3212C60.0219 -27.5995 59.7591 -27.9589 59.5923 -28.3995C59.4265 -28.8464 59.3815 -29.3417 59.4574 -29.8853C59.5333 -30.429 59.7085 -30.8903 59.9831 -31.2692C60.2577 -31.6482 60.6052 -31.9192 61.0257 -32.0822C61.4535 -32.2507 61.9232 -32.2992 62.4348 -32.2278C62.9337 -32.1582 63.3598 -31.9879 63.7132 -31.7169C64.0666 -31.4459 64.3188 -31.1042 64.4699 -30.6919C64.6283 -30.2851 64.674 -29.8419 64.6071 -29.3622ZM63.7307 -29.6703C63.7771 -30.0029 63.7433 -30.2978 63.6292 -30.5549C63.5161 -30.8185 63.34 -31.0289 63.1012 -31.1861C62.8696 -31.3488 62.6003 -31.4516 62.2933 -31.4945C61.852 -31.5561 61.4551 -31.468 61.1024 -31.2304C60.7561 -30.9918 60.5258 -30.6262 60.4114 -30.1336L63.7307 -29.6703Z" fill="white"/>
<path d="M67.7765 -25.4874C67.3859 -25.6012 67.0546 -25.7684 66.7825 -25.9889C66.5123 -26.2157 66.3216 -26.473 66.2105 -26.761C66.1012 -27.0552 66.0824 -27.36 66.1541 -27.6754L67.0283 -27.4206C66.979 -27.1592 67.0363 -26.9172 67.2001 -26.6946C67.3701 -26.4702 67.6287 -26.3073 67.9759 -26.2062C68.2982 -26.1122 68.5732 -26.1094 68.8008 -26.1978C69.0283 -26.2862 69.1737 -26.4389 69.2369 -26.6559C69.302 -26.8791 69.2507 -27.0723 69.083 -27.2355C68.9171 -27.4049 68.6419 -27.6028 68.2572 -27.8293C67.9079 -28.0387 67.6269 -28.2282 67.414 -28.3979C67.2091 -28.5719 67.0488 -28.7835 66.933 -29.0324C66.8252 -29.2858 66.8192 -29.5768 66.915 -29.9054C66.9909 -30.1658 67.138 -30.3819 67.3562 -30.5537C67.5744 -30.7255 67.8442 -30.8318 68.1655 -30.8727C68.4886 -30.9198 68.8331 -30.89 69.1989 -30.7834C69.763 -30.619 70.1772 -30.3436 70.4412 -29.9572C70.7053 -29.5709 70.7775 -29.1261 70.6577 -28.6229L69.8115 -28.8695C69.8706 -29.1415 69.8244 -29.387 69.673 -29.6061C69.5278 -29.8233 69.2909 -29.9797 68.9623 -30.0755C68.6585 -30.164 68.3977 -30.1694 68.18 -30.0916C67.9623 -30.0138 67.8227 -29.8695 67.7613 -29.6587C67.7125 -29.4913 67.7245 -29.3365 67.7974 -29.1942C67.8783 -29.0563 67.9894 -28.9297 68.1307 -28.8145C68.28 -28.7038 68.4886 -28.5656 68.7565 -28.4001C69.0934 -28.1943 69.3621 -28.0084 69.5625 -27.8423C69.7648 -27.6825 69.9185 -27.483 70.0237 -27.2438C70.1351 -27.0028 70.1487 -26.7265 70.0646 -26.4147C69.9833 -26.1357 69.8326 -25.9072 69.6126 -25.7292C69.3925 -25.5511 69.121 -25.4386 68.7978 -25.3915C68.4827 -25.3488 68.1423 -25.3808 67.7765 -25.4874Z" fill="white"/>
<path d="M74.1759 -29.8776C74.0203 -29.9407 73.9105 -30.0479 73.8464 -30.1993C73.7824 -30.3507 73.7819 -30.5042 73.845 -30.6598C73.9081 -30.8154 74.0153 -30.9252 74.1667 -30.9892C74.3181 -31.0533 74.4716 -31.0538 74.6272 -30.9907C74.7768 -30.93 74.8806 -30.8252 74.9387 -30.6762C75.0027 -30.5248 75.0032 -30.3713 74.9401 -30.2157C74.877 -30.0602 74.7698 -29.9503 74.6184 -29.8863C74.473 -29.8198 74.3255 -29.8169 74.1759 -29.8776ZM74.2469 -28.9185L72.2525 -23.9993L71.4356 -24.3305L73.4301 -29.2497L74.2469 -28.9185Z" fill="white"/>
<path d="M78.444 -27.0293C78.8471 -26.8109 79.1513 -26.5321 79.3568 -26.193C79.568 -25.8508 79.6751 -25.5063 79.6781 -25.1595L80.1397 -26.0111L80.9231 -25.5864L78.3382 -20.8175C78.1074 -20.3917 77.812 -20.0634 77.4518 -19.8326C77.0886 -19.5962 76.6859 -19.4766 76.2437 -19.4738C75.8072 -19.4681 75.3647 -19.5867 74.9162 -19.8298C74.303 -20.1622 73.8705 -20.5839 73.6187 -21.095C73.3669 -21.6061 73.3395 -22.1314 73.5365 -22.671L74.3029 -22.2556C74.2342 -21.9256 74.2871 -21.6031 74.4616 -21.2882C74.6331 -20.9675 74.9061 -20.7057 75.2808 -20.5026C75.7066 -20.2718 76.1252 -20.2175 76.5367 -20.3397C76.9538 -20.4588 77.2932 -20.7596 77.5548 -21.2422L78.0856 -22.2215C77.7846 -22.0321 77.4344 -21.9281 77.035 -21.9095C76.6357 -21.8909 76.2345 -21.9909 75.8314 -22.2094C75.4169 -22.434 75.0948 -22.7409 74.8649 -23.1299C74.6408 -23.5158 74.5322 -23.9456 74.5392 -24.4192C74.5462 -24.8929 74.6774 -25.3653 74.9328 -25.8365C75.1913 -26.3134 75.514 -26.6784 75.9009 -26.9314C76.2908 -27.1901 76.7072 -27.3281 77.1498 -27.3452C77.5982 -27.3593 78.0295 -27.254 78.444 -27.0293ZM78.8795 -23.6862C79.0703 -24.0382 79.1655 -24.3833 79.1651 -24.7213C79.1648 -25.0594 79.0794 -25.3628 78.9092 -25.6313C78.7477 -25.9025 78.5221 -26.1166 78.2326 -26.2735C77.9431 -26.4305 77.6422 -26.5054 77.3298 -26.4984C77.0176 -26.4914 76.7197 -26.3958 76.4362 -26.2116C76.1527 -26.0273 75.9156 -25.7592 75.7248 -25.4073C75.5309 -25.0496 75.4326 -24.6989 75.4299 -24.3551C75.4303 -24.017 75.5112 -23.7124 75.6727 -23.4412C75.8373 -23.1757 76.0644 -22.9645 76.3539 -22.8076C76.6435 -22.6506 76.9444 -22.5757 77.2567 -22.5827C77.5777 -22.5923 77.88 -22.6892 78.1635 -22.8734C78.4501 -23.0633 78.6887 -23.3343 78.8795 -23.6862Z" fill="white"/>
<path d="M85.1762 -22.7066C85.6899 -22.3153 85.9868 -21.8418 86.0667 -21.2858C86.1505 -20.735 85.9694 -20.1668 85.5234 -19.5811L83.628 -17.0918L82.9344 -17.62L84.7535 -20.009C85.0743 -20.4303 85.2135 -20.8316 85.1711 -21.2129C85.1326 -21.5994 84.9309 -21.9315 84.5662 -22.2092C84.1962 -22.4909 83.8128 -22.6003 83.4158 -22.5373C83.024 -22.4704 82.6599 -22.216 82.3234 -21.7742L80.5454 -19.4391L79.8441 -19.9731L83.0598 -24.1963L83.7611 -23.6623L83.3034 -23.0612C83.6065 -23.1713 83.9211 -23.1955 84.2474 -23.1337C84.5789 -23.068 84.8885 -22.9256 85.1762 -22.7066Z" fill="white"/>
<path d="M93.8464 -16.2726C94.3135 -15.7035 94.6097 -15.1237 94.7351 -14.5333C94.8695 -13.9419 94.8297 -13.3746 94.6156 -12.8313C94.4056 -12.283 94.0336 -11.7897 93.4994 -11.3514C92.9653 -10.913 92.4089 -10.6444 91.8302 -10.5453C91.2606 -10.4454 90.6989 -10.5191 90.1451 -10.7664C89.6004 -11.0127 89.0946 -11.4204 88.6276 -11.9895L87.2941 -13.6143L92.513 -17.8974L93.8464 -16.2726ZM89.1891 -12.4503C89.7422 -11.7765 90.3414 -11.4077 90.9866 -11.3442C91.6369 -11.2847 92.284 -11.5193 92.928 -12.0477C93.5769 -12.5803 93.9361 -13.1758 94.0055 -13.8343C94.079 -14.4878 93.8413 -15.1489 93.2924 -15.8178L92.5181 -16.7613L88.4149 -13.3938L89.1891 -12.4503Z" fill="white"/>
<path d="M96.7919 -4.91109C96.6464 -4.82729 96.4877 -4.74706 96.3158 -4.67038L94.1983 -8.34686C93.7612 -8.05783 93.4945 -7.6993 93.3982 -7.27125C93.3108 -6.84083 93.3831 -6.42418 93.6151 -6.02127C93.8053 -5.69112 94.0387 -5.46043 94.3155 -5.3292C94.6011 -5.19561 94.8984 -5.15817 95.2074 -5.21689L95.6811 -4.3943C95.1682 -4.2628 94.6654 -4.30115 94.1729 -4.50933C93.686 -4.72074 93.2846 -5.10064 92.9688 -5.64903C92.7174 -6.08551 92.5897 -6.53362 92.5858 -6.99336C92.585 -7.44751 92.7073 -7.87564 92.9527 -8.27776C93.2036 -8.6831 93.5669 -9.02274 94.0425 -9.29668C94.5182 -9.57062 94.9899 -9.7156 95.4576 -9.7316C95.9253 -9.7476 96.3526 -9.63972 96.7394 -9.40795C97.1351 -9.1738 97.4619 -8.8329 97.7197 -8.38523C97.9711 -7.94875 98.0983 -7.50785 98.1014 -7.06252C98.1045 -6.61719 97.9898 -6.20831 97.7572 -5.83587C97.5334 -5.46106 97.2116 -5.1528 96.7919 -4.91109ZM96.497 -5.79195C96.788 -5.95954 96.9999 -6.16731 97.1328 -6.41526C97.2714 -6.66643 97.3293 -6.93455 97.3067 -7.21962C97.293 -7.50232 97.2087 -7.77797 97.054 -8.04657C96.8316 -8.43268 96.5184 -8.69193 96.1143 -8.82433C95.7133 -8.95112 95.2834 -8.90841 94.8243 -8.6962L96.497 -5.79195Z" fill="white"/>
<path d="M95.6931 -0.00683975C95.5431 -0.384995 95.4716 -0.749134 95.4785 -1.09927C95.4915 -1.45178 95.5775 -1.76032 95.7365 -2.02489C95.9016 -2.29184 96.1306 -2.49385 96.4236 -2.63093L96.7594 -1.7846C96.5228 -1.66294 96.3669 -1.46911 96.2919 -1.20311C96.2191 -0.93111 96.2495 -0.627041 96.3828 -0.290905C96.5067 0.0212173 96.6733 0.239929 96.8828 0.365227C97.0923 0.490524 97.3021 0.511497 97.5122 0.428146C97.7283 0.342411 97.8493 0.183262 97.8751 -0.0493011C97.9069 -0.284245 97.8941 -0.623039 97.8366 -1.06569C97.7873 -1.46994 97.7643 -1.80816 97.7675 -2.08036C97.779 -2.34894 97.8475 -2.60536 97.9729 -2.84964C98.1066 -3.09029 98.3326 -3.27373 98.6507 -3.39995C98.9028 -3.49997 99.1637 -3.51663 99.4333 -3.44992C99.7029 -3.38322 99.9525 -3.23562 100.182 -3.00714C100.418 -2.78104 100.606 -2.49092 100.746 -2.13678C100.963 -1.59056 101 -1.09461 100.857 -0.64893C100.715 -0.203243 100.408 0.126862 99.9371 0.341393L99.6121 -0.477936C99.863 -0.598347 100.028 -0.785553 100.108 -1.03955C100.191 -1.28754 100.169 -1.5706 100.042 -1.88873C99.9256 -2.18285 99.7697 -2.39193 99.5746 -2.51599C99.3795 -2.64005 99.1799 -2.66159 98.9758 -2.58062C98.8137 -2.51632 98.6989 -2.41172 98.6314 -2.26681C98.5722 -2.11828 98.5406 -1.95288 98.5364 -1.77063C98.5407 -1.58475 98.5598 -1.33527 98.5937 -1.0222C98.6382 -0.629955 98.6565 -0.303734 98.6485 -0.043541C98.6466 0.214272 98.5836 0.458122 98.4594 0.688011C98.3376 0.923901 98.1279 1.10439 97.8302 1.22946C97.56 1.33663 97.2872 1.35805 97.0116 1.29373C96.7359 1.2294 96.4803 1.08419 96.2447 0.858089C96.0175 0.635612 95.8336 0.347301 95.6931 -0.00683975Z" fill="white"/>
<path d="M103.084 2.33841C103.038 2.17686 103.056 2.02434 103.136 1.88083C103.216 1.73731 103.337 1.64268 103.498 1.59692C103.66 1.55117 103.812 1.56837 103.956 1.64853C104.099 1.72869 104.194 1.84954 104.24 2.01109C104.284 2.16642 104.265 2.31273 104.183 2.45003C104.103 2.59354 103.982 2.68818 103.82 2.73393C103.659 2.77969 103.506 2.76249 103.363 2.68233C103.221 2.60838 103.128 2.49374 103.084 2.33841ZM102.371 2.98341L97.2636 4.42999L97.0234 3.58189L102.131 2.13532L102.371 2.98341Z" fill="white"/>
<path d="M103.449 7.40431C103.525 7.85654 103.492 8.26793 103.351 8.63848C103.211 9.01541 103.005 9.31168 102.733 9.52729L103.689 9.36769L103.835 10.2467L98.4852 11.1404C98.0075 11.2202 97.5669 11.189 97.1634 11.0469C96.7536 10.9059 96.4117 10.6618 96.1376 10.3148C95.8647 9.97409 95.6862 9.55217 95.6021 9.04899C95.4872 8.3611 95.5539 7.76073 95.8021 7.24788C96.0503 6.73502 96.4478 6.39038 96.9945 6.21395L97.1381 7.07381C96.8356 7.22255 96.6138 7.46256 96.4727 7.79383C96.3253 8.12617 96.2867 8.50253 96.3569 8.92291C96.4367 9.40061 96.6513 9.76414 97.0006 10.0135C97.3511 10.2692 97.797 10.3519 98.3384 10.2614L99.4371 10.0779C99.1026 9.95698 98.8053 9.74477 98.5451 9.44124C98.2849 9.13771 98.117 8.75984 98.0415 8.30761C97.9638 7.84265 98.0077 7.39994 98.1731 6.97948C98.3397 6.56538 98.6118 6.21548 98.9897 5.92977C99.3675 5.64405 99.8207 5.45704 100.349 5.36873C100.884 5.27936 101.371 5.30944 101.808 5.45897C102.252 5.60743 102.617 5.85094 102.902 6.18949C103.189 6.53441 103.371 6.93935 103.449 7.40431ZM101.08 9.80338C101.475 9.73742 101.806 9.60035 102.072 9.39217C102.339 9.184 102.525 8.9302 102.633 8.63078C102.747 8.33667 102.777 8.0272 102.723 7.70236C102.669 7.37753 102.543 7.09412 102.345 6.85215C102.148 6.61017 101.889 6.43404 101.57 6.32375C101.25 6.21345 100.893 6.19129 100.498 6.25726C100.097 6.32428 99.7595 6.46242 99.4868 6.67166C99.2204 6.87983 99.0299 7.13097 98.9154 7.42509C98.8072 7.71813 98.7802 8.02707 98.8345 8.35191C98.8888 8.67675 99.0147 8.96015 99.2122 9.20213C99.4172 9.44941 99.6795 9.6282 99.9991 9.73849C100.325 9.84772 100.685 9.86935 101.08 9.80338Z" fill="white"/>
<path d="M104.182 15.464C104.19 16.1097 103.999 16.635 103.61 17.0399C103.227 17.4448 102.668 17.6514 101.931 17.66L98.8029 17.6962L98.7928 16.8245L101.795 16.7897C102.325 16.7836 102.727 16.6465 103.002 16.3786C103.283 16.1105 103.42 15.7473 103.415 15.2888C103.41 14.8239 103.26 14.4543 102.966 14.18C102.673 13.9122 102.248 13.7815 101.693 13.7879L98.7581 13.8219L98.7479 12.9405L104.056 12.879L104.066 13.7604L103.31 13.7692C103.584 13.9404 103.796 14.1736 103.948 14.4689C104.1 14.7707 104.178 15.1024 104.182 15.464Z" fill="white"/>
</g>
<path id="Vector_2" d="M64.1114 -5.86572V23.7435C64.2041 25.8467 63.4834 27.9044 62.0999 29.4866C61.2616 30.3921 60.2383 31.105 59.0999 31.5764C57.9615 32.0477 56.735 32.2664 55.5046 32.2175C54.274 32.2675 53.0472 32.0494 51.9086 31.5779C50.7701 31.1065 49.7468 30.393 48.9093 29.4866C47.5258 27.9044 46.805 25.8467 46.8977 23.7435V-5.86572H40.5992V23.7435C40.5295 25.589 40.8506 27.4284 41.5412 29.1402C42.2319 30.8519 43.2764 32.3972 44.6058 33.6739C47.5884 36.4058 51.5189 37.8556 55.554 37.7123C57.5526 37.7941 59.5475 37.4779 61.4238 36.782C63.3 36.086 65.0204 35.0241 66.4857 33.6574C67.809 32.3752 68.8504 30.8293 69.5433 29.1191C70.2361 27.409 70.565 25.5723 70.5089 23.727V-5.86572H64.1114Z" fill="white"/>
</g>
</svg>
