<svg width="380" height="122" viewBox="0 0 380 122" fill="none" xmlns="http://www.w3.org/2000/svg">
<path d="M61.2045 5.14072L52.0442 37.9297H44.2932L38.1394 14.5828L31.7038 37.9297L23.9998 37.9767L15.1684 5.14072H22.2147L27.9927 30.6015L34.6632 5.14072H41.9914L48.2862 30.4606L54.1111 5.14072H61.2045ZM89.6911 24.3537C89.6911 25.2933 89.6285 26.1388 89.5032 26.8904H70.4781C70.6347 28.7694 71.2923 30.2413 72.4511 31.3061C73.6098 32.3709 75.0347 32.9033 76.7258 32.9033C79.1686 32.9033 80.9067 31.8542 81.9401 29.7559H89.0335C88.2818 32.2613 86.8413 34.3282 84.7117 35.9567C82.5821 37.5539 79.9672 38.3525 76.8668 38.3525C74.3614 38.3525 72.1066 37.8044 70.1023 36.7083C68.1293 35.5809 66.5791 33.9994 65.4517 31.9638C64.3556 29.9282 63.8076 27.5794 63.8076 24.9174C63.8076 22.2242 64.3556 19.8597 65.4517 17.8241C66.5478 15.7885 68.0823 14.2227 70.0553 13.1266C72.0283 12.0305 74.2988 11.4824 76.8668 11.4824C79.3408 11.4824 81.5487 12.0148 83.4903 13.0796C85.4633 14.1444 86.9822 15.6633 88.047 17.6362C89.1431 19.5779 89.6911 21.8171 89.6911 24.3537ZM82.8796 22.4747C82.8483 20.7836 82.2376 19.437 81.0476 18.4348C79.8576 17.4014 78.4013 16.8846 76.6789 16.8846C75.0504 16.8846 73.6724 17.3857 72.545 18.3878C71.4489 19.3587 70.7756 20.721 70.5251 22.4747H82.8796ZM95.8067 5.14072H102.712L97.6388 16.9786H93.1291L95.8067 5.14072ZM114.005 15.9451C114.85 14.5672 115.946 13.4867 117.293 12.7038C118.671 11.9209 120.237 11.5294 121.991 11.5294V18.4348H120.252C118.185 18.4348 116.62 18.9202 115.555 19.8911C114.521 20.8619 114.005 22.553 114.005 24.9644V37.9297H107.428V11.9052H114.005V15.9451ZM150.613 24.3537C150.613 25.2933 150.55 26.1388 150.425 26.8904H131.4C131.556 28.7694 132.214 30.2413 133.373 31.3061C134.531 32.3709 135.956 32.9033 137.647 32.9033C140.09 32.9033 141.828 31.8542 142.862 29.7559H149.955C149.203 32.2613 147.763 34.3282 145.633 35.9567C143.504 37.5539 140.889 38.3525 137.788 38.3525C135.283 38.3525 133.028 37.8044 131.024 36.7083C129.051 35.5809 127.501 33.9994 126.373 31.9638C125.277 29.9282 124.729 27.5794 124.729 24.9174C124.729 22.2242 125.277 19.8597 126.373 17.8241C127.469 15.7885 129.004 14.2227 130.977 13.1266C132.95 12.0305 135.22 11.4824 137.788 11.4824C140.262 11.4824 142.47 12.0148 144.412 13.0796C146.385 14.1444 147.904 15.6633 148.968 17.6362C150.065 19.5779 150.613 21.8171 150.613 24.3537ZM143.801 22.4747C143.77 20.7836 143.159 19.437 141.969 18.4348C140.779 17.4014 139.323 16.8846 137.6 16.8846C135.972 16.8846 134.594 17.3857 133.466 18.3878C132.37 19.3587 131.697 20.721 131.447 22.4747H143.801ZM173.183 15.7102C174.028 14.4575 175.187 13.4397 176.659 12.6568C178.162 11.8739 179.869 11.4824 181.779 11.4824C184.003 11.4824 186.007 12.0305 187.792 13.1266C189.609 14.2227 191.034 15.7885 192.067 17.8241C193.132 19.8284 193.664 22.1615 193.664 24.8235C193.664 27.4854 193.132 29.8499 192.067 31.9168C191.034 33.9524 189.609 35.5339 187.792 36.6613C186.007 37.7888 184.003 38.3525 181.779 38.3525C179.838 38.3525 178.131 37.9767 176.659 37.2251C175.218 36.4421 174.06 35.44 173.183 34.2186V37.9297H166.606V3.16775H173.183V15.7102ZM186.947 24.8235C186.947 23.2576 186.618 21.911 185.96 20.7836C185.334 19.6249 184.488 18.748 183.424 18.153C182.39 17.5579 181.263 17.2604 180.041 17.2604C178.851 17.2604 177.724 17.5736 176.659 18.1999C175.626 18.795 174.78 19.6718 174.122 20.8306C173.496 21.9893 173.183 23.3516 173.183 24.9174C173.183 26.4833 173.496 27.8456 174.122 29.0043C174.78 30.1631 175.626 31.0556 176.659 31.6819C177.724 32.277 178.851 32.5745 180.041 32.5745C181.263 32.5745 182.39 32.2613 183.424 31.635C184.488 31.0086 185.334 30.1161 185.96 28.9573C186.618 27.7986 186.947 26.4207 186.947 24.8235ZM205.02 15.9451C205.865 14.5672 206.962 13.4867 208.308 12.7038C209.686 11.9209 211.252 11.5294 213.006 11.5294V18.4348H211.268C209.201 18.4348 207.635 18.9202 206.57 19.8911C205.537 20.8619 205.02 22.553 205.02 24.9644V37.9297H198.443V11.9052H205.02V15.9451ZM220.771 8.80482C219.612 8.80482 218.641 8.44467 217.858 7.72438C217.107 6.97277 216.731 6.04892 216.731 4.95282C216.731 3.85672 217.107 2.94853 217.858 2.22823C218.641 1.47662 219.612 1.10082 220.771 1.10082C221.929 1.10082 222.885 1.47662 223.636 2.22823C224.419 2.94853 224.811 3.85672 224.811 4.95282C224.811 6.04892 224.419 6.97277 223.636 7.72438C222.885 8.44467 221.929 8.80482 220.771 8.80482ZM224.012 11.9052V37.9297H217.435V11.9052H224.012ZM244.931 11.5294C248.032 11.5294 250.537 12.5159 252.447 14.4889C254.358 16.4305 255.313 19.1551 255.313 22.6626V37.9297H248.736V23.5552C248.736 21.4882 248.219 19.9067 247.186 18.8106C246.153 17.6832 244.743 17.1195 242.958 17.1195C241.142 17.1195 239.701 17.6832 238.636 18.8106C237.603 19.9067 237.086 21.4882 237.086 23.5552V37.9297H230.51V11.9052H237.086V15.1465C237.963 14.0191 239.075 13.1422 240.421 12.5159C241.799 11.8582 243.303 11.5294 244.931 11.5294ZM271.76 11.4824C273.702 11.4824 275.409 11.8739 276.881 12.6568C278.353 13.4084 279.511 14.3949 280.357 15.6163V11.9052H286.981V38.1176C286.981 40.529 286.495 42.6742 285.524 44.5532C284.553 46.4636 283.097 47.9668 281.156 49.0629C279.214 50.1903 276.865 50.754 274.109 50.754C270.414 50.754 267.376 49.8928 264.996 48.1704C262.647 46.4479 261.316 44.0991 261.003 41.124H267.533C267.877 42.3141 268.613 43.2536 269.74 43.9426C270.899 44.6629 272.293 45.023 273.921 45.023C275.832 45.023 277.382 44.4436 278.572 43.2849C279.762 42.1575 280.357 40.4351 280.357 38.1176V34.0777C279.511 35.2991 278.337 36.3169 276.834 37.1311C275.362 37.9453 273.671 38.3525 271.76 38.3525C269.568 38.3525 267.564 37.7888 265.748 36.6613C263.931 35.5339 262.491 33.9524 261.426 31.9168C260.392 29.8499 259.876 27.4854 259.876 24.8235C259.876 22.1929 260.392 19.8597 261.426 17.8241C262.491 15.7885 263.916 14.2227 265.701 13.1266C267.517 12.0305 269.537 11.4824 271.76 11.4824ZM280.357 24.9174C280.357 23.3203 280.044 21.958 279.417 20.8306C278.791 19.6718 277.946 18.795 276.881 18.1999C275.816 17.5736 274.673 17.2604 273.452 17.2604C272.23 17.2604 271.103 17.5579 270.069 18.153C269.036 18.748 268.19 19.6249 267.533 20.7836C266.906 21.911 266.593 23.2576 266.593 24.8235C266.593 26.3893 266.906 27.7673 267.533 28.9573C268.19 30.1161 269.036 31.0086 270.069 31.635C271.134 32.2613 272.262 32.5745 273.452 32.5745C274.673 32.5745 275.816 32.277 276.881 31.6819C277.946 31.0556 278.791 30.1787 279.417 29.0513C280.044 27.8926 280.357 26.5146 280.357 24.9174ZM296.739 8.80482C295.58 8.80482 294.609 8.44467 293.827 7.72438C293.075 6.97277 292.699 6.04892 292.699 4.95282C292.699 3.85672 293.075 2.94853 293.827 2.22823C294.609 1.47662 295.58 1.10082 296.739 1.10082C297.898 1.10082 298.853 1.47662 299.605 2.22823C300.387 2.94853 300.779 3.85672 300.779 4.95282C300.779 6.04892 300.387 6.97277 299.605 7.72438C298.853 8.44467 297.898 8.80482 296.739 8.80482ZM299.98 11.9052V37.9297H293.404V11.9052H299.98ZM320.899 11.5294C324 11.5294 326.505 12.5159 328.416 14.4889C330.326 16.4305 331.281 19.1551 331.281 22.6626V37.9297H324.704V23.5552C324.704 21.4882 324.188 19.9067 323.154 18.8106C322.121 17.6832 320.712 17.1195 318.926 17.1195C317.11 17.1195 315.67 17.6832 314.605 18.8106C313.571 19.9067 313.055 21.4882 313.055 23.5552V37.9297H306.478V11.9052H313.055V15.1465C313.931 14.0191 315.043 13.1422 316.39 12.5159C317.768 11.8582 319.271 11.5294 320.899 11.5294ZM347.729 11.4824C349.67 11.4824 351.377 11.8739 352.849 12.6568C354.321 13.4084 355.48 14.3949 356.325 15.6163V11.9052H362.949V38.1176C362.949 40.529 362.463 42.6742 361.493 44.5532C360.522 46.4636 359.066 47.9668 357.124 49.0629C355.182 50.1903 352.833 50.754 350.078 50.754C346.382 50.754 343.344 49.8928 340.964 48.1704C338.616 46.4479 337.285 44.0991 336.971 41.124H343.501C343.845 42.3141 344.581 43.2536 345.709 43.9426C346.868 44.6629 348.261 45.023 349.89 45.023C351.8 45.023 353.35 44.4436 354.54 43.2849C355.73 42.1575 356.325 40.4351 356.325 38.1176V34.0777C355.48 35.2991 354.305 36.3169 352.802 37.1311C351.33 37.9453 349.639 38.3525 347.729 38.3525C345.537 38.3525 343.532 37.7888 341.716 36.6613C339.9 35.5339 338.459 33.9524 337.394 31.9168C336.361 29.8499 335.844 27.4854 335.844 24.8235C335.844 22.1929 336.361 19.8597 337.394 17.8241C338.459 15.7885 339.884 14.2227 341.669 13.1266C343.485 12.0305 345.505 11.4824 347.729 11.4824ZM356.325 24.9174C356.325 23.3203 356.012 21.958 355.386 20.8306C354.759 19.6718 353.914 18.795 352.849 18.1999C351.784 17.5736 350.641 17.2604 349.42 17.2604C348.199 17.2604 347.071 17.5579 346.038 18.153C345.004 18.748 344.159 19.6249 343.501 20.7836C342.875 21.911 342.561 23.2576 342.561 24.8235C342.561 26.3893 342.875 27.7673 343.501 28.9573C344.159 30.1161 345.004 31.0086 346.038 31.635C347.102 32.2613 348.23 32.5745 349.42 32.5745C350.641 32.5745 351.784 32.277 352.849 31.6819C353.914 31.0556 354.759 30.1787 355.386 29.0513C356.012 27.8926 356.325 26.5146 356.325 24.9174ZM183.242 64.8235C183.242 62.1929 183.759 59.8597 184.792 57.8241C185.857 55.7885 187.298 54.2227 189.114 53.1266C190.93 52.0305 192.95 51.4824 195.174 51.4824C196.865 51.4824 198.478 51.8582 200.012 52.6098C201.547 53.3301 202.768 54.301 203.676 55.5223V43.1677H210.347V77.9297H203.676V74.0777C202.862 75.3617 201.719 76.3952 200.247 77.1781C198.775 77.961 197.069 78.3525 195.127 78.3525C192.935 78.3525 190.93 77.7888 189.114 76.6613C187.298 75.5339 185.857 73.9524 184.792 71.9168C183.759 69.8499 183.242 67.4854 183.242 64.8235ZM203.723 64.9174C203.723 63.3203 203.41 61.958 202.784 60.8306C202.158 59.6718 201.312 58.795 200.247 58.1999C199.182 57.5736 198.039 57.2604 196.818 57.2604C195.597 57.2604 194.469 57.5579 193.436 58.153C192.402 58.748 191.557 59.6249 190.899 60.7836C190.273 61.911 189.96 63.2576 189.96 64.8235C189.96 66.3893 190.273 67.7673 190.899 68.9573C191.557 70.1161 192.402 71.0086 193.436 71.635C194.501 72.2613 195.628 72.5745 196.818 72.5745C198.039 72.5745 199.182 72.277 200.247 71.6819C201.312 71.0556 202.158 70.1787 202.784 69.0513C203.41 67.8926 203.723 66.5146 203.723 64.9174ZM240.963 64.3537C240.963 65.2933 240.9 66.1388 240.775 66.8904H221.75C221.906 68.7694 222.564 70.2413 223.723 71.3061C224.881 72.3709 226.306 72.9033 227.997 72.9033C230.44 72.9033 232.178 71.8542 233.212 69.7559H240.305C239.553 72.2613 238.113 74.3282 235.983 75.9567C233.854 77.5539 231.239 78.3525 228.138 78.3525C225.633 78.3525 223.378 77.8044 221.374 76.7083C219.401 75.5809 217.851 73.9994 216.723 71.9638C215.627 69.9282 215.079 67.5794 215.079 64.9174C215.079 62.2242 215.627 59.8597 216.723 57.8241C217.819 55.7885 219.354 54.2227 221.327 53.1266C223.3 52.0305 225.57 51.4824 228.138 51.4824C230.612 51.4824 232.82 52.0148 234.762 53.0796C236.735 54.1444 238.254 55.6633 239.318 57.6362C240.415 59.5779 240.963 61.8171 240.963 64.3537ZM234.151 62.4747C234.12 60.7836 233.509 59.437 232.319 58.4348C231.129 57.4014 229.673 56.8846 227.95 56.8846C226.322 56.8846 224.944 57.3857 223.817 58.3878C222.72 59.3587 222.047 60.721 221.797 62.4747H234.151ZM255.722 78.3525C253.592 78.3525 251.682 77.9767 249.991 77.2251C248.3 76.4421 246.953 75.393 245.951 74.0777C244.98 72.7624 244.448 71.3061 244.354 69.709H250.977C251.102 70.7111 251.588 71.541 252.433 72.1987C253.31 72.8563 254.391 73.1852 255.675 73.1852C256.927 73.1852 257.898 72.9346 258.587 72.4335C259.308 71.9325 259.668 71.2905 259.668 70.5075C259.668 69.662 259.229 69.0356 258.352 68.6285C257.507 68.1901 256.145 67.7203 254.266 67.2193C252.324 66.7495 250.727 66.2641 249.474 65.763C248.253 65.2619 247.188 64.4947 246.28 63.4612C245.403 62.4277 244.964 61.0341 244.964 59.2804C244.964 57.8398 245.371 56.5245 246.186 55.3344C247.031 54.1444 248.221 53.2049 249.756 52.5159C251.322 51.8269 253.154 51.4824 255.252 51.4824C258.352 51.4824 260.826 52.2654 262.674 53.8312C264.522 55.3657 265.54 57.4483 265.728 60.079H259.433C259.339 59.0455 258.9 58.2313 258.118 57.6362C257.366 57.0099 256.348 56.6967 255.064 56.6967C253.874 56.6967 252.95 56.9159 252.293 57.3544C251.666 57.7928 251.353 58.4035 251.353 59.1864C251.353 60.0633 251.791 60.7366 252.668 61.2064C253.545 61.6448 254.908 62.0989 256.755 62.5687C258.634 63.0384 260.184 63.5238 261.406 64.0249C262.627 64.526 263.676 65.3089 264.553 66.3737C265.461 67.4072 265.931 68.7851 265.962 70.5075C265.962 72.0108 265.54 73.3574 264.694 74.5474C263.88 75.7375 262.69 76.677 261.124 77.366C259.589 78.0236 257.789 78.3525 255.722 78.3525ZM274.696 48.8048C273.537 48.8048 272.567 48.4447 271.784 47.7244C271.032 46.9728 270.656 46.0489 270.656 44.9528C270.656 43.8567 271.032 42.9485 271.784 42.2282C272.567 41.4766 273.537 41.1008 274.696 41.1008C275.855 41.1008 276.81 41.4766 277.562 42.2282C278.345 42.9485 278.736 43.8567 278.736 44.9528C278.736 46.0489 278.345 46.9728 277.562 47.7244C276.81 48.4447 275.855 48.8048 274.696 48.8048ZM277.938 51.9052V77.9297H271.361V51.9052H277.938ZM294.629 51.4824C296.571 51.4824 298.277 51.8739 299.749 52.6568C301.221 53.4084 302.38 54.3949 303.225 55.6163V51.9052H309.849V78.1176C309.849 80.529 309.364 82.6742 308.393 84.5532C307.422 86.4636 305.966 87.9668 304.024 89.0629C302.082 90.1903 299.734 90.754 296.978 90.754C293.282 90.754 290.245 89.8928 287.864 88.1704C285.516 86.4479 284.185 84.0991 283.872 81.124H290.401C290.746 82.3141 291.482 83.2536 292.609 83.9426C293.768 84.6629 295.161 85.023 296.79 85.023C298.7 85.023 300.25 84.4436 301.44 83.2849C302.63 82.1575 303.225 80.4351 303.225 78.1176V74.0777C302.38 75.2991 301.206 76.3169 299.702 77.1311C298.23 77.9453 296.539 78.3525 294.629 78.3525C292.437 78.3525 290.432 77.7888 288.616 76.6613C286.8 75.5339 285.359 73.9524 284.294 71.9168C283.261 69.8499 282.744 67.4854 282.744 64.8235C282.744 62.1929 283.261 59.8597 284.294 57.8241C285.359 55.7885 286.784 54.2227 288.569 53.1266C290.385 52.0305 292.405 51.4824 294.629 51.4824ZM303.225 64.9174C303.225 63.3203 302.912 61.958 302.286 60.8306C301.66 59.6718 300.814 58.795 299.749 58.1999C298.684 57.5736 297.541 57.2604 296.32 57.2604C295.099 57.2604 293.971 57.5579 292.938 58.153C291.904 58.748 291.059 59.6249 290.401 60.7836C289.775 61.911 289.462 63.2576 289.462 64.8235C289.462 66.3893 289.775 67.7673 290.401 68.9573C291.059 70.1161 291.904 71.0086 292.938 71.635C294.003 72.2613 295.13 72.5745 296.32 72.5745C297.541 72.5745 298.684 72.277 299.749 71.6819C300.814 71.0556 301.66 70.1787 302.286 69.0513C302.912 67.8926 303.225 66.5146 303.225 64.9174ZM330.694 51.5294C333.794 51.5294 336.299 52.5159 338.21 54.4889C340.12 56.4305 341.075 59.1551 341.075 62.6626V77.9297H334.499V63.5552C334.499 61.4882 333.982 59.9067 332.949 58.8106C331.915 57.6832 330.506 57.1195 328.721 57.1195C326.904 57.1195 325.464 57.6832 324.399 58.8106C323.366 59.9067 322.849 61.4882 322.849 63.5552V77.9297H316.272V51.9052H322.849V55.1465C323.726 54.0191 324.837 53.1422 326.184 52.5159C327.562 51.8582 329.065 51.5294 330.694 51.5294ZM131.965 95.7102C132.81 94.4575 133.969 93.4397 135.441 92.6568C136.944 91.8739 138.651 91.4824 140.561 91.4824C142.785 91.4824 144.789 92.0305 146.574 93.1266C148.39 94.2227 149.815 95.7885 150.849 97.8241C151.914 99.8284 152.446 102.162 152.446 104.823C152.446 107.485 151.914 109.85 150.849 111.917C149.815 113.952 148.39 115.534 146.574 116.661C144.789 117.789 142.785 118.352 140.561 118.352C138.619 118.352 136.913 117.977 135.441 117.225C134 116.442 132.841 115.44 131.965 114.219V117.93H125.388V83.1677H131.965V95.7102ZM145.728 104.823C145.728 103.258 145.4 101.911 144.742 100.784C144.116 99.6249 143.27 98.748 142.205 98.153C141.172 97.5579 140.044 97.2604 138.823 97.2604C137.633 97.2604 136.506 97.5736 135.441 98.1999C134.407 98.795 133.562 99.6718 132.904 100.831C132.278 101.989 131.965 103.352 131.965 104.917C131.965 106.483 132.278 107.846 132.904 109.004C133.562 110.163 134.407 111.056 135.441 111.682C136.506 112.277 137.633 112.574 138.823 112.574C140.044 112.574 141.172 112.261 142.205 111.635C143.27 111.009 144.116 110.116 144.742 108.957C145.4 107.799 145.728 106.421 145.728 104.823ZM155.534 104.823C155.534 102.193 156.051 99.8597 157.084 97.8241C158.149 95.7885 159.574 94.2227 161.359 93.1266C163.175 92.0305 165.195 91.4824 167.419 91.4824C169.36 91.4824 171.051 91.8739 172.492 92.6568C173.964 93.4397 175.138 94.4262 176.015 95.6163V91.9052H182.639V117.93H176.015V114.125C175.17 115.346 173.995 116.364 172.492 117.178C171.02 117.961 169.313 118.352 167.372 118.352C165.179 118.352 163.175 117.789 161.359 116.661C159.574 115.534 158.149 113.952 157.084 111.917C156.051 109.85 155.534 107.485 155.534 104.823ZM176.015 104.917C176.015 103.32 175.702 101.958 175.076 100.831C174.449 99.6718 173.604 98.795 172.539 98.1999C171.474 97.5736 170.331 97.2604 169.11 97.2604C167.888 97.2604 166.761 97.5579 165.728 98.153C164.694 98.748 163.849 99.6249 163.191 100.784C162.565 101.911 162.251 103.258 162.251 104.823C162.251 106.389 162.565 107.767 163.191 108.957C163.849 110.116 164.694 111.009 165.728 111.635C166.792 112.261 167.92 112.574 169.11 112.574C170.331 112.574 171.474 112.277 172.539 111.682C173.604 111.056 174.449 110.179 175.076 109.051C175.702 107.893 176.015 106.515 176.015 104.917ZM187.371 104.917C187.371 102.224 187.919 99.8754 189.015 97.8711C190.111 95.8355 191.63 94.2696 193.572 93.1735C195.513 92.0461 197.737 91.4824 200.242 91.4824C203.468 91.4824 206.13 92.2967 208.228 93.9252C210.358 95.5223 211.782 97.7772 212.503 100.69H205.409C205.034 99.5622 204.392 98.6854 203.483 98.059C202.607 97.4014 201.51 97.0725 200.195 97.0725C198.316 97.0725 196.829 97.7615 195.732 99.1394C194.636 100.486 194.088 102.412 194.088 104.917C194.088 107.391 194.636 109.317 195.732 110.695C196.829 112.042 198.316 112.715 200.195 112.715C202.857 112.715 204.595 111.525 205.409 109.145H212.503C211.782 111.964 210.358 114.203 208.228 115.863C206.098 117.523 203.436 118.352 200.242 118.352C197.737 118.352 195.513 117.804 193.572 116.708C191.63 115.581 190.111 114.015 189.015 112.011C187.919 109.975 187.371 107.611 187.371 104.917ZM232.729 117.93L223.897 106.843V117.93H217.321V83.1677H223.897V102.944L232.635 91.9052H241.184L229.722 104.964L241.278 117.93H232.729ZM253.256 84.577L252.505 107.266H246.962L246.163 84.577H253.256ZM249.874 118.259C248.684 118.259 247.697 117.898 246.915 117.178C246.163 116.426 245.787 115.503 245.787 114.407C245.787 113.31 246.163 112.402 246.915 111.682C247.697 110.93 248.684 110.555 249.874 110.555C251.033 110.555 251.988 110.93 252.74 111.682C253.491 112.402 253.867 113.31 253.867 114.407C253.867 115.503 253.491 116.426 252.74 117.178C251.988 117.898 251.033 118.259 249.874 118.259Z" fill="black"/>
<rect x="52.0059" y="46.8687" width="111.883" height="50.5853" transform="rotate(-4 52.0059 46.8687)" fill="#5900CC"/>
<rect x="39.9531" y="53.6768" width="136.878" height="38.6829" rx="19.3414" transform="rotate(-4 39.9531 53.6768)" fill="#5900CC"/>
<path d="M69.1894 61.7494C68.8569 61.7727 68.5693 61.9598 68.3266 62.3109L69.289 76.0746C69.468 78.6345 70.6756 80.1369 72.9116 80.5819C74.0606 80.7688 75.4163 80.8077 76.9789 80.6984L77.08 82.1446C71.7556 84.3544 68.9105 85.472 68.5448 85.4976C67.5475 85.5673 66.4846 84.9401 65.3564 83.6158C64.2258 82.2583 63.5943 80.6321 63.4618 78.7371L62.2901 61.9813C62.2738 61.7486 64.1118 60.8016 67.8042 59.1402C71.5275 57.4433 73.6717 56.5751 74.2369 56.5356C74.4364 56.5216 74.7028 56.9874 75.0362 57.9329C75.3696 58.8785 75.7501 60.0211 76.1779 61.361C76.6389 62.6985 77.0755 63.6869 77.4877 64.3262C77.9308 64.93 78.6843 65.1947 79.7482 65.1203L79.8179 66.1176C79.1098 66.5012 77.9049 67.1868 76.2033 68.1744C74.5327 69.1265 73.6309 69.6071 73.4979 69.6164C72.9992 69.6513 72.2734 68.349 71.3204 65.7096C70.3651 63.0369 69.6548 61.7169 69.1894 61.7494ZM79.8966 59.1465L85.1729 55.7708C85.4103 55.8211 85.6832 55.9022 85.9917 56.0143C86.3311 56.0908 86.7854 56.3764 87.3545 56.8711C87.9569 57.3635 88.2813 57.9422 88.3278 58.6071C88.4894 58.529 89.2347 57.959 90.5635 56.8973C91.9234 55.7999 92.8028 55.2373 93.2017 55.2094C94.2656 55.135 95.3117 55.7634 96.3403 57.0947C97.3688 58.4259 97.9237 59.6733 98.0051 60.8369L98.176 63.2804L93.2418 66.532L92.3452 65.8931C92.1499 63.1005 91.7724 61.5233 91.2125 61.1615C90.5839 60.7712 89.6711 60.6179 88.4743 60.7016L89.5867 76.6096C89.7285 78.6376 90.4902 79.7369 91.8719 79.9075L91.9486 81.0046L87.1107 84.1993C86.3584 83.9513 85.6431 83.5169 84.965 82.8961C84.2845 82.2421 83.9233 81.6159 83.8815 81.0175L82.7237 64.4612C82.6214 62.9984 82.2787 61.9199 81.6957 61.2257C81.1458 60.5291 80.5717 60.2018 79.9733 60.2436L79.8966 59.1465ZM114.024 60.3682L115.011 74.481C115.097 75.7111 115.357 76.5615 115.791 77.0323C116.222 77.4698 116.86 77.7593 117.705 77.9006L117.782 78.9977L112.559 82.4198C111.807 82.1717 111.092 81.7373 110.413 81.1166C109.733 80.4626 109.373 79.853 109.333 79.2879L103.334 83.0649C103.229 83.0054 103.074 82.9328 102.867 82.847C102.658 82.7279 102.292 82.503 101.768 82.1722C101.274 81.8058 100.83 81.4193 100.434 81.0126C99.3597 79.9853 98.7739 78.7734 98.6762 77.3771L98.1043 69.1987C98.0671 68.6668 98.8839 67.9248 100.555 66.9728C102.225 66.0207 103.906 65.2183 105.598 64.5655L108.182 63.5329C108.049 61.6379 107.459 60.3596 106.41 59.6979C105.359 59.003 103.404 58.7555 100.545 58.9555L100.441 57.4594C105.466 55.2706 108.294 54.154 108.926 54.1099C110.023 54.0332 111.12 54.6747 112.218 56.0345C113.315 57.3944 113.917 58.8389 114.024 60.3682ZM104.535 75.1634C104.595 76.0278 104.895 76.7251 105.433 77.2554C106.002 77.7502 106.602 77.9755 107.234 77.9313C107.866 77.8871 108.513 77.5913 109.177 77.0438L108.388 65.7735C107.578 66.1308 106.964 66.4244 106.546 66.654C106.161 66.8814 105.751 67.2275 105.315 67.6922C104.507 68.5506 104.171 69.9605 104.308 71.922L104.535 75.1634ZM128.283 76.4093C130.311 76.2675 131.419 75.6387 131.609 74.523L132.706 74.4463L135.834 78.3368C135.479 78.9963 135.004 79.5975 134.407 80.1404C133.81 80.6832 133.212 80.9756 132.614 81.0174L119.549 81.9311C118.742 79.9496 118.299 78.3937 118.22 77.2633L128.656 58.0922L124.317 58.3956C122.289 58.5374 121.181 59.1662 120.991 60.2819L119.894 60.3586L116.766 56.4682C117.121 55.8086 117.596 55.2074 118.193 54.6645C118.79 54.1217 119.388 53.8293 119.986 53.7875L126.668 53.3202C128.696 53.1784 129.805 52.5496 129.994 51.4339L131.091 51.3572C131.601 51.9563 132.264 53.0793 133.081 54.726C133.928 56.3371 134.364 57.3089 134.387 57.6414L124.343 76.6848L128.283 76.4093ZM153.755 54.3326L155.14 74.1304C155.228 75.3937 154.789 77.2285 153.821 79.6347C152.856 82.0742 151.803 84.2191 150.663 86.0695C149.525 87.9531 148.723 88.9112 148.258 88.9437C147.427 89.0018 146.296 88.8304 144.865 88.4293C143.433 88.0283 142.202 87.6133 141.169 87.1844L139.671 86.5375L139.566 85.0414L141.262 84.9228C142.558 84.8322 143.985 83.9807 145.543 82.3684C147.103 80.7894 148.346 78.7314 149.271 76.1945C145.637 78.2192 143.538 79.2513 142.973 79.2908C141.942 79.3629 140.966 78.7797 140.044 77.5413C139.153 76.2672 138.651 74.8157 138.537 73.1867L137.578 59.4728C137.45 57.6443 136.56 56.6208 134.908 56.4023L134.831 55.3052L140.054 51.8831C140.806 52.1311 141.523 52.5822 142.203 53.2362C142.881 53.8569 143.241 54.4665 143.283 55.0649L144.228 68.5793C144.391 70.9064 144.866 72.4434 145.653 73.1902C146.438 73.9037 147.595 74.207 149.124 74.1L148.05 58.7405C147.908 56.7126 147.147 55.6132 145.765 55.4426L145.688 54.3455L150.526 51.1508C151.279 51.3988 151.995 51.8499 152.675 52.5039C153.354 53.1246 153.714 53.7342 153.755 54.3326Z" fill="#FF0D84"/>
</svg>
