<svg width="25" height="25" viewBox="0 0 25 25" fill="none" xmlns="http://www.w3.org/2000/svg">
<g id="Group">
<path id="Vector" d="M12.5656 6.20973C13.7257 8.84216 15.703 11.0308 18.2046 12.4512C18.5782 12.6613 18.5782 13.1984 18.2046 13.4085C15.7023 14.8302 13.7248 17.0205 12.5656 19.6547C12.5212 19.7538 12.4491 19.8381 12.358 19.8971C12.2668 19.9562 12.1605 19.9877 12.0519 19.9877C11.9432 19.9877 11.8369 19.9562 11.7458 19.8971C11.6546 19.8381 11.5825 19.7538 11.5382 19.6547C10.3785 17.0214 8.40109 14.8319 5.89914 13.4109C5.81468 13.3627 5.74448 13.2931 5.69565 13.209C5.64682 13.1249 5.62109 13.0294 5.62109 12.9322C5.62109 12.835 5.64682 12.7395 5.69565 12.6554C5.74448 12.5714 5.81468 12.5017 5.89914 12.4535C8.40185 11.0313 10.3793 8.84009 11.5382 6.20506C11.5825 6.1059 11.6546 6.02169 11.7458 5.9626C11.8369 5.90351 11.9432 5.87207 12.0519 5.87207C12.1605 5.87207 12.2668 5.90351 12.358 5.9626C12.4491 6.02169 12.5212 6.1059 12.5656 6.20506V6.20973Z" fill="black"/>
</g>
</svg>
