<svg width="141" height="62" viewBox="0 0 141 62" fill="none" xmlns="http://www.w3.org/2000/svg">
<rect x="13.0059" y="9.86865" width="111.883" height="50.5853" transform="rotate(-4 13.0059 9.86865)" fill="#5900CC"/>
<rect x="0.953125" y="16.6768" width="136.878" height="38.6829" rx="19.3414" transform="rotate(-4 0.953125 16.6768)" fill="#5900CC"/>
<path d="M30.1894 24.7494C29.8569 24.7727 29.5693 24.9598 29.3266 25.3109L30.289 39.0746C30.468 41.6345 31.6756 43.1369 33.9116 43.5819C35.0606 43.7688 36.4163 43.8077 37.9789 43.6984L38.08 45.1446C32.7556 47.3544 29.9105 48.472 29.5448 48.4976C28.5475 48.5673 27.4846 47.9401 26.3564 46.6158C25.2258 45.2583 24.5943 43.6321 24.4618 41.7371L23.2901 24.9813C23.2738 24.7486 25.1118 23.8016 28.8042 22.1402C32.5275 20.4433 34.6717 19.5751 35.2369 19.5356C35.4364 19.5216 35.7028 19.9874 36.0362 20.9329C36.3696 21.8785 36.7501 23.0211 37.1779 24.361C37.6389 25.6985 38.0755 26.6869 38.4877 27.3262C38.9308 27.93 39.6843 28.1947 40.7482 28.1203L40.8179 29.1176C40.1098 29.5012 38.9049 30.1868 37.2033 31.1744C35.5327 32.1265 34.6309 32.6071 34.4979 32.6164C33.9992 32.6513 33.2734 31.349 32.3204 28.7096C31.3651 26.0369 30.6548 24.7169 30.1894 24.7494ZM40.8966 22.1465L46.1729 18.7708C46.4103 18.8211 46.6832 18.9022 46.9917 19.0143C47.3311 19.0908 47.7854 19.3764 48.3545 19.8711C48.9569 20.3635 49.2813 20.9422 49.3278 21.6071C49.4894 21.529 50.2347 20.959 51.5635 19.8973C52.9234 18.7999 53.8028 18.2373 54.2017 18.2094C55.2656 18.135 56.3117 18.7634 57.3403 20.0947C58.3688 21.4259 58.9237 22.6733 59.0051 23.8369L59.176 26.2804L54.2418 29.532L53.3452 28.8931C53.1499 26.1005 52.7724 24.5233 52.2125 24.1615C51.5839 23.7712 50.6711 23.6179 49.4743 23.7016L50.5867 39.6096C50.7285 41.6376 51.4902 42.7369 52.8719 42.9075L52.9486 44.0046L48.1107 47.1993C47.3584 46.9513 46.6431 46.5169 45.965 45.8961C45.2845 45.2421 44.9233 44.6159 44.8815 44.0175L43.7237 27.4612C43.6214 25.9984 43.2787 24.9199 42.6957 24.2257C42.1458 23.5291 41.5717 23.2018 40.9733 23.2436L40.8966 22.1465ZM75.0239 23.3682L76.0108 37.481C76.0968 38.7111 76.3567 39.5615 76.7905 40.0323C77.222 40.4698 77.8603 40.7593 78.7054 40.9006L78.7821 41.9977L73.5592 45.4198C72.8068 45.1717 72.0916 44.7373 71.4134 44.1166C70.733 43.4626 70.3729 42.853 70.3334 42.2879L64.3335 46.0649C64.2291 46.0054 64.0737 45.9328 63.8673 45.847C63.6585 45.7279 63.292 45.503 62.7677 45.1722C62.2744 44.8058 61.8297 44.4193 61.4338 44.0126C60.3597 42.9853 59.7739 41.7734 59.6762 40.3771L59.1043 32.1987C59.0671 31.6668 59.8839 30.9248 61.5545 29.9728C63.2252 29.0207 64.9063 28.2183 66.5979 27.5655L69.1816 26.5329C69.0491 24.6379 68.4586 23.3596 67.4101 22.6979C66.3592 22.003 64.4043 21.7555 61.5451 21.9555L61.4405 20.4594C66.4657 18.2706 69.2942 17.154 69.9258 17.1099C71.0229 17.0332 72.1202 17.6747 73.2175 19.0345C74.3148 20.3944 74.917 21.8389 75.0239 23.3682ZM65.5349 38.1634C65.5954 39.0278 65.8947 39.7251 66.4329 40.2554C67.002 40.7502 67.6024 40.9755 68.2341 40.9313C68.8657 40.8871 69.5132 40.5913 70.1765 40.0438L69.3884 28.7735C68.5782 29.1308 67.964 29.4244 67.5457 29.654C67.1607 29.8814 66.7506 30.2275 66.3154 30.6922C65.5068 31.5506 65.1711 32.9605 65.3082 34.922L65.5349 38.1634ZM89.2829 39.4093C91.3108 39.2675 92.4195 38.6387 92.6087 37.523L93.7058 37.4463L96.8343 41.3368C96.4795 41.9963 96.0037 42.5975 95.4069 43.1404C94.8101 43.6832 94.2125 43.9756 93.6141 44.0174L80.5485 44.9311C79.7418 42.9496 79.2989 41.3937 79.2199 40.2633L89.6557 21.0922L85.3172 21.3956C83.2892 21.5374 82.1806 22.1662 81.9913 23.2819L80.8942 23.3586L77.7658 19.4682C78.1205 18.8086 78.5963 18.2074 79.1931 17.6645C79.7899 17.1217 80.3875 16.8293 80.9859 16.7875L87.6683 16.3202C89.6963 16.1784 90.8049 15.5496 90.9942 14.4339L92.0913 14.3572C92.6009 14.9563 93.264 16.0793 94.0808 17.726C94.9284 19.3371 95.3638 20.3089 95.3871 20.6414L85.3433 39.6848L89.2829 39.4093ZM114.755 17.3326L116.14 37.1304C116.228 38.3937 115.789 40.2285 114.821 42.6347C113.856 45.0742 112.803 47.2191 111.663 49.0695C110.525 50.9531 109.723 51.9112 109.258 51.9437C108.427 52.0018 107.296 51.8304 105.865 51.4293C104.433 51.0283 103.202 50.6133 102.169 50.1844L100.671 49.5375L100.566 48.0414L102.262 47.9228C103.558 47.8322 104.985 46.9807 106.543 45.3684C108.103 43.7894 109.346 41.7314 110.271 39.1945C106.637 41.2192 104.538 42.2513 103.973 42.2908C102.942 42.3629 101.966 41.7797 101.044 40.5413C100.153 39.2672 99.6508 37.8157 99.5368 36.1867L98.5779 22.4728C98.45 20.6443 97.5599 19.6208 95.9077 19.4023L95.8309 18.3052L101.054 14.8831C101.806 15.1311 102.523 15.5822 103.203 16.2362C103.881 16.8569 104.241 17.4665 104.283 18.0649L105.228 31.5793C105.391 33.9064 105.866 35.4434 106.653 36.1902C107.438 36.9037 108.595 37.207 110.124 37.1L109.05 21.7405C108.908 19.7126 108.147 18.6132 106.765 18.4426L106.688 17.3455L111.526 14.1508C112.279 14.3988 112.995 14.8499 113.675 15.5039C114.354 16.1246 114.714 16.7342 114.755 17.3326Z" fill="#FF0D84"/>
</svg>
