<svg width="25" height="25" viewBox="0 0 25 25" fill="none" xmlns="http://www.w3.org/2000/svg">
<g id="ic:round-close">
<path id="Vector" d="M18.353 6.63991C18.2604 6.54721 18.1506 6.47366 18.0296 6.42348C17.9086 6.3733 17.7789 6.34747 17.648 6.34747C17.517 6.34747 17.3873 6.3733 17.2663 6.42348C17.1454 6.47366 17.0355 6.54721 16.943 6.63991L12.053 11.5199L7.16296 6.62991C7.07038 6.53733 6.96047 6.46389 6.8395 6.41378C6.71854 6.36368 6.58889 6.33789 6.45796 6.33789C6.32703 6.33789 6.19738 6.36368 6.07641 6.41378C5.95545 6.46389 5.84554 6.53733 5.75296 6.62991C5.66038 6.72249 5.58694 6.8324 5.53683 6.95337C5.48673 7.07433 5.46094 7.20398 5.46094 7.33491C5.46094 7.46584 5.48673 7.59549 5.53683 7.71645C5.58694 7.83742 5.66038 7.94733 5.75296 8.03991L10.643 12.9299L5.75296 17.8199C5.66038 17.9125 5.58694 18.0224 5.53683 18.1434C5.48673 18.2643 5.46094 18.394 5.46094 18.5249C5.46094 18.6558 5.48673 18.7855 5.53683 18.9065C5.58694 19.0274 5.66038 19.1373 5.75296 19.2299C5.84554 19.3225 5.95545 19.3959 6.07641 19.446C6.19738 19.4961 6.32703 19.5219 6.45796 19.5219C6.58889 19.5219 6.71854 19.4961 6.8395 19.446C6.96047 19.3959 7.07038 19.3225 7.16296 19.2299L12.053 14.3399L16.943 19.2299C17.0355 19.3225 17.1455 19.3959 17.2664 19.446C17.3874 19.4961 17.517 19.5219 17.648 19.5219C17.7789 19.5219 17.9085 19.4961 18.0295 19.446C18.1505 19.3959 18.2604 19.3225 18.353 19.2299C18.4455 19.1373 18.519 19.0274 18.5691 18.9065C18.6192 18.7855 18.645 18.6558 18.645 18.5249C18.645 18.394 18.6192 18.2643 18.5691 18.1434C18.519 18.0224 18.4455 17.9125 18.353 17.8199L13.463 12.9299L18.353 8.03991C18.733 7.65991 18.733 7.01991 18.353 6.63991Z" fill="black"/>
</g>
</svg>
