<svg width="25" height="24" viewBox="0 0 25 24" fill="none" xmlns="http://www.w3.org/2000/svg">
<path d="M6.28125 9H2.28125V21H6.28125V9Z" stroke="#141414" stroke-width="1.5" stroke-linecap="round" stroke-linejoin="round"/>
<path d="M16.2812 8C17.8725 8 19.3987 8.63214 20.5239 9.75736C21.6491 10.8826 22.2812 12.4087 22.2812 14V21H18.2812V14C18.2812 13.4696 18.0705 12.9609 17.6955 12.5858C17.3204 12.2107 16.8117 12 16.2812 12C15.7508 12 15.2421 12.2107 14.867 12.5858C14.492 12.9609 14.2812 13.4696 14.2812 14V21H10.2812V14C10.2812 12.4087 10.9134 10.8826 12.0386 9.75736C13.1638 8.63214 14.69 8 16.2812 8V8Z" stroke="#141414" stroke-width="1.5" stroke-linecap="round" stroke-linejoin="round"/>
<path d="M4.28125 6C5.38582 6 6.28125 5.10457 6.28125 4C6.28125 2.89543 5.38582 2 4.28125 2C3.17668 2 2.28125 2.89543 2.28125 4C2.28125 5.10457 3.17668 6 4.28125 6Z" stroke="#141414" stroke-width="1.5" stroke-linecap="round" stroke-linejoin="round"/>
</svg>
