<svg width="15" height="19" viewBox="0 0 15 19" fill="none" xmlns="http://www.w3.org/2000/svg">
<g id="location">
<path id="Vector" d="M7.29031 1.35449C10.7003 1.35449 13.868 4.08515 13.868 7.53009C13.868 9.80716 13.0987 11.417 11.8094 13.294C10.4177 15.3201 8.65336 17.2316 7.79565 18.1224C7.51214 18.4168 7.04918 18.4168 6.76567 18.1224C5.90796 17.2316 4.14363 15.3201 2.75189 13.294C1.46265 11.417 0.693359 9.80716 0.693359 7.53009C0.693359 4.08515 3.86099 1.35449 7.27094 1.35449" stroke="black" stroke-linecap="round"/>
<path id="Vector_2" d="M9.75102 7.89401C9.75102 9.2717 8.64866 10.4111 7.28467 10.4111C5.92069 10.4111 4.81055 9.2717 4.81055 7.89401C4.81055 6.51632 5.92069 5.47157 7.28467 5.47157C8.64866 5.47157 9.75102 6.51632 9.75102 7.89401Z" stroke="black"/>
</g>
</svg>
