<svg width="227" height="120" viewBox="0 0 227 120" fill="none" xmlns="http://www.w3.org/2000/svg">
<g id="Logo">
<path id="Vector" d="M41.6173 0V51.951C41.781 55.6411 40.5074 59.2515 38.0627 62.0276C36.5815 63.6164 34.7731 64.8672 32.7615 65.6942C30.7499 66.5212 28.5826 66.905 26.4083 66.819C24.2337 66.9069 22.0658 66.5241 20.0539 65.697C18.042 64.8698 16.2338 63.6179 14.7538 62.0276C12.3091 59.2515 11.0355 55.6411 11.1992 51.951V0H0.0692394V51.951C-0.0539351 55.1891 0.513429 58.4163 1.73387 61.4197C2.95432 64.4232 4.80008 67.1344 7.14931 69.3745C12.4198 74.1677 19.3652 76.7115 26.4957 76.46C30.0273 76.6036 33.5525 76.0488 36.868 74.8277C40.1834 73.6066 43.2235 71.7434 45.8129 69.3455C48.1511 67.0957 49.9915 64.3835 51.2158 61.3829C52.4401 58.3823 53.0213 55.1597 52.9221 51.922V0H41.6173Z" fill="#008253"/>
<path id="Vector_2" d="M121.567 20.8797V56.801C121.685 58.2189 121.485 59.6451 120.981 60.9761C120.477 62.3072 119.682 63.5097 118.653 64.4964C116.606 66.0882 114.083 66.9528 111.486 66.9528C108.889 66.9528 106.366 66.0882 104.318 64.4964C103.306 63.5017 102.527 62.2957 102.038 60.965C101.55 59.6343 101.363 58.2122 101.492 56.801V20.8506H90.6244V56.801C90.7424 58.2189 90.5421 59.6451 90.0381 60.9761C89.5342 62.3072 88.7392 63.5097 87.7108 64.4964C85.663 66.0882 83.1404 66.9528 80.5434 66.9528C77.9463 66.9528 75.4237 66.0882 73.3759 64.4964C72.3475 63.5097 71.5526 62.3072 71.0486 60.9761C70.5446 59.6451 70.3443 58.2189 70.4623 56.801V20.8506H59.6528V56.801C59.6345 59.4657 60.1833 62.1039 61.2631 64.5417C62.3429 66.9794 63.9291 69.1612 65.917 70.9431C69.8611 74.6152 75.089 76.6057 80.4851 76.4896C85.6867 76.4094 90.6558 74.3284 94.3539 70.6817C94.941 70.1096 95.4771 69.4878 95.9563 68.8232C96.4351 69.5061 96.9712 70.1473 97.5588 70.7398C99.3603 72.5872 101.517 74.0536 103.9 75.0515C106.283 76.0494 108.843 76.5582 111.428 76.5477C116.829 76.6952 122.069 74.7004 125.996 71.0012C128.008 69.2168 129.622 67.0304 130.731 64.5839C131.84 62.1374 132.421 59.4857 132.435 56.801V20.8506L121.567 20.8797Z" fill="#008253"/>
<path id="Vector_3" d="M172.497 26.3961C168.56 22.7132 163.328 20.721 157.929 20.8496H145.197L145.372 29.4162V30.4035H157.842C160.465 30.3077 163.03 31.1875 165.039 32.8718C166.816 34.4399 167.748 37.6923 167.952 42.5128C165.102 40.2396 161.551 39.0187 157.9 39.0572C155.296 38.9627 152.698 39.3838 150.257 40.2959C147.817 41.208 145.582 42.5932 143.682 44.3713C141.826 46.0793 140.349 48.1551 139.346 50.4655C138.342 52.7759 137.834 55.2699 137.855 57.7874C137.801 62.6942 139.697 67.4231 143.128 70.9421C145.031 72.8346 147.31 74.3086 149.819 75.2689C152.329 76.2293 155.012 76.6546 157.696 76.5176C161.349 76.6652 164.927 75.466 167.748 73.1491V76.5176H178.645V40.5381C178.664 37.8844 178.126 35.2559 177.068 32.8208C176.009 30.3858 174.453 28.1976 172.497 26.3961ZM167.777 57.9036C167.749 59.1304 167.476 60.3395 166.976 61.4609C166.476 62.5824 165.758 63.594 164.864 64.4374C163.919 65.3284 162.8 66.0153 161.577 66.4551C160.354 66.8948 159.052 67.0779 157.755 66.9928C156.507 67.066 155.258 66.882 154.084 66.4523C152.911 66.0226 151.84 65.3564 150.937 64.4954C149.247 62.6757 148.347 60.2651 148.431 57.7874C148.414 56.5681 148.647 55.3582 149.116 54.232C149.585 53.1058 150.281 52.0872 151.159 51.2386C152.038 50.3901 153.082 49.7295 154.226 49.2976C155.37 48.8658 156.591 48.6716 157.813 48.7272C160.372 48.6857 162.855 49.5969 164.776 51.2826C165.747 52.0875 166.522 53.1017 167.042 54.2487C167.562 55.3957 167.813 56.6455 167.777 57.9036Z" fill="#008253"/>
<path id="Vector_4" d="M215.589 20.8506V56.9753C215.698 58.3924 215.494 59.8162 214.991 61.146C214.487 62.4758 213.697 63.6791 212.675 64.6707C210.695 66.2519 208.234 67.1134 205.697 67.1134C203.16 67.1134 200.699 66.2519 198.719 64.6707C197.697 63.6791 196.907 62.4758 196.403 61.146C195.9 59.8162 195.696 58.3924 195.805 56.9753V20.8506H185.345V56.9753C185.31 59.6331 185.837 62.2685 186.891 64.7101C187.945 67.1517 189.503 69.3447 191.464 71.1464C195.312 74.8029 200.454 76.7963 205.77 76.6929C209.347 76.8806 212.861 75.696 215.589 73.3824V76.6638C215.696 78.0807 215.491 79.504 214.988 80.8335C214.485 82.163 213.695 83.3664 212.675 84.3592C210.713 86.0054 208.217 86.8829 205.653 86.8275H194.494L190.532 95.1908V96.4104H205.828C208.47 96.4842 211.1 96.0287 213.563 95.071C216.025 94.1133 218.269 92.6728 220.163 90.8349C222.105 89.0188 223.651 86.823 224.704 84.3848C225.757 81.9466 226.294 79.3182 226.282 76.6638V20.8506H215.589Z" fill="#008253"/>
<g id="Pixel">
<path d="M74.6716 83.8573C76.5457 83.8573 78.0547 84.534 79.1986 85.8873C80.3669 87.2165 80.951 88.9685 80.951 91.1435C80.951 93.2702 80.3912 94.986 79.2716 96.291C78.1521 97.596 76.6795 98.2484 74.8541 98.2484H71.4223C71.325 98.2484 71.2763 98.2968 71.2763 98.3934V108.906C71.2763 109.148 71.1546 109.268 70.9112 109.268H68.1366C67.8932 109.268 67.7715 109.148 67.7715 108.906V84.2198C67.7715 83.9782 67.8932 83.8573 68.1366 83.8573H74.6716ZM74.124 95.4572C75.1219 95.4572 75.925 95.0826 76.5335 94.3335C77.142 93.5602 77.4462 92.521 77.4462 91.216C77.4462 89.8869 77.142 88.8356 76.5335 88.0623C75.925 87.2648 75.1219 86.8661 74.124 86.8661H71.4223C71.325 86.8661 71.2763 86.9144 71.2763 87.0111V95.3122C71.2763 95.4089 71.325 95.4572 71.4223 95.4572H74.124Z" fill="black"/>
<path d="M85.8494 87.9173C85.168 87.9173 84.6082 87.6998 84.1701 87.2648C83.732 86.8298 83.5129 86.274 83.5129 85.5973C83.5129 84.9207 83.732 84.3648 84.1701 83.9298C84.6082 83.4948 85.168 83.2773 85.8494 83.2773C86.5553 83.2773 87.1151 83.4948 87.5288 83.9298C87.9669 84.3407 88.186 84.8965 88.186 85.5973C88.186 86.274 87.9669 86.8298 87.5288 87.2648C87.0907 87.6998 86.5309 87.9173 85.8494 87.9173ZM84.4986 109.268C84.2552 109.268 84.1335 109.148 84.1335 108.906V91.1798C84.1335 90.9381 84.2552 90.8173 84.4986 90.8173H87.2733C87.5167 90.8173 87.6384 90.9381 87.6384 91.1798V108.906C87.6384 109.148 87.5167 109.268 87.2733 109.268H84.4986Z" fill="black"/>
<path d="M90.7384 109.268C90.6167 109.268 90.5316 109.232 90.4829 109.16C90.4342 109.063 90.4342 108.954 90.4829 108.833L94.9004 100.17C94.9491 100.097 94.9491 100.025 94.9004 99.9522L90.4829 91.2523C90.4585 91.2039 90.4464 91.1435 90.4464 91.071C90.4464 90.9019 90.5437 90.8173 90.7384 90.8173H93.8051C94.0242 90.8173 94.1702 90.9019 94.2432 91.071L96.9084 96.726C96.9327 96.7743 96.9692 96.7985 97.0179 96.7985C97.0666 96.7985 97.1031 96.7743 97.1274 96.726L99.829 91.071C99.9021 90.9019 100.048 90.8173 100.267 90.8173H103.297C103.419 90.8173 103.504 90.8656 103.553 90.9623C103.602 91.0348 103.602 91.1314 103.553 91.2523L99.1719 99.9522C99.1476 100.025 99.1476 100.097 99.1719 100.17L103.553 108.833C103.577 108.882 103.589 108.942 103.589 109.015C103.589 109.184 103.492 109.268 103.297 109.268H100.267C100.048 109.268 99.9021 109.184 99.829 109.015L97.1274 103.287C97.1031 103.239 97.0666 103.215 97.0179 103.215C96.9692 103.215 96.9327 103.239 96.9084 103.287L94.2067 109.015C94.1337 109.184 93.9999 109.268 93.8051 109.268H90.7384Z" fill="black"/>
<path d="M117.672 101.112C117.672 101.354 117.551 101.475 117.307 101.475H109.056C108.959 101.475 108.91 101.523 108.91 101.62V103.577C108.91 104.447 109.154 105.16 109.64 105.716C110.127 106.272 110.76 106.55 111.539 106.55C112.22 106.55 112.792 106.344 113.255 105.933C113.717 105.523 114.009 104.991 114.131 104.338C114.204 104.145 114.338 104.048 114.533 104.048L117.234 104.193C117.356 104.193 117.441 104.23 117.49 104.302C117.563 104.375 117.587 104.459 117.563 104.556C117.392 106.127 116.784 107.359 115.737 108.253C114.715 109.123 113.316 109.558 111.539 109.558C109.665 109.558 108.168 109.039 107.048 108C105.953 106.96 105.405 105.571 105.405 103.831V96.291C105.405 94.5751 105.953 93.1856 107.048 92.1223C108.168 91.0589 109.665 90.5273 111.539 90.5273C113.437 90.5273 114.934 91.0589 116.029 92.1223C117.125 93.1856 117.672 94.5751 117.672 96.291V101.112ZM111.539 93.536C110.76 93.536 110.127 93.8139 109.64 94.3697C109.154 94.9256 108.91 95.6385 108.91 96.5085V98.4297C108.91 98.5264 108.959 98.5747 109.056 98.5747H114.058C114.155 98.5747 114.204 98.5264 114.204 98.4297V96.5085C114.204 95.6385 113.961 94.9256 113.474 94.3697C112.987 93.8139 112.342 93.536 111.539 93.536Z" fill="black"/>
<path d="M121.177 109.268C120.933 109.268 120.812 109.148 120.812 108.906V84.2561C120.812 84.0144 120.933 83.8936 121.177 83.8936H123.951C124.195 83.8936 124.317 84.0144 124.317 84.2561V108.906C124.317 109.148 124.195 109.268 123.951 109.268H121.177Z" fill="black"/>
</g>
</g>
</svg>
