<svg width="146" height="52" viewBox="0 0 146 52" fill="none" xmlns="http://www.w3.org/2000/svg">
<g id="Ecoclean-01 2 1" clip-path="url(#clip0_3071_64769)">
<g id="Group">
<path id="Vector" d="M19.3078 0.602539L19.3376 0.646397L23.8722 7.7268C23.8722 7.7268 14.9123 22.3603 12.876 25.8591C10.8396 29.353 9.31493 32.3011 9.31493 34.4014C9.31493 36.5016 11.9472 43.6892 19.4965 43.6892C27.0459 43.6892 29.5242 36.6722 29.5242 34.0993C29.5242 32.1355 26.9465 26.8386 22.263 20.2796L27.0161 12.3561C27.0161 12.3561 37.6398 27.0725 37.6398 34.2991C37.6398 41.5256 32.6185 51.7783 19.4816 51.7783C6.34486 51.7783 1.01562 41.7401 1.01562 33.7971C1.01562 25.8542 19.3078 0.602539 19.3078 0.602539Z" fill="#141414"/>
<path id="Vector_2" d="M19.5457 39.6402C22.862 39.6402 25.5504 37.0025 25.5504 33.7488C25.5504 30.495 22.862 27.8574 19.5457 27.8574C16.2294 27.8574 13.541 30.495 13.541 33.7488C13.541 37.0025 16.2294 39.6402 19.5457 39.6402Z" fill="#141414"/>
<path id="Vector_3" d="M36.0744 41.4966C36.283 40.6341 36.3972 39.7374 36.3972 38.8213C36.3972 33.1492 32.2202 28.3542 26.4688 26.7656C28.4605 30.2108 29.5233 32.8422 29.5233 34.0994C29.5233 36.6724 27.045 43.6894 19.4956 43.6894C11.9463 43.6894 9.31393 36.4969 9.31393 34.4016C9.31393 34.2505 9.32386 34.0994 9.33876 33.9386C8.63349 35.4395 8.24609 37.0866 8.24609 38.8213C8.24609 45.7848 14.5488 51.4325 22.3217 51.4325C22.8332 51.4325 23.3398 51.4082 23.8415 51.3594C30.2336 50.0632 34.1274 45.9456 36.0793 41.5014L36.0744 41.4966Z" fill="#141414"/>
<path id="Vector_4" d="M47.1621 39.7028V27.9395H53.8224V30.5757H50.0974V32.408H53.7032V35.0442H50.0974V37.0616H53.8224V39.6979H47.1621V39.7028Z" fill="#141414"/>
<path id="Vector_5" d="M67.8331 35.0784C67.4855 36.4623 66.7504 37.5782 65.6279 38.431C64.5154 39.2789 63.229 39.7029 61.7738 39.7029C60.0255 39.7029 58.5355 39.1132 57.3038 37.934C56.0721 36.7498 55.4512 35.2977 55.4512 33.5824C55.4512 31.8671 56.0621 30.4248 57.2839 29.2455C58.5008 28.0809 59.9858 27.501 61.739 27.501C64.0187 27.501 65.7769 28.422 67.0136 30.2639C67.4457 30.9023 67.7189 31.5407 67.8282 32.1888H64.6147C64.0833 30.8243 63.1148 30.1421 61.7192 30.1421C60.7755 30.1421 59.9957 30.4881 59.3848 31.1752C58.7988 31.8379 58.5057 32.6371 58.5057 33.5727C58.5057 34.5083 58.7988 35.3269 59.3848 35.9994C60.0007 36.7157 60.7854 37.0715 61.7341 37.0715C63.0403 37.0715 64.0038 36.4087 64.6147 35.0833H67.8282L67.8331 35.0784Z" fill="#141414"/>
<path id="Vector_6" d="M80.2643 37.9583C79.0375 39.1229 77.5376 39.7028 75.7695 39.7028C74.0013 39.7028 72.5759 39.1327 71.3491 37.9875C70.0926 36.8278 69.4668 35.4146 69.4668 33.7432C69.4668 32.8514 69.6207 32.0133 69.9336 31.2288C70.0975 30.8097 70.3558 30.3711 70.7184 29.9082C71.965 28.3001 73.6537 27.4961 75.7893 27.4961C77.5525 27.4961 79.0425 28.0808 80.2643 29.2503C81.496 30.4247 82.1169 31.872 82.1169 33.597C82.1169 35.322 81.501 36.779 80.2643 37.9583ZM78.1684 31.1898C77.5426 30.4881 76.7529 30.1323 75.8042 30.1323C74.8556 30.1323 74.056 30.4734 73.4302 31.1557C72.8292 31.8135 72.5262 32.6127 72.5262 33.5629C72.5262 34.5131 72.8292 35.3464 73.4351 36.014C74.0609 36.7108 74.8606 37.0617 75.834 37.0617C76.8075 37.0617 77.5426 36.7108 78.1684 36.0042C78.7594 35.3367 79.0524 34.5375 79.0524 33.6068C79.0524 32.676 78.7544 31.8525 78.1684 31.1849V31.1898Z" fill="#141414"/>
<path id="Vector_7" d="M96.128 35.0784C95.7803 36.4623 95.0452 37.5782 93.9228 38.431C92.8102 39.2789 91.5239 39.7029 90.0686 39.7029C88.3204 39.7029 86.8304 39.1132 85.5986 37.934C84.3669 36.7498 83.7461 35.2977 83.7461 33.5824C83.7461 31.8671 84.357 30.4248 85.5788 29.2455C86.7956 28.0809 88.2806 27.501 90.0339 27.501C92.3136 27.501 94.0718 28.422 95.3085 30.2639C95.7406 30.9023 96.0137 31.5407 96.123 32.1888H92.9096C92.3781 30.8243 91.4096 30.1421 90.014 30.1421C89.0703 30.1421 88.2906 30.4881 87.6797 31.1752C87.0936 31.8379 86.8006 32.6371 86.8006 33.5727C86.8006 34.5083 87.0936 35.3269 87.6797 35.9994C88.2955 36.7157 89.0803 37.0715 90.0289 37.0715C91.3351 37.0715 92.2987 36.4087 92.9096 35.0833H96.123L96.128 35.0784Z" fill="#141414"/>
<path id="Vector_8" d="M97.7617 39.7028V27.9395H100.821V37.0665H104.372V39.7028H97.7617Z" fill="#141414"/>
<path id="Vector_9" d="M106.006 39.7028V27.9395H112.666V30.5757H108.941V32.408H112.547V35.0442H108.941V37.0616H112.666V39.6979H106.006V39.7028Z" fill="#141414"/>
<path id="Vector_10" d="M122.968 39.7028L122.382 38.0021H118.22L117.589 39.7028H114.301L119.109 27.9395H121.523L126.291 39.7028H122.968ZM120.341 31.599H120.291L119.059 35.6192H121.572L120.341 31.599Z" fill="#141414"/>
<path id="Vector_11" d="M135.374 39.7028L130.81 32.5493L130.77 32.5639L130.859 39.7028H127.924V27.9395H130.566L135.2 35.3366L135.23 35.3074L135.096 27.9443H138.031V39.7076H135.374V39.7028Z" fill="#141414"/>
<path id="Vector_12" d="M140.017 27.0771H139.143V26.5459H141.537V27.0771H140.663V29.4161H140.022V27.0771H140.017Z" fill="#141414"/>
<path id="Vector_13" d="M141.875 26.5459H142.779L143.465 28.5195H143.475L144.12 26.5459H145.024V29.4161H144.423V27.3841H144.413L143.698 29.4161H143.201L142.486 27.4036H142.476V29.4161H141.875V26.5459Z" fill="#141414"/>
</g>
</g>
<defs>
<clipPath id="clip0_3071_64769">
<rect width="145" height="52" fill="white" transform="translate(0.552734)"/>
</clipPath>
</defs>
</svg>
