<svg width="147" height="48" viewBox="0 0 147 48" fill="none" xmlns="http://www.w3.org/2000/svg">
<g id="Logo">
<path id="Vector" d="M88.238 21.343C91.7061 14.7673 95.1775 8.17992 98.6522 1.58101C99.9515 -0.898545 104.454 -0.0654062 104.911 2.59763C105.035 3.35142 104.782 4.34324 104.142 5.57309C100.145 13.2696 96.1329 20.9513 92.1062 28.618C91.7577 29.2686 91.569 29.9927 91.5557 30.7306C91.44 35.5211 91.4086 40.3149 91.4615 45.112C91.4912 48.1371 88.3868 48.3156 86.2643 47.6858C84.8708 47.2742 84.6576 46.2526 84.6625 44.8492C84.6625 40.1513 84.6493 35.4517 84.6229 30.7505C84.6198 30.0275 84.441 29.3162 84.1022 28.6776C79.9365 20.743 75.7709 12.7969 71.6052 4.83914C70.0034 1.78433 72.8747 -0.586118 75.6717 0.127993C76.0447 0.215414 76.3941 0.383177 76.6956 0.619575C76.9971 0.855974 77.2434 1.15532 77.4173 1.49671L87.9802 21.3331C88.0645 21.5017 88.1537 21.5017 88.243 21.3331L88.238 21.343Z" fill="#141414"/>
<path id="Vector_2" d="M6.90246 45.2118C6.90246 45.8957 6.63077 46.5516 6.14717 47.0352C5.66356 47.5188 5.00765 47.7905 4.32373 47.7905H2.61779C1.93387 47.7905 1.27796 47.5188 0.794358 47.0352C0.310752 46.5516 0.0390625 45.8957 0.0390625 45.2118V3.2379C0.0390625 2.55398 0.310752 1.89808 0.794358 1.41447C1.27796 0.930865 1.93387 0.65918 2.61779 0.65918H4.32373C5.00765 0.65918 5.66356 0.930865 6.14717 1.41447C6.63077 1.89808 6.90246 2.55398 6.90246 3.2379V45.2118Z" fill="#141414"/>
<path id="Vector_3" d="M31.8322 45.1069C31.8322 45.4716 31.7604 45.8327 31.6208 46.1696C31.4812 46.5065 31.2767 46.8127 31.0188 47.0706C30.7609 47.3284 30.4548 47.533 30.1178 47.6726C29.7809 47.8121 29.4198 47.884 29.0551 47.884H27.6169C27.2523 47.884 26.8911 47.8121 26.5542 47.6726C26.2173 47.533 25.9111 47.3284 25.6532 47.0706C25.3954 46.8127 25.1908 46.5065 25.0512 46.1696C24.9117 45.8327 24.8398 45.4716 24.8398 45.1069V3.42066C24.8398 3.05596 24.9117 2.69483 25.0512 2.3579C25.1908 2.02097 25.3954 1.71482 25.6532 1.45695C25.9111 1.19907 26.2173 0.994508 26.5542 0.854946C26.8911 0.715384 27.2523 0.643555 27.6169 0.643555H29.0551C29.4198 0.643555 29.7809 0.715384 30.1178 0.854946C30.4548 0.994508 30.7609 1.19907 31.0188 1.45695C31.2767 1.71482 31.4812 2.02097 31.6208 2.3579C31.7604 2.69483 31.8322 3.05596 31.8322 3.42066V45.1069Z" fill="#141414"/>
<path id="Vector_4" d="M126.511 7.02662C126.435 6.8018 126.361 6.8018 126.288 7.02662L113.349 46.5457C113.249 46.906 113.043 47.2277 112.757 47.4692C112.471 47.7106 112.12 47.8606 111.748 47.8996C109.323 48.2665 106.045 47.1755 106.918 44.0562C109.893 33.3148 114.703 20.0542 120.386 2.96015C121.334 0.11362 127.681 0.386376 129.749 0.85749C131.629 1.28397 132.546 2.93535 133.176 4.82477C137.279 17.2887 141.352 29.7591 145.395 42.2362C145.742 43.3025 146.194 44.2645 146.035 45.4051C145.732 47.5723 142.945 48.1872 141.15 47.9541C140.826 47.9261 140.517 47.8043 140.26 47.6035C140.004 47.4027 139.812 47.1317 139.707 46.8234C139.01 45.015 138.362 43.1818 137.763 41.3238C134.06 29.8782 130.31 18.4458 126.511 7.02662Z" fill="#141414"/>
<path id="Vector_5" d="M47.3742 7.05071L47.4784 41.5314C47.4784 41.5892 47.5014 41.6447 47.5423 41.6856C47.5832 41.7266 47.6387 41.7496 47.6966 41.7496H66.1147C66.3793 41.7374 66.6414 41.8051 66.8669 41.944C67.0925 42.0829 67.271 42.2864 67.3792 42.5281C67.6863 43.1127 67.8703 43.7541 67.9198 44.4126C67.9692 45.071 67.8832 45.7327 67.6669 46.3566C67.5739 46.721 67.3565 47.0414 67.0522 47.2624C66.7479 47.4834 66.3759 47.591 66.0006 47.5666C58.9653 47.5666 51.8473 47.5666 44.6467 47.5666C42.4796 47.5666 40.5307 46.8227 40.5257 44.4473C40.4992 31.4479 40.4992 18.4467 40.5257 5.44397C40.5257 2.52306 41.1605 0.906395 44.3293 0.876641C50.5778 0.82705 56.8263 0.815475 63.0747 0.841923C65.7427 0.841923 67.042 1.2089 66.8684 4.18932C66.7693 5.96468 65.8783 6.84574 64.1955 6.83251C58.6644 6.78292 53.1334 6.78292 47.6023 6.83251C47.5726 6.83251 47.5432 6.83844 47.5158 6.84996C47.4884 6.86149 47.4635 6.87838 47.4428 6.89963C47.422 6.92088 47.4056 6.94606 47.3947 6.97371C47.3838 7.00136 47.3785 7.03092 47.3792 7.06064L47.3742 7.05071Z" fill="#141414"/>
<path id="Vector_6" d="M20.6101 23.2875C20.6101 24.234 20.3295 25.1592 19.8036 25.9462C19.2778 26.7332 18.5304 27.3465 17.6559 27.7087C16.7815 28.0709 15.8193 28.1657 14.891 27.9811C13.9627 27.7964 13.11 27.3406 12.4407 26.6714C11.7714 26.0021 11.3157 25.1494 11.131 24.2211C10.9464 23.2928 11.0411 22.3306 11.4033 21.4561C11.7655 20.5817 12.3789 19.8343 13.1659 19.3085C13.9529 18.7826 14.8781 18.502 15.8246 18.502C17.0938 18.502 18.311 19.0061 19.2085 19.9036C20.1059 20.8011 20.6101 22.0183 20.6101 23.2875Z" fill="#141414"/>
<path id="Vector_7" d="M62.3938 23.2926C62.3938 24.242 62.1123 25.1701 61.5848 25.9596C61.0573 26.749 60.3076 27.3643 59.4304 27.7276C58.5533 28.0909 57.5881 28.186 56.6569 28.0008C55.7257 27.8156 54.8703 27.3584 54.199 26.687C53.5276 26.0157 53.0704 25.1603 52.8852 24.2291C52.7 23.2979 52.7951 22.3327 53.1584 21.4556C53.5217 20.5784 54.137 19.8287 54.9264 19.3012C55.7158 18.7737 56.644 18.4922 57.5934 18.4922C58.8665 18.4922 60.0875 18.9979 60.9878 19.8982C61.888 20.7984 62.3938 22.0194 62.3938 23.2926Z" fill="#141414"/>
<path id="Vector_8" d="M130.761 33.4831C130.761 34.358 130.502 35.2132 130.016 35.9407C129.53 36.6681 128.839 37.2351 128.03 37.5699C127.222 37.9047 126.333 37.9923 125.475 37.8216C124.617 37.6509 123.828 37.2296 123.21 36.611C122.591 35.9923 122.17 35.2042 121.999 34.3461C121.828 33.488 121.916 32.5986 122.251 31.7903C122.586 30.982 123.153 30.2911 123.88 29.8051C124.607 29.319 125.463 29.0596 126.338 29.0596C127.511 29.0596 128.636 29.5256 129.465 30.3552C130.295 31.1848 130.761 32.3099 130.761 33.4831Z" fill="#141414"/>
</g>
</svg>
