<svg width="81" height="80" viewBox="0 0 81 80" fill="none" xmlns="http://www.w3.org/2000/svg">
<g id="adease" clip-path="url(#clip0_3071_64724)">
<path id="Vector" d="M12.3181 69.5208C12.3906 69.7386 12.4391 69.908 12.4632 70.0532C12.4874 70.1742 12.4632 70.271 12.3906 70.3436C12.3181 70.4162 12.1729 70.4404 12.0035 70.4646C11.8342 70.4888 11.5439 70.4888 11.2295 70.4888C10.8908 70.4888 10.6005 70.4888 10.407 70.4646C10.2134 70.4646 10.0683 70.4404 9.97154 70.4162C9.87472 70.392 9.80215 70.3436 9.75383 70.2952C9.70542 70.2468 9.68126 70.1742 9.65701 70.1016L8.76199 67.7058H3.7786L2.93191 70.029C2.90772 70.1258 2.85934 70.1984 2.83515 70.2468C2.78677 70.2952 2.71419 70.3436 2.61743 70.392C2.52066 70.4162 2.37552 70.4404 2.20618 70.4646C2.03684 70.4888 1.79493 70.4888 1.50464 70.4888C1.19015 70.4888 0.948243 70.4888 0.778903 70.4646C0.609565 70.4404 0.48861 70.392 0.416036 70.3194C0.319272 70.2468 0.295081 70.15 0.319272 70.0048C0.343463 69.8838 0.391845 69.7144 0.464419 69.4966L4.52852 58.9215C4.5769 58.8247 4.62529 58.7279 4.67367 58.6795C4.72206 58.6069 4.81882 58.5585 4.93977 58.5343C5.06073 58.5101 5.23006 58.4859 5.4236 58.4617C5.64131 58.4617 5.90742 58.4375 6.27028 58.4375C6.68153 58.4375 6.99601 58.4375 7.23792 58.4617C7.47984 58.4617 7.67337 58.4859 7.79432 58.5343C7.91528 58.5585 8.01205 58.6069 8.08462 58.6795C8.133 58.7521 8.18138 58.8489 8.22975 58.9457L12.3181 69.5208ZM6.2461 60.7606L4.35919 65.8183H8.10881L6.2461 60.7606Z" fill="#141414"/>
<path id="Vector_2" d="M27.2437 64.2693C27.2437 65.3583 27.0744 66.302 26.7599 67.0764C26.4454 67.8507 25.9858 68.48 25.4052 68.9881C24.8246 69.4721 24.0989 69.8352 23.2522 70.0771C22.4055 70.3191 21.3895 70.4159 20.2283 70.4159H17.0834C16.8657 70.4159 16.6722 70.3675 16.527 70.2465C16.3819 70.1255 16.2852 69.9319 16.2852 69.6657V59.26C16.2852 58.9938 16.3577 58.8002 16.527 58.6792C16.6722 58.5582 16.8657 58.5098 17.0834 58.5098H20.4702C21.6556 58.5098 22.6474 58.6308 23.4699 58.8728C24.2924 59.1148 24.9697 59.502 25.5503 59.9859C26.1067 60.4699 26.5421 61.0749 26.8325 61.8009C27.1228 62.5269 27.2437 63.3255 27.2437 64.2693ZM24.4617 64.3661C24.4617 63.8094 24.3892 63.2771 24.244 62.7931C24.0989 62.3091 23.857 61.8977 23.5425 61.5347C23.228 61.1717 22.7926 60.9055 22.2845 60.712C21.7765 60.5183 21.1234 60.4215 20.2767 60.4215H18.922V68.5284H20.3251C21.0508 68.5284 21.6798 68.4316 22.1878 68.2622C22.6958 68.0928 23.107 67.8266 23.4457 67.4878C23.7844 67.1489 24.0263 66.7134 24.1956 66.181C24.365 65.6486 24.4617 65.0436 24.4617 64.3661Z" fill="#141414"/>
<path id="Vector_3" d="M39.3637 69.4721C39.3637 69.6415 39.3637 69.8109 39.3395 69.9077C39.3154 70.0287 39.2911 70.1255 39.267 70.1981C39.2428 70.2707 39.1944 70.3191 39.146 70.3675C39.0976 70.3917 39.0492 70.4159 38.9767 70.4159H32.3483C32.1305 70.4159 31.9371 70.3675 31.7919 70.2465C31.6468 70.1255 31.5742 69.9319 31.5742 69.6657V59.26C31.5742 58.9938 31.6468 58.8002 31.7919 58.6792C31.9371 58.5582 32.1305 58.5098 32.3483 58.5098H38.9525C39.0251 58.5098 39.0734 58.534 39.1218 58.5582C39.1702 58.5824 39.2185 58.6308 39.2428 58.7276C39.267 58.8002 39.2911 58.897 39.3154 59.018C39.3395 59.139 39.3395 59.2842 39.3395 59.4778C39.3395 59.6472 39.3395 59.7924 39.3154 59.9134C39.2911 60.0343 39.267 60.1312 39.2428 60.2037C39.2185 60.2764 39.1702 60.3248 39.1218 60.3732C39.0734 60.3974 39.0251 60.4215 38.9525 60.4215H34.2352V63.3255H38.2267C38.2993 63.3255 38.3477 63.3497 38.3961 63.3738C38.4444 63.3981 38.4928 63.4707 38.517 63.5191C38.5412 63.5916 38.5654 63.6885 38.5896 63.8094C38.6138 63.9305 38.6138 64.0756 38.6138 64.245C38.6138 64.4144 38.6138 64.5596 38.5896 64.6806C38.5654 64.8017 38.5412 64.8984 38.517 64.9711C38.4928 65.0436 38.4444 65.092 38.3961 65.1162C38.3477 65.1405 38.2993 65.1646 38.2267 65.1646H34.2352V68.5284H39.0008C39.0734 68.5284 39.1218 68.5525 39.1702 68.5768C39.2185 68.6009 39.267 68.6735 39.2911 68.7462C39.3154 68.8187 39.3395 68.9156 39.3637 69.0365C39.3637 69.1334 39.3637 69.2785 39.3637 69.4721Z" fill="#141414"/>
<path id="Vector_4" d="M54.3852 69.521C54.4578 69.7388 54.5062 69.9083 54.5304 70.0534C54.5546 70.1744 54.5304 70.2712 54.4578 70.3438C54.3852 70.4164 54.2401 70.4406 54.0708 70.4649C53.9014 70.489 53.6111 70.489 53.2967 70.489C52.958 70.489 52.6677 70.489 52.4741 70.4649C52.2807 70.4649 52.1354 70.4406 52.0387 70.4164C51.942 70.3922 51.8694 70.3438 51.821 70.2955C51.7726 70.2471 51.7484 70.1744 51.7243 70.1018L50.8292 67.7061H45.87L45.0233 70.0293C44.9991 70.1261 44.9507 70.1986 44.9265 70.2471C44.8781 70.2955 44.8056 70.3439 44.7088 70.3922C44.6121 70.4164 44.4669 70.4406 44.2976 70.4649C44.1283 70.489 43.8863 70.489 43.596 70.489C43.2816 70.489 43.0396 70.489 42.8703 70.4649C42.701 70.4406 42.58 70.3922 42.5074 70.3196C42.4349 70.2471 42.4106 70.1502 42.4349 70.0293C42.459 69.9083 42.5074 69.7388 42.58 69.521L46.6441 58.9459C46.6925 58.8491 46.7408 58.7524 46.7892 58.704C46.8377 58.6313 46.9344 58.5829 47.0554 58.5587C47.1763 58.5346 47.3457 58.5103 47.5392 58.4862C47.7569 58.4862 48.023 58.4619 48.3859 58.4619C48.7971 58.4619 49.1116 58.4619 49.3535 58.4862C49.5954 58.4862 49.7889 58.5103 49.9099 58.5587C50.0309 58.6071 50.1276 58.6313 50.2002 58.704C50.2728 58.7765 50.297 58.8733 50.3453 58.9701L54.3852 69.521ZM48.3375 60.7609L46.4505 65.8186H50.2002L48.3375 60.7609Z" fill="#141414"/>
<path id="Vector_5" d="M66.1675 66.8346C66.1675 67.4638 66.0465 68.0203 65.7805 68.4802C65.5144 68.9642 65.1757 69.3513 64.7402 69.6659C64.3048 69.9805 63.7726 70.2225 63.192 70.3919C62.6114 70.5613 61.9583 70.6339 61.2809 70.6339C60.8213 70.6339 60.41 70.6097 59.9988 70.5371C59.5875 70.4645 59.273 70.3919 58.9586 70.2951C58.6682 70.1983 58.4022 70.1015 58.2086 70.0047C58.0151 69.9079 57.8699 69.8111 57.7732 69.7385C57.6764 69.6659 57.6281 69.5449 57.5797 69.3997C57.5313 69.2545 57.5312 69.0367 57.5312 68.7464C57.5312 68.5527 57.5313 68.4075 57.5555 68.2624C57.5797 68.1414 57.5797 68.0203 57.6281 67.9477C57.6522 67.8752 57.7006 67.8025 57.749 67.7784C57.7974 67.7541 57.8699 67.73 57.9184 67.73C58.0151 67.73 58.1361 67.7784 58.3296 67.8752C58.4989 67.9719 58.7166 68.093 59.0069 68.214C59.273 68.3349 59.6117 68.4559 59.9746 68.5527C60.3616 68.6495 60.797 68.698 61.2809 68.698C61.6196 68.698 61.9099 68.6737 62.1518 68.6011C62.4179 68.5286 62.6356 68.4317 62.805 68.3108C62.9743 68.1897 63.1194 68.0203 63.2162 67.8268C63.313 67.6331 63.3614 67.4153 63.3614 67.1975C63.3614 66.9313 63.2888 66.6894 63.1194 66.4958C62.9501 66.3022 62.7324 66.1328 62.4904 65.9876C62.2244 65.8424 61.934 65.6972 61.5954 65.552C61.2567 65.4069 60.918 65.2858 60.5552 65.1406C60.1923 64.9954 59.8536 64.826 59.5149 64.6324C59.1763 64.4389 58.886 64.2211 58.6199 63.9549C58.3538 63.6886 58.1361 63.374 57.9909 63.0353C57.8216 62.6723 57.749 62.2609 57.749 61.7527C57.749 61.1719 57.8699 60.6879 58.1119 60.2523C58.3538 59.8167 58.6682 59.4538 59.0553 59.1633C59.4424 58.873 59.9262 58.6552 60.4584 58.5342C60.9906 58.4132 61.5712 58.3164 62.176 58.3164C62.4904 58.3164 62.805 58.3406 63.1194 58.389C63.4339 58.4374 63.7242 58.4858 63.9903 58.5584C64.2564 58.631 64.4984 58.7036 64.7161 58.8004C64.9338 58.8972 65.0547 58.9698 65.1272 59.0424C65.1999 59.1149 65.2482 59.1633 65.2725 59.1876C65.2966 59.2118 65.3208 59.2844 65.345 59.357C65.3692 59.4295 65.3692 59.5264 65.3692 59.6232C65.3692 59.72 65.3692 59.8651 65.3692 60.0345C65.3692 60.2039 65.3692 60.3733 65.345 60.4944C65.345 60.6153 65.3208 60.7122 65.2966 60.8089C65.2725 60.9057 65.2482 60.9541 65.1998 60.9784C65.1515 61.0267 65.1031 61.0267 65.0305 61.0267C64.9579 61.0267 64.837 60.9784 64.6677 60.9057C64.4984 60.8089 64.3048 60.7363 64.0629 60.6153C63.821 60.5185 63.5548 60.4217 63.2404 60.3491C62.9259 60.2766 62.5872 60.2282 62.2001 60.2282C61.9099 60.2282 61.6437 60.2523 61.426 60.325C61.2083 60.3975 61.0148 60.4701 60.8696 60.5912C60.7245 60.7122 60.6036 60.8331 60.531 61.0025C60.4584 61.1719 60.4342 61.3413 60.4342 61.5107C60.4342 61.7769 60.5068 61.9947 60.6761 62.1883C60.8455 62.3819 61.039 62.5513 61.3293 62.6965C61.5954 62.8417 61.9099 62.9868 62.2486 63.1321C62.5873 63.2531 62.9259 63.3983 63.2888 63.5434C63.6517 63.6887 63.9904 63.858 64.329 64.0517C64.6677 64.2452 64.9821 64.463 65.2482 64.7292C65.5144 64.9954 65.7321 65.2858 65.9014 65.6488C66.0949 65.9392 66.1675 66.3506 66.1675 66.8346Z" fill="#141414"/>
<path id="Vector_6" d="M78.1411 69.4721C78.1411 69.6415 78.1411 69.8109 78.117 69.9077C78.0928 70.0287 78.0685 70.1255 78.0444 70.1981C78.0201 70.2707 77.9718 70.3191 77.9234 70.3675C77.875 70.4159 77.8267 70.4159 77.7541 70.4159H71.1257C70.908 70.4159 70.7144 70.3675 70.5693 70.2465C70.4241 70.1255 70.3516 69.9319 70.3516 69.6657V59.26C70.3516 58.9938 70.4241 58.8002 70.5693 58.6792C70.7144 58.5582 70.908 58.5098 71.1257 58.5098H77.7057C77.7783 58.5098 77.8267 58.534 77.875 58.5582C77.9234 58.5824 77.9718 58.6308 77.996 58.7276C78.0201 58.8002 78.0444 58.897 78.0685 59.018C78.0927 59.139 78.0927 59.2842 78.0927 59.4778C78.0927 59.6472 78.0927 59.7924 78.0685 59.9134C78.0444 60.0343 78.0201 60.1312 77.996 60.2037C77.9718 60.2764 77.9234 60.3248 77.875 60.3732C77.8267 60.3974 77.7783 60.4215 77.7057 60.4215H72.9884V63.3255H76.98C77.0525 63.3255 77.101 63.3497 77.1493 63.3738C77.1977 63.3981 77.2461 63.4707 77.2703 63.5191C77.2944 63.5916 77.3187 63.6885 77.3428 63.8094C77.367 63.9305 77.367 64.0756 77.367 64.245C77.367 64.4144 77.367 64.5596 77.3428 64.6806C77.3187 64.8017 77.2944 64.8984 77.2703 64.9711C77.2461 65.0436 77.1977 65.092 77.1493 65.1162C77.101 65.1405 77.0525 65.1646 76.98 65.1646H72.9884V68.5284H77.7541C77.8267 68.5284 77.875 68.5525 77.9234 68.5768C77.9718 68.6009 78.0201 68.6735 78.0444 68.7462C78.0685 68.8187 78.0928 68.9156 78.117 69.0365C78.1411 69.1334 78.1411 69.2785 78.1411 69.4721Z" fill="#141414"/>
<path id="Vector_7" d="M43.3549 30.8259C43.4274 25.9377 41.8549 21.0493 38.7343 17.0807C38.686 17.0081 38.6376 16.9355 38.5891 16.887C34.9363 12.3134 29.4691 9.26427 23.2762 8.82868C23.252 8.82868 23.2278 8.82868 23.1794 8.82868C22.865 8.80444 22.5504 8.80444 22.236 8.78027C22.1876 8.78027 22.1392 8.78027 22.0909 8.78027C21.9699 8.78027 21.8489 8.78027 21.728 8.78027C21.5344 8.78027 21.3651 8.78027 21.1716 8.78027C21.1716 8.78027 21.1716 8.78027 21.1473 8.78027C20.8087 8.78027 20.4942 8.80444 20.1555 8.82868C20.1313 8.82868 20.1313 8.82868 20.1072 8.82868C19.7685 8.85285 19.454 8.87709 19.1153 8.9255H19.0911C18.7767 8.97391 18.438 9.02223 18.1235 9.07064H18.0993C17.7848 9.11905 17.4461 9.1917 17.1317 9.26427C17.1074 9.26427 17.0833 9.26427 17.0591 9.28844C16.7446 9.36109 16.4543 9.43366 16.164 9.50623C16.1156 9.50623 16.0914 9.53048 16.043 9.53048C15.777 9.60305 15.4867 9.67562 15.2206 9.77244C15.148 9.79668 15.0754 9.82085 15.0029 9.84509C14.7609 9.91766 14.5432 9.99023 14.3255 10.087C14.2046 10.1355 14.0836 10.1839 13.9626 10.2323C13.8175 10.2806 13.6965 10.3533 13.5513 10.4017C10.2372 11.7568 7.23749 13.9106 4.84257 16.887C2.83471 19.4038 1.48001 22.211 0.730085 25.139C0.730085 25.1875 0.705894 25.2359 0.705894 25.2843C0.633321 25.5505 0.584938 25.8167 0.536556 26.0829C0.512365 26.2039 0.488174 26.3248 0.463983 26.4458C0.415601 26.6395 0.39141 26.8573 0.367218 27.0508C0.343027 27.2202 0.318836 27.4138 0.294645 27.5832C0.270454 27.7284 0.246263 27.8736 0.246263 28.0188C0.222072 28.2366 0.197881 28.4786 0.17369 28.7206C0.17369 28.8174 0.149498 28.9142 0.149498 28.9868C0.0769255 29.2772 0.0769255 29.5675 0.0527344 29.8337C0.0527344 29.8822 0.0527344 29.9306 0.0527344 29.9547V29.979C0.0527344 30.2936 0.0527344 30.6324 0.0527344 30.9469C0.0527344 30.9711 0.0527344 30.9953 0.0527344 30.9953C0.0769255 32.0601 0.17369 33.1007 0.367218 34.117V34.1413C0.415601 34.4559 0.488174 34.7946 0.560747 35.1093C0.560747 35.1577 0.584938 35.206 0.584938 35.2786C0.657512 35.5448 0.705894 35.811 0.778467 36.0772C0.802658 36.1982 0.851041 36.3434 0.89942 36.4644C0.923616 36.5612 0.947804 36.658 0.972 36.7548C2.25412 40.9897 4.81838 44.8616 8.59216 47.7413C10.0921 48.8786 11.6645 49.7741 13.3095 50.4759L13.3336 50.4516C15.9463 51.5648 18.8492 52.1698 21.8731 52.1456C23.6149 52.1214 25.3324 51.9036 26.9532 51.5164C27.1468 51.468 27.2678 51.2986 27.2678 51.105V49.7498C27.2678 46.7008 24.7761 44.2324 21.728 44.2324H21.7038C13.1885 44.2324 6.46338 36.4644 8.25355 27.6074C9.05184 23.7839 12.1483 20.033 15.8011 18.1213C15.8011 18.1213 15.8253 18.1213 15.8253 18.097C19.3815 16.5725 23.881 16.403 27.2435 17.8792C27.2678 17.9035 27.2919 17.9035 27.3403 17.9276C27.4612 17.976 27.6064 18.0487 27.7273 18.1213C32.5656 20.5412 35.2024 25.139 35.4202 29.8822C35.4202 29.9063 35.4202 29.9547 35.4202 29.979V31.1647C35.4202 31.1889 35.4202 31.2373 35.4202 31.2615C35.4202 31.2857 35.4202 31.3099 35.4202 31.3583V51.7826C35.4202 51.9762 35.5895 52.1456 35.783 52.1456C39.9681 52.1456 43.379 48.7577 43.379 44.547V30.8986C43.379 30.8743 43.3549 30.8502 43.3549 30.8259Z" fill="#141414"/>
<path id="Vector_8" d="M80.0532 22.4773H56.2734C51.8948 22.4773 48.3145 18.92 48.3145 14.5156H72.0944C76.4971 14.5156 80.0532 18.0729 80.0532 22.4773Z" fill="#141414"/>
<path id="Vector_9" d="M79.6423 31.334C79.6423 33.5361 77.8521 35.3027 75.6749 35.3027H50.0081C48.8712 35.3027 47.9277 34.3831 47.9277 33.2216V28.9625C47.9277 28.067 48.6534 27.3652 49.5243 27.3652H75.6749C77.8763 27.3652 79.6423 29.156 79.6423 31.334Z" fill="#141414"/>
<path id="Vector_10" d="M79.5923 40.2402C79.5923 44.6203 76.0361 48.2019 71.6334 48.2019H47.8535C47.8535 43.8218 51.4096 40.2402 55.8124 40.2402H79.5923Z" fill="#141414"/>
<path id="Vector_11" d="M21.7286 37.8928C25.6432 37.8928 28.8166 34.7183 28.8166 30.8024C28.8166 26.8864 25.6432 23.7119 21.7286 23.7119C17.814 23.7119 14.6406 26.8864 14.6406 30.8024C14.6406 34.7183 17.814 37.8928 21.7286 37.8928Z" fill="#141414"/>
</g>
<defs>
<clipPath id="clip0_3071_64724">
<rect width="80" height="80" fill="white" transform="translate(0.0527344)"/>
</clipPath>
</defs>
</svg>
