<svg width="94" height="50" viewBox="0 0 94 50" fill="none" xmlns="http://www.w3.org/2000/svg">
<g id="Logo">
<path id="Vector" d="M17.2485 0V21.6462C17.3163 23.1838 16.7894 24.6881 15.7779 25.8448C15.1652 26.5068 14.417 27.028 13.5848 27.3726C12.7525 27.7172 11.8559 27.8771 10.9564 27.8413C10.0567 27.8779 9.15983 27.7184 8.32748 27.3737C7.49513 27.0291 6.74706 26.5075 6.13476 25.8448C5.12333 24.6881 4.59643 23.1838 4.66418 21.6462V0H0.0595627V21.6462C0.00860385 22.9954 0.24333 24.3401 0.748243 25.5916C1.25316 26.843 2.01677 27.9727 2.98868 28.906C5.16916 30.9032 8.04255 31.9631 10.9925 31.8583C12.4536 31.9182 13.912 31.687 15.2837 31.1782C16.6553 30.6694 17.913 29.8931 18.9843 28.8939C19.9517 27.9565 20.7131 26.8264 21.2196 25.5762C21.7261 24.3259 21.9665 22.9832 21.9255 21.6342V0H17.2485Z" fill="#008253"/>
<path id="Vector_2" d="M50.3239 8.69961V23.6669C50.3726 24.2576 50.2898 24.8519 50.0813 25.4065C49.8728 25.9611 49.5439 26.4621 49.1185 26.8733C48.2712 27.5365 47.2276 27.8968 46.1532 27.8968C45.0788 27.8968 44.0351 27.5365 43.1879 26.8733C42.769 26.4588 42.4468 25.9563 42.2446 25.4018C42.0424 24.8474 41.9653 24.2548 42.0187 23.6669V8.6875H37.5225V23.6669C37.5713 24.2576 37.4885 24.8519 37.28 25.4065C37.0715 25.9611 36.7426 26.4621 36.3171 26.8733C35.4699 27.5365 34.4263 27.8968 33.3519 27.8968C32.2774 27.8968 31.2338 27.5365 30.3866 26.8733C29.9612 26.4621 29.6323 25.9611 29.4238 25.4065C29.2153 24.8519 29.1324 24.2576 29.1812 23.6669V8.6875H24.7092V23.6669C24.7016 24.7771 24.9287 25.8764 25.3754 26.8921C25.8221 27.9078 26.4783 28.8169 27.3008 29.5594C28.9325 31.0894 31.0953 31.9188 33.3278 31.8704C35.4797 31.837 37.5355 30.9699 39.0654 29.4505C39.3083 29.2121 39.5302 28.953 39.7284 28.6761C39.9265 28.9606 40.1483 29.2278 40.3914 29.4747C41.1367 30.2444 42.0289 30.8554 43.0147 31.2712C44.0005 31.687 45.0598 31.899 46.1291 31.8946C48.3637 31.9561 50.5314 31.1249 52.1561 29.5836C52.9887 28.8401 53.6562 27.9291 54.1152 26.9097C54.5741 25.8904 54.8143 24.7855 54.82 23.6669V8.6875L50.3239 8.69961Z" fill="#008253"/>
<path id="Vector_3" d="M71.3951 10.9985C69.7662 9.464 67.6015 8.63393 65.3681 8.6875H60.1006L60.1729 12.2569V12.6683H65.332C66.4172 12.6284 67.4784 12.9949 68.3093 13.6967C69.0446 14.3501 69.4303 15.7053 69.5147 17.7138C68.3355 16.7667 66.8663 16.258 65.3561 16.274C64.2785 16.2346 63.2038 16.4101 62.1941 16.7901C61.1845 17.1702 60.2599 17.7473 59.4738 18.4882C58.706 19.1999 58.0949 20.0648 57.6798 21.0275C57.2646 21.9901 57.0545 23.0293 57.063 24.0782C57.0408 26.1228 57.8251 28.0931 59.2447 29.5594C60.0318 30.3479 60.9748 30.9621 62.0129 31.3622C63.051 31.7624 64.1612 31.9396 65.2717 31.8825C66.7827 31.944 68.2633 31.4443 69.4303 30.479V31.8825H73.9385V16.8911C73.9462 15.7853 73.7239 14.6901 73.286 13.6755C72.848 12.6609 72.204 11.7491 71.3951 10.9985ZM69.4424 24.1266C69.4305 24.6378 69.3179 25.1416 69.111 25.6089C68.9041 26.0761 68.607 26.4977 68.237 26.8491C67.8463 27.2203 67.3833 27.5066 66.8772 27.6898C66.3711 27.873 65.8327 27.9493 65.2958 27.9138C64.7797 27.9443 64.2628 27.8677 63.7775 27.6886C63.2922 27.5096 62.8488 27.232 62.4752 26.8733C61.7763 26.1151 61.4038 25.1106 61.4385 24.0782C61.4315 23.5702 61.5279 23.0661 61.722 22.5968C61.9161 22.1276 62.2038 21.7031 62.5673 21.3496C62.9308 20.996 63.3625 20.7208 63.8359 20.5408C64.3093 20.3609 64.8143 20.28 65.3199 20.3032C66.3788 20.2859 67.406 20.6655 68.2008 21.3679C68.6025 21.7033 68.923 22.1259 69.1381 22.6038C69.3532 23.0817 69.4572 23.6024 69.4424 24.1266Z" fill="#008253"/>
<path id="Vector_4" d="M89.2237 8.6875V23.7395C89.2691 24.3299 89.1846 24.9232 88.9763 25.4773C88.768 26.0313 88.441 26.5327 88.0183 26.9459C87.1992 27.6047 86.1809 27.9637 85.1313 27.9637C84.0817 27.9637 83.0635 27.6047 82.2444 26.9459C81.8217 26.5327 81.4946 26.0313 81.2863 25.4773C81.078 24.9232 80.9936 24.3299 81.039 23.7395V8.6875H76.7116V23.7395C76.697 24.8469 76.9149 25.945 77.351 26.9623C77.7871 27.9796 78.4318 28.8934 79.243 29.6441C80.8351 31.1676 82.9622 31.9982 85.1615 31.9551C86.6414 32.0333 88.095 31.5398 89.2237 30.5758V31.943C89.2682 32.5334 89.1834 33.1264 88.9752 33.6804C88.7669 34.2343 88.4403 34.7358 88.0183 35.1494C87.2067 35.8353 86.1739 36.201 85.1132 36.1779H80.4966L78.8572 39.6626V40.1708H85.1856C86.2787 40.2015 87.3668 40.0117 88.3855 39.6127C89.4042 39.2136 90.3327 38.6134 91.1161 37.8476C91.9197 37.0909 92.5592 36.176 92.9947 35.1601C93.4303 34.1442 93.6525 33.049 93.6475 31.943V8.6875H89.2237Z" fill="#008253"/>
<g id="Pixel">
<path d="M30.923 34.9404C31.6984 34.9404 32.3227 35.2223 32.7959 35.7862C33.2792 36.34 33.5209 37.0701 33.5209 37.9763C33.5209 38.8624 33.2893 39.5773 32.8261 40.1211C32.3629 40.6648 31.7537 40.9367 30.9985 40.9367H29.5788C29.5385 40.9367 29.5183 40.9568 29.5183 40.9971V45.3773C29.5183 45.478 29.468 45.5283 29.3673 45.5283H28.2194C28.1187 45.5283 28.0684 45.478 28.0684 45.3773V35.0914C28.0684 34.9907 28.1187 34.9404 28.2194 34.9404H30.923ZM30.6965 39.7737C31.1093 39.7737 31.4416 39.6176 31.6933 39.3055C31.9451 38.9832 32.0709 38.5503 32.0709 38.0065C32.0709 37.4527 31.9451 37.0147 31.6933 36.6925C31.4416 36.3602 31.1093 36.194 30.6965 36.194H29.5788C29.5385 36.194 29.5183 36.2142 29.5183 36.2544V39.7133C29.5183 39.7535 29.5385 39.7737 29.5788 39.7737H30.6965Z" fill="black"/>
<path d="M35.5474 36.632C35.2655 36.632 35.0339 36.5414 34.8527 36.3602C34.6714 36.1789 34.5808 35.9473 34.5808 35.6654C34.5808 35.3834 34.6714 35.1519 34.8527 34.9706C35.0339 34.7894 35.2655 34.6987 35.5474 34.6987C35.8395 34.6987 36.071 34.7894 36.2422 34.9706C36.4235 35.1418 36.5141 35.3734 36.5141 35.6654C36.5141 35.9473 36.4235 36.1789 36.2422 36.3602C36.061 36.5414 35.8294 36.632 35.5474 36.632ZM34.9886 45.5283C34.8879 45.5283 34.8376 45.478 34.8376 45.3773V37.9914C34.8376 37.8907 34.8879 37.8404 34.9886 37.8404H36.1365C36.2372 37.8404 36.2875 37.8907 36.2875 37.9914V45.3773C36.2875 45.478 36.2372 45.5283 36.1365 45.5283H34.9886Z" fill="black"/>
<path d="M37.5701 45.5283C37.5197 45.5283 37.4845 45.5132 37.4644 45.483C37.4442 45.4427 37.4442 45.3974 37.4644 45.3471L39.2919 41.7372C39.3121 41.707 39.3121 41.6768 39.2919 41.6466L37.4644 38.0216C37.4543 38.0015 37.4493 37.9763 37.4493 37.9461C37.4493 37.8756 37.4895 37.8404 37.5701 37.8404H38.8388C38.9294 37.8404 38.9899 37.8756 39.0201 37.9461L40.1227 40.3023C40.1327 40.3225 40.1478 40.3325 40.168 40.3325C40.1881 40.3325 40.2032 40.3225 40.2133 40.3023L41.331 37.9461C41.3612 37.8756 41.4216 37.8404 41.5122 37.8404H42.7659C42.8162 37.8404 42.8515 37.8605 42.8716 37.9008C42.8917 37.931 42.8917 37.9713 42.8716 38.0216L41.0591 41.6466C41.049 41.6768 41.049 41.707 41.0591 41.7372L42.8716 45.3471C42.8817 45.3672 42.8867 45.3924 42.8867 45.4226C42.8867 45.4931 42.8464 45.5283 42.7659 45.5283H41.5122C41.4216 45.5283 41.3612 45.4931 41.331 45.4226L40.2133 43.0361C40.2032 43.016 40.1881 43.0059 40.168 43.0059C40.1478 43.0059 40.1327 43.016 40.1227 43.0361L39.005 45.4226C38.9748 45.4931 38.9194 45.5283 38.8388 45.5283H37.5701Z" fill="black"/>
<path d="M48.713 42.1299C48.713 42.2306 48.6626 42.2809 48.5619 42.2809H45.1484C45.1081 42.2809 45.088 42.3011 45.088 42.3414V43.157C45.088 43.5195 45.1887 43.8165 45.3901 44.0481C45.5915 44.2797 45.8533 44.3955 46.1755 44.3955C46.4574 44.3955 46.6941 44.3099 46.8854 44.1387C47.0767 43.9676 47.1975 43.746 47.2479 43.4742C47.2781 43.3936 47.3335 43.3533 47.414 43.3533L48.5317 43.4137C48.5821 43.4137 48.6173 43.4289 48.6374 43.4591C48.6676 43.4893 48.6777 43.5245 48.6676 43.5648C48.5972 44.2193 48.3454 44.7328 47.9124 45.1054C47.4895 45.4679 46.9105 45.6491 46.1755 45.6491C45.4001 45.6491 44.7809 45.4327 44.3177 44.9997C43.8646 44.5667 43.638 43.9877 43.638 43.2627V40.1211C43.638 39.4061 43.8646 38.8272 44.3177 38.3841C44.7809 37.9411 45.4001 37.7195 46.1755 37.7195C46.9609 37.7195 47.5802 37.9411 48.0333 38.3841C48.4864 38.8272 48.713 39.4061 48.713 40.1211V42.1299ZM46.1755 38.9732C45.8533 38.9732 45.5915 39.089 45.3901 39.3206C45.1887 39.5522 45.088 39.8492 45.088 40.2117V41.0122C45.088 41.0525 45.1081 41.0726 45.1484 41.0726H47.2177C47.2579 41.0726 47.2781 41.0525 47.2781 41.0122V40.2117C47.2781 39.8492 47.1774 39.5522 46.976 39.3206C46.7746 39.089 46.5078 38.9732 46.1755 38.9732Z" fill="black"/>
<path d="M50.1628 45.5283C50.0621 45.5283 50.0118 45.478 50.0118 45.3773V35.1065C50.0118 35.0058 50.0621 34.9555 50.1628 34.9555H51.3107C51.4114 34.9555 51.4618 35.0058 51.4618 35.1065V45.3773C51.4618 45.478 51.4114 45.5283 51.3107 45.5283H50.1628Z" fill="black"/>
</g>
</g>
</svg>
