<svg width="81" height="80" viewBox="0 0 81 80" fill="none" xmlns="http://www.w3.org/2000/svg">
<g id="Logo" clip-path="url(#clip0_3071_64737)">
<g id="Layer 2">
<g id="Layer 1">
<path id="Vector" d="M25.7457 8.57129L34.6657 23.1342L43.7458 8.57129H51.6072L25.5855 50.3074H17.7231L30.7345 29.4399L17.5801 8.57129H18.5349H25.7457Z" fill="#141414"/>
<path id="Vector_2" d="M56.0803 8.57129L29.8672 50.3074H63.7513L60.3439 44.8426L41.133 44.8486L63.7513 8.57129H56.0803Z" fill="#141414"/>
<path id="Vector_3" d="M5.01232 61.5913V64.6123H3.41989V61.6155L0.0527344 56.0449H1.75495L4.26496 60.2198L6.80115 56.0449H8.36739L5.01232 61.5913Z" fill="#141414"/>
<path id="Vector_4" d="M14.4562 62.6315H10.1675L9.31939 64.6153H7.68164L11.5353 56.0449H13.1066L16.9743 64.6153H15.3114L14.4562 62.6315ZM13.9295 61.3829L12.3179 57.637L10.7134 61.3829H13.9295Z" fill="#141414"/>
<path id="Vector_5" d="M23.6746 64.6153L21.9241 62.1049C21.8143 62.1149 21.704 62.119 21.5937 62.117H19.6588V64.6153H18.0664V56.0449H21.5917C23.8449 56.0449 25.2409 57.1959 25.2409 59.093C25.2409 60.391 24.5791 61.3456 23.4158 61.7988L25.3879 64.6183L23.6746 64.6153ZM21.5202 57.3912H19.6588V60.8069H21.5202C22.9162 60.8069 23.6354 60.1705 23.6354 59.095C23.6354 58.0196 22.9172 57.3912 21.5202 57.3912Z" fill="#141414"/>
<path id="Vector_6" d="M32.6268 64.6153L30.8743 62.1049C30.7644 62.115 30.6541 62.119 30.5439 62.117H28.61V64.6153H27.0176V56.0449H30.5429C32.796 56.0449 34.1921 57.1959 34.1921 59.093C34.1921 60.391 33.5303 61.3456 32.367 61.7988L34.3391 64.6183L32.6268 64.6153ZM30.4714 57.3912H28.61V60.8069H30.4714C31.8674 60.8069 32.5865 60.1705 32.5865 59.095C32.5865 58.0196 31.8674 57.3912 30.4714 57.3912Z" fill="#141414"/>
<path id="Vector_7" d="M41.5274 62.6315H37.2417L36.3966 64.6153H34.7559L38.6125 56.0449H40.1808L44.0505 64.6153H42.3846L41.5274 62.6315ZM41.0007 61.3829L39.3841 57.637L37.7806 61.3829H41.0007Z" fill="#141414"/>
<path id="Vector_8" d="M45.1406 56.0449H46.7331V63.268H51.2202V64.6153H45.1406V56.0449Z" fill="#141414"/>
<path id="Vector_9" d="M58.0959 62.6315H53.8102L52.9651 64.6153H51.3203L55.178 56.0449H56.7493L60.619 64.6153H58.9531L58.0959 62.6315ZM57.5702 61.3829L55.9586 57.637L54.3541 61.3829H57.5702Z" fill="#141414"/>
<path id="Vector_10" d="M69.3256 56.0449V64.6153H68.0162L63.2893 58.8121V64.6153H61.709V56.0449H63.0184L67.7453 61.8481V56.0449H69.3256Z" fill="#141414"/>
<path id="Vector_11" d="M71.627 56.0449H75.3748C78.1548 56.0449 80.0524 57.7568 80.0524 60.3296C80.0524 62.9024 78.1548 64.6153 75.3748 64.6153H71.627V56.0449ZM75.3013 63.268C77.2151 63.268 78.4479 62.1049 78.4479 60.3296C78.4479 58.5543 77.211 57.3912 75.3013 57.3912H73.2194V63.268H75.3013Z" fill="#141414"/>
<path id="Vector_12" d="M35.5817 68.0837C35.5817 69.0353 34.926 69.5528 33.8784 69.5528H32.7705L32.5278 70.7612H32.2578L32.9981 67.0596H34.2884C35.1042 67.0586 35.5817 67.4291 35.5817 68.0837ZM35.3067 68.1048C35.3067 67.5862 34.936 67.3063 34.2753 67.3063H33.2227L32.8198 69.3102H33.8774C34.7829 69.3061 35.3057 68.8983 35.3057 68.1008L35.3067 68.1048Z" fill="#141414"/>
<path id="Vector_13" d="M37.6808 67.9824L37.6335 68.2412C37.6013 68.2412 37.5801 68.2412 37.5489 68.2412C36.9244 68.2412 36.5125 68.6168 36.3644 69.3489L36.0783 70.7657H35.8145L36.3644 68.0056H36.6233L36.5074 68.5866C36.7502 68.1838 37.1259 67.9824 37.6808 67.9824Z" fill="#141414"/>
<path id="Vector_14" d="M37.7812 69.633C37.7812 68.6864 38.442 67.9785 39.3626 67.9785C40.1079 67.9785 40.5844 68.4226 40.5844 69.1255C40.5844 70.077 39.9226 70.7809 39.003 70.7809C38.2567 70.7809 37.7812 70.3308 37.7812 69.633ZM40.3195 69.1416C40.3195 68.5545 39.9599 68.2162 39.3414 68.2162C38.5951 68.2162 38.0451 68.8083 38.0451 69.6179C38.0451 70.2039 38.4047 70.5423 39.0242 70.5423C39.7695 70.5423 40.3195 69.9562 40.3195 69.1416Z" fill="#141414"/>
<path id="Vector_15" d="M40.7852 70.4315L40.9272 70.2251C41.1337 70.4265 41.4993 70.5483 41.88 70.5483C42.4511 70.5483 42.7785 70.3308 42.7785 69.9774C42.7785 69.2795 41.187 69.7447 41.187 68.8133C41.187 68.3098 41.6473 67.9785 42.3393 67.9785C42.6838 67.9785 43.0444 68.0792 43.2458 68.2484L43.1249 68.4498C42.8887 68.2859 42.6066 68.201 42.3192 68.2071C41.7753 68.2071 41.4469 68.4397 41.4469 68.7831C41.4469 69.497 43.0444 69.0318 43.0444 69.9461C43.0444 70.4698 42.573 70.7769 41.8599 70.7769C41.4197 70.7809 40.9967 70.6329 40.7852 70.4315Z" fill="#141414"/>
<path id="Vector_16" d="M46.6872 69.1258C46.6872 70.0774 46.0265 70.7813 45.122 70.7813C44.5449 70.7813 44.1702 70.5276 44.0322 70.0764L43.6887 71.7883H43.4238L44.1803 68.0031H44.4391L44.3334 68.5368C44.4687 68.3592 44.6443 68.2163 44.8457 68.1198C45.047 68.0234 45.2684 67.9761 45.4917 67.9819C46.2048 67.9829 46.6872 68.4179 46.6872 69.1258ZM46.4173 69.142C46.4173 68.5549 46.0577 68.2166 45.4393 68.2166C44.6929 68.2166 44.143 68.8036 44.143 69.6183C44.143 70.2043 44.5026 70.5427 45.127 70.5427C45.8714 70.5427 46.4163 69.9506 46.4163 69.142H46.4173Z" fill="#141414"/>
<path id="Vector_17" d="M47.4252 69.4376C47.4201 69.496 47.4151 69.5534 47.4151 69.6118C47.4151 70.21 47.7646 70.5423 48.4354 70.5423C48.6101 70.5488 48.7843 70.5194 48.9472 70.4558C49.1101 70.3922 49.2581 70.2959 49.3822 70.1727L49.5041 70.358C49.2603 70.6218 48.8534 70.7809 48.4143 70.7809C47.6317 70.7809 47.1562 70.3469 47.1562 69.6229C47.1562 68.6814 47.7958 67.9785 48.6671 67.9785C49.3863 67.9785 49.8415 68.4115 49.8415 69.1305C49.8397 69.2336 49.8289 69.3364 49.8093 69.4376H47.4252ZM47.4574 69.2312H49.5837C49.5879 69.1857 49.5895 69.1399 49.5887 69.0942C49.5887 68.5233 49.208 68.2061 48.658 68.2061C48.0497 68.2061 47.5934 68.6179 47.4574 69.2312Z" fill="#141414"/>
<path id="Vector_18" d="M52.2268 67.9824L52.1784 68.2412C52.1472 68.2412 52.1261 68.2412 52.0938 68.2412C51.4703 68.2412 51.0574 68.6168 50.9093 69.3489L50.6243 70.7657H50.3594L50.9093 68.0056H51.1692L51.0523 68.5866C51.2971 68.1838 51.6718 67.9824 52.2268 67.9824Z" fill="#141414"/>
<path id="Vector_19" d="M54.2845 69.9613C54.2703 70.0254 54.2632 70.0909 54.2634 70.1566C54.2634 70.4154 54.4004 70.5534 54.6864 70.5534C54.8491 70.554 55.0072 70.5001 55.1357 70.4003L55.2152 70.5957C55.0439 70.7216 54.8355 70.7868 54.623 70.781C54.2261 70.781 53.9935 70.5635 53.9935 70.1939C53.9928 70.1228 53.9998 70.0519 54.0146 69.9824L54.3692 68.2273H53.8555L53.8978 67.9997H54.4115L54.5323 67.3955H54.7972L54.6754 67.9997H55.5506L55.5083 68.2273H54.63L54.2845 69.9613Z" fill="#141414"/>
<path id="Vector_20" d="M55.7656 69.633C55.7656 68.6864 56.4264 67.9785 57.347 67.9785C58.0923 67.9785 58.5677 68.4226 58.5677 69.1255C58.5677 70.077 57.907 70.7809 56.9864 70.7809C56.241 70.7809 55.7656 70.3308 55.7656 69.633ZM58.3038 69.1416C58.3038 68.5545 57.9443 68.2162 57.3258 68.2162C56.5795 68.2162 56.0295 68.8083 56.0295 69.6179C56.0295 70.2039 56.3891 70.5423 57.0075 70.5423C57.7539 70.5423 58.3038 69.9562 58.3038 69.1416Z" fill="#141414"/>
<path id="Vector_21" d="M62.1324 67.9996L61.6408 70.4636C61.4555 71.4062 60.9579 71.809 60.0696 71.809C59.566 71.809 59.1389 71.6509 58.875 71.376L59.0442 71.1796C59.2658 71.4283 59.6415 71.5713 60.0907 71.5713C60.826 71.5713 61.2279 71.238 61.3709 70.509L61.4555 70.0961C61.3146 70.2776 61.133 70.4234 60.9253 70.5217C60.7176 70.62 60.4897 70.6681 60.2599 70.662C59.5247 70.662 59.0513 70.2441 59.0513 69.5624C59.0513 68.6632 59.707 67.9814 60.6225 67.9814C61.1936 67.9814 61.6056 68.2302 61.7375 68.7055L61.8755 68.0006L62.1324 67.9996ZM61.6137 69.0901C61.6137 68.5403 61.249 68.2181 60.6256 68.2181C59.8691 68.2181 59.3162 68.784 59.3162 69.5503C59.3162 70.1001 59.6858 70.4234 60.3043 70.4234C61.0637 70.4213 61.6137 69.8605 61.6137 69.0901Z" fill="#141414"/>
<path id="Vector_22" d="M62.9203 69.4376C62.9203 69.496 62.9092 69.5534 62.9092 69.6118C62.9092 70.21 63.2588 70.5423 63.9306 70.5423C64.1051 70.5487 64.2791 70.5192 64.4418 70.4556C64.6045 70.392 64.7524 70.2957 64.8764 70.1727L64.9982 70.358C64.7555 70.6218 64.3476 70.7809 63.9094 70.7809C63.1268 70.7809 62.6504 70.3469 62.6504 69.6229C62.6504 68.6814 63.29 67.9785 64.1612 67.9785C64.8804 67.9785 65.3357 68.4115 65.3357 69.1305C65.3336 69.2336 65.3232 69.3363 65.3044 69.4376H62.9203ZM62.9516 69.2312H65.0778C65.0803 69.1856 65.0803 69.1399 65.0778 69.0942C65.0778 68.5233 64.6971 68.2061 64.1471 68.2061C63.5438 68.2061 63.0845 68.6179 62.9516 69.2312Z" fill="#141414"/>
<path id="Vector_23" d="M66.3343 69.9613C66.3206 70.0255 66.3135 70.091 66.3132 70.1566C66.3132 70.4154 66.4512 70.5534 66.7362 70.5534C66.8992 70.5542 67.0577 70.5003 67.1864 70.4003L67.265 70.5957C67.0939 70.7219 66.8853 70.7872 66.6727 70.781C66.2769 70.781 66.0432 70.5635 66.0432 70.1939C66.043 70.1229 66.0501 70.052 66.0644 69.9824L66.4189 68.2273H65.9062L65.9486 67.9997H66.4612L66.5831 67.3955H66.848L66.7261 67.9997H67.6034L67.5611 68.2273H66.6838L66.3343 69.9613Z" fill="#141414"/>
<path id="Vector_24" d="M70.7832 68.862C70.7824 68.9635 70.7716 69.0647 70.751 69.1641L70.4337 70.7612H70.1698L70.4871 69.1641C70.5057 69.0771 70.5145 68.9883 70.5132 68.8993C70.5132 68.4713 70.2544 68.2176 69.7357 68.2176C69.1062 68.2176 68.662 68.572 68.527 69.2598L68.2248 70.7612H67.9609L68.7435 66.834H69.0074L68.6751 68.5096C68.945 68.14 69.3408 67.9759 69.8062 67.9759C70.4387 67.9829 70.7832 68.3173 70.7832 68.862Z" fill="#141414"/>
<path id="Vector_25" d="M71.7504 69.4376C71.7454 69.496 71.7393 69.5534 71.7393 69.6118C71.7393 70.21 72.0888 70.5423 72.7607 70.5423C72.9353 70.5486 73.1095 70.519 73.2723 70.4555C73.4351 70.3919 73.5832 70.2957 73.7074 70.1727L73.8283 70.358C73.5856 70.6218 73.1787 70.7809 72.7395 70.7809C71.9569 70.7809 71.4805 70.3469 71.4805 69.6229C71.4805 68.6814 72.1201 67.9785 72.9913 67.9785C73.7105 67.9785 74.1647 68.4115 74.1647 69.1305C74.1627 69.2336 74.1522 69.3363 74.1335 69.4376H71.7504ZM71.7816 69.2312H73.9079C73.9104 69.1856 73.9104 69.1399 73.9079 69.0942C73.9079 68.5233 73.5272 68.2061 72.9772 68.2061C72.3719 68.2061 71.9146 68.6179 71.7816 69.2312Z" fill="#141414"/>
<path id="Vector_26" d="M76.5509 67.9824L76.5035 68.2412C76.4713 68.2412 76.4501 68.2412 76.4189 68.2412C75.7944 68.2412 75.3825 68.6168 75.2344 69.3489L74.9484 70.7657H74.6875L75.2374 68.0056H75.4933L75.3764 68.5866C75.6202 68.1838 75.9969 67.9824 76.5509 67.9824Z" fill="#141414"/>
</g>
</g>
</g>
<defs>
<clipPath id="clip0_3071_64737">
<rect width="80" height="80" fill="white" transform="translate(0.0527344)"/>
</clipPath>
</defs>
</svg>
