<svg width="161" height="40" viewBox="0 0 161 40" fill="none" xmlns="http://www.w3.org/2000/svg">
<g id="tiniapp">
<g id="Group">
<path id="Vector" d="M59.1299 13.4863C58.1672 13.4863 57.3867 12.7059 57.3867 11.7432C57.3867 10.7804 58.1672 10 59.1299 10H72.0693C73.0321 10 73.8125 10.7804 73.8125 11.7432C73.8125 12.7059 73.0321 13.4863 72.0693 13.4863H67.6894V27.9102C67.6894 29.0643 66.7538 30 65.5996 30C64.4454 30 63.5098 29.0643 63.5098 27.9102V13.4863H59.1299Z" fill="#141414"/>
<path id="Vector_2" d="M77.9659 10C79.1335 10 80.0801 10.9466 80.0801 12.1143V27.8857C80.0801 29.0534 79.1335 30 77.9659 30C76.7982 30 75.8516 29.0534 75.8516 27.8857V12.1143C75.8516 10.9466 76.7982 10 77.9659 10Z" fill="#141414"/>
<path id="Vector_3" d="M99.9531 12.1045C99.9531 10.9422 99.0109 10 97.8486 10C96.6863 10 95.7441 10.9422 95.7441 12.1045V22.5781H95.5683L87.6598 11.0553C87.2065 10.3948 86.4567 10 85.6555 10C84.313 10 83.2246 11.0884 83.2246 12.431V27.8857C83.2246 29.0534 84.1712 30 85.3388 30C86.5065 30 87.4531 29.0534 87.4531 27.8857V17.4121H87.5996L95.5863 28.9664C96.0337 29.6137 96.7704 30 97.5572 30C98.8804 30 99.9531 28.9273 99.9531 27.6041V12.1045Z" fill="#141414"/>
<path id="Vector_4" d="M105.229 10C106.396 10 107.343 10.9466 107.343 12.1143V27.8857C107.343 29.0534 106.396 30 105.229 30C104.061 30 103.115 29.0534 103.115 27.8857V12.1143C103.115 10.9466 104.061 10 105.229 10Z" fill="#141414"/>
<path id="Vector_5" d="M122.373 21.0139L121.161 17.2832H121.084L119.871 21.0139H122.373Z" fill="#141414"/>
<path id="Vector_6" d="M129.135 20.0222H130.551C130.952 20.0222 131.282 19.9532 131.542 19.8152C131.805 19.674 132.001 19.4798 132.13 19.2327C132.261 18.9824 132.327 18.6952 132.327 18.3711C132.327 18.0437 132.261 17.7581 132.13 17.5142C132.001 17.2671 131.805 17.0761 131.542 16.9414C131.279 16.8034 130.945 16.7344 130.541 16.7344H129.135V20.0222Z" fill="#141414"/>
<path id="Vector_7" d="M139.327 20.0222H137.912V16.7344H139.318C139.722 16.7344 140.056 16.8034 140.319 16.9414C140.582 17.0761 140.778 17.2671 140.906 17.5142C141.038 17.7581 141.104 18.0437 141.104 18.3711C141.104 18.6952 141.038 18.9824 140.906 19.2327C140.778 19.4798 140.582 19.674 140.319 19.8152C140.059 19.9532 139.728 20.0222 139.327 20.0222Z" fill="#141414"/>
<path id="Vector_8" fill-rule="evenodd" clip-rule="evenodd" d="M112.498 15.3333C112.498 12.3878 114.886 10 117.832 10H142.054C145 10 147.387 12.3878 147.387 15.3333V24.6667C147.387 27.6122 145 30 142.054 30H117.832C114.886 30 112.498 27.6122 112.498 24.6667V15.3333ZM116.377 24.8889H118.61L119.341 22.6409H122.901L123.631 24.8889H125.864L122.466 15.0303H119.78L116.377 24.8889ZM127.051 15.0303V24.8889H129.135V21.6925H130.888C131.645 21.6925 132.29 21.553 132.823 21.2737C133.359 20.9945 133.768 20.6046 134.05 20.104C134.333 19.6034 134.474 19.0257 134.474 18.3711C134.474 17.7164 134.334 17.1387 134.055 16.6381C133.779 16.1343 133.378 15.7411 132.852 15.4587C132.325 15.1731 131.688 15.0303 130.941 15.0303H127.051ZM135.828 24.8889V15.0303H139.717C140.465 15.0303 141.102 15.1731 141.628 15.4587C142.155 15.7411 142.556 16.1343 142.832 16.6381C143.111 17.1387 143.251 17.7164 143.251 18.3711C143.251 19.0257 143.109 19.6034 142.827 20.104C142.545 20.6046 142.135 20.9945 141.599 21.2737C141.067 21.553 140.422 21.6925 139.664 21.6925H137.912V24.8889H135.828Z" fill="#141414"/>
</g>
<g id="Group_2">
<path id="Vector_9" d="M32.9414 6.66699C38.1146 6.66699 42.3703 10.5952 42.8884 15.6315C43.2694 15.5816 43.658 15.5559 44.0525 15.5559C48.9617 15.5559 52.9414 19.5356 52.9414 24.4448C52.9414 29.354 48.9617 33.3337 44.0525 33.3337H35.9292C40.1149 32.0542 43.1636 28.1577 43.1636 23.5559C43.1636 17.9149 38.5824 13.3337 32.9414 13.3337C27.3004 13.3337 22.7192 17.9149 22.7192 23.5559C22.7192 28.1577 25.7679 32.0542 29.9536 33.3337H22.9414C17.4186 33.3337 12.9414 28.8565 12.9414 23.3337C12.9414 17.8108 17.4186 13.3337 22.9414 13.3337C23.1305 13.3337 23.3184 13.3389 23.5049 13.3493C24.8733 9.45714 28.5815 6.66699 32.9414 6.66699Z" fill="#141414"/>
<path id="Vector_10" d="M32.9419 32.0005C37.2582 32.0005 40.7687 28.5011 40.7687 24.1848C40.7687 23.4342 40.6583 22.7277 40.4706 22.0322H25.4243C25.2256 22.7166 25.1152 23.4342 25.1152 24.1848C25.1152 28.5011 28.6146 32.0005 32.9419 32.0005Z" fill="#141414"/>
</g>
</g>
</svg>
