<svg width="31" height="45" viewBox="0 0 31 45" fill="none" xmlns="http://www.w3.org/2000/svg">
<path d="M23.6114 0.70459V30.3138C23.7041 32.417 22.9834 34.4747 21.5999 36.0569C20.7616 36.9625 19.7383 37.6753 18.5999 38.1467C17.4615 38.618 16.235 38.8367 15.0046 38.7878C13.774 38.8379 12.5472 38.6197 11.4086 38.1483C10.2701 37.6768 9.24679 36.9633 8.40926 36.0569C7.02576 34.4747 6.30502 32.417 6.3977 30.3138V0.70459H0.099184V30.3138C0.029479 32.1593 0.350553 33.9987 1.04121 35.7105C1.73186 37.4223 2.77639 38.9675 4.10583 40.2442C7.08844 42.9761 11.0189 44.4259 15.054 44.2826C17.0526 44.3644 19.0475 44.0483 20.9238 43.3523C22.8 42.6563 24.5204 41.5944 25.9857 40.2277C27.309 38.9455 28.3504 37.3996 29.0433 35.6895C29.7361 33.9793 30.065 32.1426 30.0089 30.2973V0.70459H23.6114Z" fill="white"/>
</svg>
