<svg width="25" height="24" viewBox="0 0 25 24" fill="none" xmlns="http://www.w3.org/2000/svg">
<path d="M12.2813 22C17.8041 22 22.2813 17.5228 22.2813 12C22.2813 6.47715 17.8041 2 12.2813 2C6.75843 2 2.28128 6.47715 2.28128 12C2.28128 13.5114 2.6166 14.9446 3.2169 16.229L2.50426 20.6245C2.39475 21.3 2.98079 21.8834 3.65577 21.7709L8.01109 21.045C9.30608 21.6575 10.7537 22 12.2813 22Z" stroke="#141414" stroke-width="1.5" stroke-linecap="square" stroke-linejoin="round"/>
<path d="M16.2812 15.1111V14.6749C16.2812 14.1331 15.9514 13.6458 15.4483 13.4446L14.9818 13.258C14.4602 13.0494 13.8658 13.2753 13.6146 13.7778C13.6146 13.7778 12.5035 13.5556 11.6146 12.6667C10.7257 11.7778 10.5035 10.6667 10.5035 10.6667C11.0059 10.4155 11.2319 9.82105 11.0233 9.29949L10.8367 8.83296C10.6354 8.32988 10.1482 8 9.60634 8H9.17014C8.67922 8 8.28125 8.39797 8.28125 8.88889C8.28125 12.8162 11.465 16 15.3924 16C15.8833 16 16.2812 15.602 16.2812 15.1111Z" fill="#141414"/>
</svg>
